<svg width="500" height="500" viewBox="0 0 500 500" fill="none" xmlns="http://www.w3.org/2000/svg">
<path d="M219.982 298.492C222.551 300.293 225.124 302.089 227.688 303.896C242.221 314.141 256.006 325.284 268.451 338.019C275.505 345.236 282.091 352.85 287.645 361.305C291.565 367.272 294.874 373.549 297.175 380.337C298.91 385.46 299.812 390.712 299.887 396.111C299.909 397.682 299.884 399.254 299.914 401.083C299.277 404.331 297.523 406.666 295.467 408.832C294.071 410.303 292.746 411.841 291.334 413.295C290.839 413.805 290.237 414.31 289.585 414.555C283.807 416.724 278.027 418.89 272.208 420.943C267.331 422.664 262.293 423.782 256.887 424.506C256.431 424.526 256.264 424.571 256.096 424.617C255.003 424.587 253.909 424.557 252.438 424.463C251.514 424.441 250.969 424.484 250.424 424.526C249.704 424.488 248.984 424.45 247.844 424.379C244.596 424.26 241.768 424.174 238.843 424.009C238.436 423.97 238.126 424.009 237.576 424.013C230.29 423.825 223.243 423.672 216.052 423.435C215.256 423.388 214.605 423.426 213.722 423.433C206.995 423.258 200.499 423.115 193.845 422.889C192.862 422.849 192.038 422.892 190.962 422.903C185.828 422.738 180.946 422.592 176.063 422.471C163.257 422.154 150.452 421.835 137.645 421.542C132.579 421.426 127.51 421.379 122.319 421.216C121.716 421.169 121.236 421.208 120.521 421.213C113.423 421.038 106.559 420.897 99.5267 420.668C98.3545 420.617 97.3509 420.655 96.1085 420.661C89.1928 420.491 82.5157 420.353 75.6821 420.125C74.702 420.079 73.8785 420.123 73.0549 420.166C66.5728 419.987 60.0907 419.808 53.1546 419.558C50.7893 419.421 48.8738 419.065 46.7289 419.538C39.6922 419.329 32.8975 419.143 26.1025 418.975C21.9719 418.873 17.8406 418.796 13.7096 418.708C13.4748 418.577 13.24 418.445 13 418.31C13.779 416.656 14.5497 415.02 15.4737 413.046C16.1889 411.352 16.7507 409.997 17.3126 408.642C17.6486 408.108 17.9846 407.575 18.3494 406.996C20.9058 406.996 23.4303 406.996 26.2101 406.95C26.8824 406.948 27.2995 406.994 28.1435 407.05C29.581 407.12 30.591 407.211 31.6025 407.231C39.7964 407.393 47.9906 407.543 56.1848 407.686C56.451 407.691 56.7191 407.58 56.9863 407.523C57.7054 407.621 58.4229 407.791 59.1436 407.806C65.4584 407.933 71.7737 408.033 78.4931 408.178C79.3523 408.175 79.8074 408.134 80.2624 408.093C81.9512 408.202 83.6399 408.311 85.8319 408.427C91.2153 408.521 96.0954 408.618 100.976 408.684C101.798 408.695 102.622 408.567 103.445 408.504C105.276 408.66 107.106 408.914 108.94 408.955C124.918 409.31 140.894 409.753 156.881 409.695C180.255 409.61 203.63 409.644 227.004 409.634C235.423 409.63 243.807 409.076 252.143 407.917C258.199 407.074 264.13 405.711 269.693 403.059C272.464 401.739 275.047 400.146 277.352 397.561C279.914 394.509 281.165 391.295 281.38 387.678C281.536 385.065 281.081 382.534 280.309 380.045C278.594 374.519 275.758 369.565 272.535 364.81C268.485 358.835 263.964 353.22 259.06 347.941C252.965 341.379 246.74 334.935 240.453 328.557C233.904 321.915 227.15 315.476 220.614 308.823C217.253 305.403 214.166 301.714 210.971 298.132C210.622 297.741 210.163 297.319 210.57 296.609C211.076 296.586 211.626 296.585 212.171 296.534C215.007 296.268 217.674 296.659 219.982 298.492Z" fill="#434795"/>
<path d="M359.879 149.457C362.698 146.262 366.278 144.578 370.482 144.218C373.224 143.983 374.832 145.158 375.635 147.805C376.293 149.974 376.162 151.912 374.502 153.716C372.817 155.545 371.306 157.545 369.81 159.538C366.197 164.351 364.335 169.752 364.508 175.814C364.559 177.569 364.552 179.326 364.523 181.081C364.437 186.272 364.723 191.422 365.974 196.489C366.261 197.652 366.38 198.855 366.626 200.029C366.734 200.541 366.97 201.026 367.202 201.677C371.13 199.699 374.908 197.779 378.702 195.891C382.404 194.048 386.032 192.045 389.902 190.352C391.81 192.556 393.61 194.634 395.377 196.675C396.606 196.586 397.488 196.064 398.393 195.641C402.853 193.56 406.899 190.811 410.831 187.881C415.656 184.284 420.249 180.423 424.252 175.908C425.291 174.736 426.265 173.495 427.174 172.219C428.977 169.689 429.653 166.886 428.958 163.814C428.673 162.554 428.379 161.295 428.052 160.045C427.749 158.889 427.396 157.746 427.092 156.69C427.503 156.045 427.937 156.216 428.372 156.39C429.814 156.967 431.226 157.634 432.712 157.919C433.318 157.342 433.05 156.792 432.786 156.34C431.39 153.95 430.081 151.495 428.503 149.228C423.528 142.084 417.8 135.556 411.754 129.305C406.545 123.92 401.155 118.727 395.063 114.331C393.272 113.039 391.366 111.883 389.425 110.826C387.26 109.647 384.94 109.439 382.448 109.747C375.628 110.588 370.356 114.067 365.953 119.069C364.064 121.214 362.346 123.515 360.615 125.795C358.27 128.884 356.065 132.084 353.647 135.114C352.272 136.837 350.661 138.392 349.03 139.883C346.955 141.779 344.475 142.989 341.77 143.785C339.798 144.365 338.141 144.128 336.715 142.279C342.952 132.654 349.225 122.973 355.694 112.994C359.57 107.218 363.081 101.636 366.642 95.8892C365.862 95.6225 365.26 95.4371 364.673 95.2123C362.777 94.4866 360.894 93.7294 358.993 93.0161C356.455 92.0633 354.523 90.3064 352.78 88.3221C350.329 85.5323 348.982 82.231 348.487 78.5741C348.287 77.0964 348.758 75.8895 350.05 75C350.54 75.2688 350.946 75.4778 351.339 75.7096C356.431 78.7163 361.518 81.7309 366.615 84.7294C367.245 85.1 367.923 85.389 368.701 85.8658C370.997 87.2451 373.17 88.4743 375.46 89.8464C378.834 91.9173 382.091 93.8452 385.432 95.9339C386.423 96.8755 387.351 97.6332 388.232 98.4412C392.312 102.181 396.377 105.936 400.45 109.682C407.648 116.303 414.855 122.914 422.045 129.544C428.013 135.046 433.949 140.584 439.933 146.069C440.928 146.982 441.871 148.027 443.223 148.53C445.011 147.194 446.816 145.998 448.438 144.592C450.102 143.151 451.589 141.505 453.151 139.946C454.873 138.226 455.107 136.036 453.42 134.276C452.353 133.163 451.505 131.844 450.143 130.951C448.803 130.071 447.775 128.74 446.403 127.843C445.292 127.116 444.218 126.332 443.028 125.495C442.785 125.324 442.644 125.23 442.433 124.954C441.913 124.471 441.454 124.181 441.016 123.862C439.795 122.973 438.514 122.151 437.386 121.155C436.032 119.959 434.813 118.61 433.478 117.181C433.001 116.725 432.581 116.415 432.131 115.904C431.157 114.205 430.224 112.701 429.262 111.217C429.072 110.925 428.764 110.71 428.522 110.369C428.532 110.278 428.4 110.152 428.335 109.984C427.779 108.73 427.337 107.618 426.785 106.564C425.938 104.945 424.937 103.404 424.14 101.763C422.772 98.9444 420.951 96.4778 418.769 94.2458C417.05 92.4872 415.323 90.7486 412.843 89.3712C407.949 90.4681 402.8 91.8531 397.502 93.2024C397.225 93.095 397.109 93.0667 396.991 92.7984C397.46 90.5969 397.838 88.6066 398.43 86.6823C398.957 84.9677 400.116 83.489 401.617 82.6486C403.679 81.4942 405.901 80.5048 408.306 80.2163C410.677 79.9318 413.061 79.75 415.442 79.5478C417.109 79.4061 418.74 79.6166 420.44 80.3053C422.692 81.764 424.564 83.4003 426.239 85.2526C428.528 87.7827 430.773 90.3522 433.08 93.0825C433.786 93.9628 434.449 94.6655 435.169 95.5306C435.605 96.1158 435.982 96.5386 436.392 97.0954C436.689 97.4733 436.954 97.7171 437.329 98.1217C439.394 100.947 441.749 103.232 444.218 105.406C444.476 105.633 444.867 105.709 445.309 106C446.655 106.943 447.871 107.769 449.124 108.534C453.369 111.123 457.66 113.64 461.869 116.287C464.054 117.661 466.024 119.338 467.762 121.273C470.199 123.984 471.186 127.052 470.538 130.719C469.963 133.962 468.789 136.93 467.101 139.715C465.809 141.846 464.369 143.891 463.134 146.053C461.883 148.243 460.3 150.134 458.562 151.937C457.54 152.997 456.648 154.183 455.711 155.324C454.844 156.379 454.601 157.604 454.645 158.952C454.713 161.054 455.351 162.947 456.563 164.64C457.423 165.841 458.356 166.989 459.252 168.164C460.816 170.216 461.645 172.479 461.517 175.115C461.422 177.068 461.153 178.967 460.591 180.835C460.139 182.337 459.732 183.853 459.305 185.362C459.305 185.362 459.429 185.364 459.282 185.261C458.946 185.148 458.758 185.138 458.453 184.978C457.087 183.366 455.84 181.902 454.589 180.44C452.029 177.447 449.477 174.445 446.897 171.469C446.314 170.796 445.87 169.909 444.818 169.804C444.401 168.932 444.026 168.098 443.175 167.452C442.191 166.705 441.439 165.653 440.447 164.405C440.17 163.955 440.048 163.805 439.89 163.722C439.675 163.609 439.433 163.547 439.203 163.464C439.134 163.71 439.053 163.953 439.003 164.203C438.988 164.279 439.06 164.373 439.093 164.459C438.987 165.041 438.881 165.624 438.753 166.652C438.734 167.877 438.737 168.655 438.739 169.434C438.659 170.566 438.58 171.697 438.446 173.231C438.138 174.404 437.456 174.717 436.847 175.138C434.569 176.712 432.231 178.217 430.073 179.945C425.748 183.407 421.512 186.982 417.266 190.542C412.241 194.754 407.269 199.03 402.218 203.212C400.875 204.324 399.354 205.23 397.866 206.154C396.69 206.885 395.52 206.62 394.567 205.706C393.978 205.14 393.49 204.442 393.063 203.739C392.313 202.5 391.228 201.991 389.828 201.99C387.565 201.988 385.414 202.392 383.507 203.69C382.288 204.52 381.018 205.294 379.889 206.235C375.947 209.52 371.289 210.74 366.313 211.074C365.702 211.115 365.079 210.973 364.598 210.929C364.052 209.741 363.687 208.679 363.111 207.747C361.773 205.583 360.481 203.394 358.946 201.346C357.695 199.679 356.513 197.886 355.708 195.976C354.747 193.698 354.219 191.237 353.54 188.726C353.562 188.406 353.476 188.255 353.313 187.898C352.992 183.513 352.78 179.375 352.996 175.223C353.106 173.11 353.134 170.991 353.282 168.671C353.828 165.173 354.406 161.898 355.475 158.741C356.209 156.572 357.074 154.448 357.881 152.304C358.535 152.102 358.758 151.592 359.019 150.757C359.431 150.178 359.655 149.818 359.879 149.457Z" fill="#444795"/>
<path d="M463.978 312.149C464.065 312.165 464.175 312.225 464.236 312.193C465.257 311.645 466.106 310.942 466.535 309.683C467.268 309.223 468.119 309.079 468.082 308.132C468.082 308.132 468.178 307.964 468.162 307.869C470.553 305.411 473.189 303.342 476.41 301.448C477.002 301.304 477.259 301.308 477.516 301.311C477.546 301.433 477.575 301.554 477.636 302.065C477.802 303.792 477.937 305.13 478.071 306.468C478.099 307.787 478.128 309.105 478.182 310.869C478.33 312.288 478.453 313.262 478.576 314.236C478.742 317.413 478.909 320.59 479.099 324.216C479.185 325.258 479.248 325.85 479.269 326.663C479.364 328.215 479.503 329.547 479.642 330.88C479.695 333.43 479.677 335.985 479.828 338.529C479.916 340.001 479.579 341.196 478.542 342.251C477.841 342.963 477.247 343.781 476.349 344.728C475.995 344.925 475.898 344.946 475.801 344.966C475.571 343.75 475.342 342.534 475.086 340.965C475.055 340.42 474.974 340.267 474.817 340.155C474.408 337.224 473.999 334.293 473.564 330.913C473.065 328.752 473.31 326.884 472.499 325.189C471.36 326.184 471.36 326.184 470.663 327.905C470.43 328.239 470.338 328.458 470.175 328.751C470.021 328.936 469.964 329.059 469.931 329.194C466.567 335.637 463.203 342.08 459.823 348.555C458.558 348.146 457.466 347.897 456.713 346.787C456.351 346.254 455.505 346.05 454.802 345.654C454.49 343.345 454.66 341.053 455.052 338.777C456.108 332.645 458.03 326.782 460.614 321.129C460.921 320.458 461.197 319.774 461.584 318.732C463.072 316.734 463.78 314.73 464.629 312.81C464.792 312.442 464.377 312.198 463.978 312.149Z" fill="#444795"/>
<path d="M302.065 325.023C299.525 323.522 297.054 321.883 294.427 320.552C289.983 318.3 285.442 316.238 280.938 314.105C276.848 312.168 272.786 310.181 268.993 307.69C261.76 302.941 256.061 296.732 251.56 289.387C248.986 285.187 249.004 285.178 249.014 280.333C249.02 277.378 249.016 274.422 249.017 271.467C249.017 270.736 249.017 270.006 249.017 269.358C247.621 268.361 246.106 269.271 244.747 268.543C244.299 267.752 244.568 266.823 244.67 265.939C245.179 261.538 245.677 257.134 246.28 252.745C247.573 243.317 249.525 234.022 252.082 224.853C255.339 213.176 259.685 201.905 264.899 190.976C268.197 184.062 271.759 177.275 275.141 170.401C276.504 167.63 278.483 165.356 280.549 163.129C281.05 162.589 281.583 162.078 282.344 161.304C285.894 157.762 289.2 154.469 292.604 151.079C293.94 151.079 295.311 151.1 296.682 151.074C298.328 151.043 299.972 150.972 301.823 150.978C302.45 150.998 302.871 150.959 303.533 150.978C305.09 151.025 306.406 151.014 307.914 151.076C308.895 151.346 309.686 151.542 310.593 151.879C314.249 154.311 315.846 157.671 315.938 161.781C315.966 163.052 315.669 164.33 315.45 165.659C315.301 165.833 315.315 165.942 315.311 166.223C314.75 167.279 314.298 168.151 313.692 169.033C313.438 169.028 313.336 169.012 313.136 168.837C311.911 167.603 310.666 166.626 309.696 165.425C308.758 164.263 307.551 163.755 306.237 163.348C304.101 162.686 301.891 162.729 299.686 162.695C297.891 162.668 296.202 163.128 294.659 163.944C293.05 164.796 291.53 165.806 290.195 167.109C287.544 169.696 285.439 172.652 283.638 176.011C283.441 176.266 283.384 176.454 283.228 176.812C280.408 181.824 278.448 186.997 276.643 192.227C273.352 201.762 271.077 211.56 269.171 221.451C267.122 232.077 265.919 242.808 265.202 253.598C265.179 253.942 265.291 254.295 265.36 254.783C265.972 254.844 266.503 254.948 267.033 254.942C269.25 254.915 271.474 254.954 273.682 254.785C277.268 254.512 280.844 254.094 284.61 253.772C285.043 253.764 285.29 253.721 285.773 253.711C287.699 253.548 289.39 253.351 291.289 253.187C291.915 253.164 292.331 253.107 292.969 253.082C294.521 252.94 295.852 252.766 297.392 252.625C298.019 252.596 298.437 252.534 299.072 252.506C301.861 252.353 302.1 252.177 302.798 249.931C302.961 249.405 303.119 248.876 303.264 248.344C304.664 243.203 306.074 238.064 307.454 232.918C308.667 228.396 309.846 223.864 311.107 219.274C311.246 219.088 311.233 218.975 311.247 218.673C311.601 218.23 311.845 217.779 312.083 217.782C312.681 217.791 313.326 217.903 313.861 218.162C314.564 218.503 314.264 219.278 314.287 219.95C314.202 220.088 314.162 220.158 314.175 220.217C314.202 220.342 314.257 220.461 314.244 220.797C314.096 221.649 313.977 222.284 313.918 222.924C313.298 229.707 312.692 236.492 312.072 243.275C311.855 245.658 311.749 248.061 311.353 250.415C310.575 255.042 309.629 259.64 308.753 264.25C308.753 264.25 308.783 264.258 308.773 264.245C299.617 264.257 290.472 264.282 281.327 264.307C278.648 264.314 275.969 264.313 273.29 264.326C270.693 264.338 268.143 264.688 265.617 265.304C263.388 265.847 261.129 266.268 258.731 266.776C258.928 267.455 259.054 268.075 259.284 268.655C260.76 272.382 261.627 276.233 261.716 280.25C261.794 283.735 263.107 286.679 265.499 289.209C267.729 291.569 270.202 293.629 272.823 295.524C277.983 299.255 283.489 302.431 289.049 305.511C294.05 308.28 299.08 310.995 304.098 313.732C310.34 317.136 316.794 320.111 323.26 323.05C334.353 328.091 345.525 332.956 356.96 337.181C359.988 338.3 363.088 339.228 366.427 340.374C366.812 340.638 366.953 340.717 367.125 340.742C370.565 345.79 375.085 349.674 380.229 352.878C387.166 357.199 394.673 360.296 402.327 363.059C409.189 365.535 416.083 367.922 422.938 370.417C427.019 371.902 430.917 373.793 434.784 376.489C434.965 376.998 434.938 377.171 434.91 377.344C433.552 377.192 432.193 377.04 430.368 376.844C428.379 376.657 426.856 376.515 425.124 376.301C423.575 376.121 422.235 376.012 420.647 375.838C418.399 375.624 416.399 375.475 414.399 375.326C414.145 375.263 413.891 375.2 413.266 375.076C408.905 374.6 404.915 374.186 400.925 373.771C398.873 373.516 396.82 373.261 394.38 372.924C393.539 372.832 393.086 372.822 392.633 372.812C391.235 371.792 389.849 370.754 388.436 369.755C385.53 367.699 382.609 365.664 379.402 363.54C378.965 363.385 378.827 363.3 378.696 363.207C378.456 362.972 378.217 362.736 377.712 362.431C377.313 362.293 377.182 362.22 377.054 362.142C376.805 361.898 376.555 361.654 376.04 361.336C375.645 361.193 375.517 361.124 375.389 361.053C375.389 361.053 375.253 360.821 375.001 360.721C374.579 360.556 374.42 360.469 374.273 360.36C374.048 360.136 373.823 359.911 373.32 359.616C372.888 359.469 372.74 359.383 372.598 359.286C372.358 359.058 372.118 358.83 371.602 358.537C371.184 358.386 371.046 358.294 370.829 358.035C370.106 357.552 369.466 357.231 368.715 356.847C368.445 356.723 368.297 356.641 368.081 356.374C367.357 355.884 366.712 355.56 365.954 355.174C365.677 355.053 365.527 354.971 365.306 354.693C358.35 350.244 351.23 346.409 344.029 342.719C343.792 342.598 343.503 342.578 343.238 342.51C342.457 342.055 341.708 341.53 340.89 341.155C335.5 338.688 330.094 336.253 324.526 333.492C324.376 332.268 323.695 331.955 323.041 331.6C319.552 329.703 315.781 328.571 311.977 327.537C311.015 327.276 310.013 327.062 309.022 327.025C307.87 326.983 306.873 326.663 305.945 326.012C305.195 325.487 304.446 324.955 303.658 324.492C302.977 324.093 302.432 324.351 302.065 325.023Z" fill="#434694"/>
<path d="M341.241 191.943C341.467 191.48 341.674 191.257 341.94 191.259C342.043 191.9 342.087 192.316 342.131 192.732C342.091 193.19 342.008 193.649 342.017 194.106C342.153 200.746 342.315 207.385 342.443 214.026C342.598 222.05 342.702 230.075 342.872 238.098C343.144 250.917 343.453 263.735 343.726 277.021C343.572 278.054 343.125 278.139 342.654 278.159C341.734 278.198 340.813 278.22 339.738 278.236C339.504 278.392 339.425 278.561 339.306 278.972C339.578 282.293 339.871 285.372 340.204 288.447C340.409 290.344 340.674 292.236 340.849 294.218C340.843 294.501 340.901 294.697 340.95 295.14C341.092 296.863 341.244 298.338 341.155 299.851C340.598 299.819 340.283 299.751 339.968 299.683C339.816 299.415 339.663 299.147 339.307 298.701C339.021 298.38 338.918 298.252 338.797 298.138C336.96 295.523 336.009 292.51 334.999 289.535C334.268 287.381 333.697 285.172 332.977 282.694C332.883 282.252 332.806 282.15 332.669 282.094C332.296 280.079 330.846 278.73 329.551 277.35C328.584 276.32 327.13 276.054 325.736 275.942C323.717 275.779 321.694 275.645 319.67 275.57C317.553 275.492 315.432 275.513 313.314 275.462C310.244 275.389 307.293 274.785 304.363 273.375C304.181 272.68 303.976 271.9 303.783 271.166C304.394 270.17 305.419 270.189 306.534 269.719C307.031 269.604 307.164 269.506 307.253 269.349C310.759 268.289 314.267 267.24 317.768 266.165C320.747 265.25 323.717 264.311 326.688 263.371C327.469 263.124 328.237 262.835 329.072 262.544C329.633 260.521 329.258 258.499 329.467 256.197C329.527 255.817 329.564 255.748 329.548 255.696C329.514 255.582 329.453 255.476 329.403 255.366C329.567 251.216 329.684 247.063 329.919 242.917C330.023 241.084 330.134 239.197 330.642 237.45C333.193 228.67 334.929 219.698 337.062 210.821C338.247 205.89 339.333 200.935 340.544 195.69C340.705 195.248 340.694 195.114 340.593 194.988C340.802 194.053 341.012 193.118 341.241 191.943Z" fill="#434694"/>
<path d="M469.39 361.085C470.175 360.319 471.112 359.657 471.714 358.768C473.272 356.465 475.173 354.524 477.319 352.782C478.027 352.208 478.717 351.543 479.21 350.785C480.472 348.845 482.411 347.563 483.861 345.814C484.018 345.624 484.303 345.539 484.666 345.324C486.951 348.735 488.021 352.439 488 356.931C487.348 362.598 484.984 367.032 481.783 371.083C478.156 375.674 473.843 379.575 469.4 383.34C466.38 385.899 463.359 388.451 460.582 391.282C459.4 392.487 458.895 393.788 459.141 395.514C459.688 399.352 460.089 403.21 460.549 407.06C460.834 409.44 461.117 411.82 461.163 414.238C459.508 414.386 458.089 414.497 456.446 414.52C454.249 414.413 452.277 414.392 450.304 414.372C450.133 414.168 449.962 413.963 449.712 413.446C449.135 411.606 448.659 410.07 448.114 408.56C448.026 408.315 447.627 408.182 447.475 407.926C447.754 407.737 447.79 407.587 447.762 407.214C447.705 405.5 447.573 403.976 447.496 402.212C447.646 400.662 447.742 399.354 447.909 397.903C447.964 397.218 447.948 396.675 447.73 396.008C447.443 396.016 447.357 396.148 447.49 396.276C448.701 395.512 448.685 394.31 448.918 393.271C450.069 388.126 452.052 383.269 453.97 378.39C454.4 377.299 454.923 376.224 456.078 375.59C456.615 375.295 457.061 374.737 457.402 374.204C458.853 371.932 460.767 370.111 462.792 368.37C463.607 367.67 464.526 366.995 464.888 365.696C465.661 364.78 466.329 364 467.163 363.144C467.996 362.396 468.663 361.725 469.345 361.062C469.36 361.07 469.39 361.085 469.39 361.085Z" fill="#434694"/>
<path d="M380.694 326.917C381.368 326.933 381.785 326.99 382.631 327.079C385.501 327.451 387.942 327.791 390.384 328.131C391.777 328.604 393.174 329.07 394.565 329.552C398.44 330.894 401.81 333.145 405.121 335.486C407.974 337.503 410.788 339.575 413.666 341.808C413.175 341.972 412.614 342.044 412.103 341.915C402.191 339.415 392.285 336.889 382.376 334.374C378.537 333.4 374.695 332.442 370.476 331.447C369.977 331.585 369.857 331.753 369.736 331.92C369.584 332.177 369.432 332.435 369.115 332.901C368.695 333.281 368.441 333.452 368.187 333.623C366.302 332.116 364.292 330.782 362.33 329.387C360.435 328.039 358.511 326.699 356.647 325.29C354.299 323.513 351.764 321.98 349.433 320.183C347.658 318.813 345.549 317.897 344.038 316.179C341.519 315.133 339.643 313.123 337.408 311.648C335.258 310.229 333.157 308.674 331.064 307.139C327.824 304.761 324.635 302.305 321.293 300.078C319.949 299.183 318.774 298.053 317.388 297.28C316.039 296.528 314.974 295.426 313.677 294.667C312.275 293.847 311.127 292.687 309.757 291.884C308.348 291.059 307.215 289.892 305.844 289.067C303.616 287.727 301.619 286.066 299.434 284.667C297.546 283.459 295.79 282.045 293.871 280.559C294.077 279.883 294.391 279.373 294.699 278.859C295.049 278.273 295.589 278.096 296.432 278.087C302.598 278.879 307.906 281.396 312.973 284.493C316.98 286.944 320.771 289.714 324.472 292.601C329.333 296.394 334.073 300.345 339.016 304.025C344.552 308.147 350.257 312.042 355.889 316.035C360.165 319.066 364.461 322.07 368.708 325.141C370.333 326.316 372 327.001 374.076 326.87C376.186 326.737 378.316 326.915 380.694 326.917Z" fill="#464898"/>
<path d="M302.174 325.165C302.431 324.351 302.976 324.093 303.657 324.492C304.446 324.955 305.195 325.487 305.945 326.012C306.872 326.663 307.869 326.983 309.022 327.025C310.013 327.062 311.014 327.276 311.977 327.537C315.78 328.571 319.552 329.703 323.041 331.6C323.694 331.955 324.376 332.268 324.364 333.374C323.147 333.176 321.931 332.753 320.698 332.389C317.336 331.394 313.975 330.392 310.595 329.462C309.559 329.177 308.466 328.887 307.264 329.325C307.445 329.918 307.576 330.449 307.768 330.956C309.8 336.345 311.009 341.915 311.711 347.628C312.794 356.448 313.173 365.3 313.322 374.175C313.432 380.734 313.621 387.294 313.91 393.847C314.106 398.279 314.669 402.674 315.907 406.966C316.59 409.334 317.704 411.389 319.484 413.106C321.546 415.094 323.566 417.127 325.589 419.155C326.096 419.663 326.546 420.228 327.01 420.754C326.811 420.981 326.702 421.215 326.589 421.217C320.777 421.323 314.966 421.299 309.101 421.219C307.661 419.167 306.304 417.19 304.896 415.25C304.298 414.428 304.272 413.538 304.359 412.608C304.627 409.757 304.911 406.908 305.178 404.057C305.282 402.953 305.359 401.847 305.428 400.481C305.79 396.452 306.166 392.684 306.556 388.918C306.889 385.701 307.264 382.489 307.562 379.269C307.664 378.173 307.693 377.049 307.573 375.958C306.942 370.172 306.251 364.391 305.583 358.609C304.926 352.917 304.274 347.225 303.616 341.534C303.191 337.862 302.754 334.191 302.337 330.519C302.288 330.079 302.331 329.629 302.331 329.039C303.547 328.895 304.621 328.767 305.678 328.642C305.914 328.037 305.49 327.765 305.146 327.494C304.203 326.75 303.239 326.034 302.174 325.165Z" fill="#464898"/>
<path d="M332.062 343.877C332.306 343.492 332.579 343.345 333.017 343.225C335.369 346.026 336.445 349.222 336.856 353.109C337.009 354.11 337.092 354.701 337.175 355.292C337.193 361.547 337.113 367.805 337.274 374.057C337.347 376.895 337.774 379.741 338.273 382.543C338.608 384.426 339.153 386.327 339.951 388.06C341.427 391.262 342.355 394.611 343.199 398.005C344.086 401.573 345.009 405.132 345.892 408.956C345.783 409.324 345.675 409.396 345.544 409.433C343.918 407.982 342.228 406.62 340.676 405.066C338.689 403.075 337.394 400.709 336.213 398.276C333.425 392.531 331.684 386.445 330.752 379.793C330.727 379.296 330.662 379.164 330.525 379.067C329.533 373.743 330.213 368.424 330.605 363.108C331.071 356.775 331.594 350.446 332.062 343.877Z" fill="#464898"/>
<path d="M438.014 353.55C437.649 356.527 437.284 359.504 436.928 362.706C436.184 361.832 436.031 360.544 435.818 359.287C434.54 351.734 433.282 344.178 432.022 336.622C431.886 335.809 431.777 334.991 431.625 333.974C432.055 334.137 432.359 334.252 432.815 334.449C434.784 336.09 436.566 337.69 438.423 339.198C441.712 341.87 445.044 344.488 448.361 347.126C449.874 348.33 451.408 349.51 452.902 350.737C453.824 351.495 454.689 352.323 455.698 353.226C454.635 359.329 453.576 365.409 452.533 371.722C452.549 371.954 452.542 371.906 452.372 371.954C452.105 372.036 452.007 372.068 451.91 372.1C451.563 371.574 451.157 371.077 450.881 370.516C449.614 367.943 448.812 365.21 448.133 362.434C447.85 361.274 447.508 360.129 447.094 358.621C446.652 357.821 446.309 357.377 445.966 356.932C443.953 354.266 441.494 352.096 438.641 350.196C438.03 350.987 438.185 351.833 437.997 352.898C437.856 353.333 437.884 353.453 438.014 353.55Z" fill="#464898"/>
<path d="M155.15 257.96C158.235 258.511 161.335 258.99 164.402 259.626C177.451 262.329 190.091 266.372 202.428 271.385C212.534 275.491 222.372 280.137 231.608 285.978C233.635 287.26 235.585 288.665 237.541 290.055C238.277 290.579 238.927 291.223 239.662 291.85C238.694 294.262 237.287 296.168 235.514 297.804C234.669 298.585 233.611 298.881 232.443 298.823C230.942 298.749 229.525 298.352 228.179 297.724C226.508 296.944 224.838 296.148 223.226 295.255C222 294.576 220.747 294.031 218.968 293.691C213.244 292.059 207.886 290.62 202.618 288.906C196.295 286.848 190.02 284.633 183.773 282.35C165.116 275.534 145.868 271.917 126.018 271.441C123.061 271.37 120.105 271.251 117.15 271.12C116.546 271.093 115.948 270.91 115.26 270.783C115.452 269.434 115.619 268.257 115.903 266.925C116.307 265.763 116.595 264.755 117 263.6C117.42 262.63 117.722 261.807 118.164 260.858C120.376 256.404 122.865 252.323 125.562 248.362C126.068 247.62 126.439 246.786 126.974 245.834C128.983 243.251 130.889 240.827 132.941 238.306C134.228 236.761 135.369 235.312 136.66 233.773C137.606 232.684 138.404 231.685 139.353 230.599C139.772 230.138 140.038 229.764 140.462 229.309C141.44 228.244 142.26 227.261 143.245 226.184C145.079 224.208 146.748 222.326 148.418 220.444C149.65 219.201 150.875 217.951 152.116 216.716C161.935 206.94 171.762 197.172 181.572 187.387C183.332 185.633 185.002 183.789 186.765 182.039C187.475 181.334 188.322 180.765 189.117 180.148C189.33 179.982 189.672 179.924 189.8 179.719C190.462 178.662 191.597 178.214 192.484 177.467C193.388 176.706 194.363 176.059 195.251 175.322C197.596 173.375 200.09 171.669 202.591 169.944C204.438 168.669 206.166 167.24 208.139 166.123C210.16 164.98 212.047 163.602 214.001 162.338C215.341 161.471 216.666 160.572 218.052 159.784C220 158.675 222 157.657 223.975 156.595C224.381 156.377 224.82 156.189 225.166 155.896C226.206 155.015 227.362 154.371 228.649 153.928C229.168 153.749 229.686 153.513 230.14 153.207C233.745 150.779 237.745 149.158 241.687 147.392C244.275 146.231 246.871 145.09 249.486 143.996C252.125 142.893 254.814 141.908 257.747 140.801C258.143 140.728 258.228 140.664 258.267 140.54C263.007 139.03 267.753 137.551 272.624 136.495C276.512 135.651 280.43 135.107 284.407 135.039C287.45 134.987 290.495 135.049 293.537 134.975C300.139 134.814 306.594 135.689 312.928 137.535C314.165 137.895 315.427 138.171 317.032 138.599C317.967 138.88 318.563 139.009 319.123 139.228C319.46 139.359 319.674 139.65 319.154 140.03C316.282 140.71 313.63 141.4 310.755 142.09C308.289 142.648 306.046 143.205 303.803 143.762C302.426 144.055 301.05 144.349 299.284 144.759C296.988 145.344 295.081 145.813 292.941 146.287C288.976 147.163 285.241 148.017 281.517 148.913C278.596 149.616 275.688 150.369 272.558 151.079C271.152 151.3 269.963 151.544 268.533 151.766C262.464 152.615 256.905 154.359 251.415 156.957C251.019 157.12 250.802 157.24 250.424 157.371C249.794 157.642 249.325 157.901 248.655 158.185C241.073 161.599 234.123 165.739 227.495 170.413C222.913 173.645 218.267 176.817 213.919 180.347C206.678 186.225 199.627 192.34 192.931 198.846C192.009 199.742 191.136 200.689 190.077 201.702C189.066 202.684 188.218 203.575 187.209 204.538C186.667 205.056 186.286 205.502 185.762 206.018C185.054 206.714 184.487 207.339 183.752 208.064C174.407 217.544 165.815 227.429 157.927 237.917C153.875 243.304 150.033 248.836 146.69 254.698C146.293 255.394 145.608 256.002 145.813 256.966C146.675 257.376 147.582 257.381 148.716 257.329C151.001 257.594 153.076 257.777 155.15 257.96Z" fill="#434694"/>
<path d="M268.613 330.606C264.107 326.347 259.737 322.23 255.374 318.107C250.8 313.784 246.442 309.267 242.94 304.002C241.924 302.476 241.012 300.879 239.951 299.149C240.582 298.799 241.019 298.523 241.484 298.31C241.817 298.158 242.196 298.112 242.541 297.983C247.592 296.098 246.419 296.194 250.239 299.01C266.482 310.983 280.14 325.368 290.415 342.819C295.175 350.903 298.861 359.459 300.728 368.689C301.44 372.206 301.677 375.819 302.109 379.391C302.172 379.91 302.118 380.444 302.118 380.928C301.347 381.189 301.122 380.688 300.89 380.347C299.28 377.982 297.564 375.675 296.137 373.203C292.722 367.285 289.482 361.267 286.104 355.327C283.96 351.556 281.761 347.812 279.467 344.13C276.428 339.251 272.81 334.816 268.613 330.606Z" fill="#444795"/>
<path d="M114.673 374.585C115.474 374.733 116.274 374.88 117.227 375.056C116.978 376.455 116.218 377.507 115.57 378.561C115.28 379.033 114.568 379.364 113.985 379.508C113.195 379.702 112.345 379.702 111.521 379.705C106.555 379.721 101.589 379.71 96.6223 379.716C93.4345 379.72 90.3902 379.101 87.6337 377.461C84.6912 375.711 81.5226 375.015 78.1356 375.097C76.2974 375.141 74.4577 375.123 72.3138 374.994C72.2237 374.477 72.352 373.99 72.668 373.742C74.097 372.619 75.5791 371.564 77.0421 370.484C77.4369 370.424 77.8316 370.364 78.6568 370.298C79.7298 370.335 80.3766 370.343 81.0143 370.424C90.3192 371.6 99.6222 372.791 108.928 373.963C110.839 374.203 112.758 374.379 114.673 374.585Z" fill="#48499C"/>
<path d="M110.872 383.245C116.954 381.726 122.441 379.284 127.908 376.793C134.798 373.654 141.659 370.45 148.565 367.344C154.714 364.578 161.141 363.114 167.932 363.367C171.994 363.518 176.063 363.456 180.126 363.59C185.073 363.753 189.793 365.077 194.41 366.739C198.058 368.052 201.633 369.565 205.253 370.957C208.354 372.149 211.473 373.294 214.585 374.46C215.267 374.715 215.95 374.97 216.647 375.23C216.865 376.699 216.837 378.048 216.593 379.491C215.857 379.491 215.218 379.6 214.63 379.473C210.84 378.655 207.037 377.879 203.284 376.91C198.963 375.795 194.6 375.14 190.14 375.134C184.873 375.127 179.604 375.192 174.337 375.113C165.362 374.978 156.665 376.525 148.244 379.518C141.894 381.774 135.636 384.291 129.35 386.724C124.956 388.424 120.564 390.11 116.055 391.501C109.401 393.553 102.633 393.915 95.7626 393.262C92.5361 392.955 89.3737 392.307 86.2404 391.477C79.6922 389.743 73.0697 388.605 66.2482 388.958C61.1408 389.223 56.1512 390.032 51.3299 391.776C48.898 392.656 46.4725 393.555 44.025 394.39C42.6487 394.859 41.2335 395.214 39.4551 395.732C39.7168 395.062 39.7737 394.728 39.9534 394.485C44.9679 387.695 51.8301 384.158 60.078 383.023C65.9762 382.211 71.8781 382.455 77.7868 382.81C85.7173 383.286 93.6481 383.76 101.581 384.204C104.644 384.376 107.671 384.058 110.872 383.245Z" fill="#464898"/>
<path d="M186.376 358.06C186.205 358.571 185.817 358.769 185.316 358.735C183.477 358.61 181.623 358.584 179.805 358.316C168.895 356.706 159.442 352.055 151.385 344.54C151.048 344.226 150.703 343.922 150.114 343.377C143.001 336.084 137.673 327.98 133.471 319.107C132.608 317.284 131.734 315.467 130.901 313.565C130.92 313.347 130.846 313.261 130.671 313.024C128.686 307.553 126.745 302.282 124.841 296.914C124.866 296.665 124.792 296.554 124.632 296.274C123.98 293.987 123.353 291.91 122.749 289.71C122.74 289.41 122.648 289.273 122.481 288.961C121.653 285.289 120.472 281.911 120.051 278.226C126.13 278.226 132.01 278.226 137.922 278.226C138.603 279.792 138.344 281.385 138.442 282.923C138.811 288.754 139.856 294.448 141.648 300.01C144.258 308.105 148.453 315.33 153.649 322.011C158.422 328.148 163.875 333.66 169.359 339.146C171.969 341.757 174.545 344.402 177.123 347.046C180.48 350.487 183.431 354.272 186.376 358.06Z" fill="#434694"/>
</svg>
