<svg width="1652" height="331" viewBox="0 0 1652 331" fill="none" xmlns="http://www.w3.org/2000/svg">
<g clip-path="url(#clip0_217_724)">
<path d="M1625.14 114.161C1626.75 113.423 1628.36 112.685 1630.61 111.666C1633.14 110.834 1635.02 110.283 1636.91 109.732C1637.59 109.715 1638.27 109.699 1639.29 109.612C1643.05 109.769 1646.47 109.998 1649.9 110.227C1651.76 114.035 1650.82 117.916 1651.33 122.566C1651.53 127.119 1651.7 130.718 1651.73 134.364C1651.6 134.412 1651.65 134.693 1651.18 134.646C1648.53 134.262 1646.35 133.925 1644.17 133.588C1642.53 133.462 1640.89 133.336 1638.91 133.305C1626.96 133.954 1619.93 140.594 1615.95 150.871C1614.64 154.258 1613.88 157.962 1613.5 161.588C1612.77 168.548 1612.5 175.557 1611.93 183.402C1611.86 186.843 1611.89 189.428 1611.91 192.013C1611.85 198.696 1611.79 205.379 1611.83 212.544C1611.54 214.008 1611.14 214.998 1609.84 215.025C1608.96 215.043 1608.08 215.08 1607.21 215.08C1600.55 215.078 1593.89 215.078 1587.23 215.055C1586.19 215.051 1585.15 214.938 1583.82 214.859C1583.62 213.862 1583.2 212.881 1583.26 211.926C1583.74 203.181 1584.3 194.441 1584.83 185.7C1585.25 178.88 1585.86 172.066 1586.04 165.24C1586.49 148.95 1586.74 132.655 1587.08 116.363C1587.1 115.167 1587.25 113.975 1587.34 112.629C1588.15 112.43 1588.8 112.135 1589.45 112.129C1596.81 112.067 1604.17 112.075 1611.53 112C1613.23 111.983 1614.22 112.54 1614.23 115.114C1614.28 116.349 1614.32 116.82 1614.22 117.659C1613.95 119.218 1613.75 120.41 1613.75 121.602C1613.75 122.695 1613.21 123.913 1614.41 125.171C1616.66 122.485 1618.82 119.907 1621.29 117.206C1622.78 116.109 1623.96 115.135 1625.14 114.161Z" fill="#F3653D"/>
<path d="M1434.78 97.8688C1434.48 101.85 1434.03 105.329 1433.85 108.822C1433.34 118.792 1432.96 128.768 1432.5 138.74C1431.91 151.511 1431.18 164.275 1430.75 177.051C1430.38 187.73 1430.36 198.42 1430.18 209.106C1430.15 210.832 1430.06 212.558 1429.98 214.561C1425.49 215.649 1421.14 214.971 1416.85 215.032C1412.52 215.094 1408.16 215.259 1403.66 214.836C1402.84 211.966 1403.54 209.364 1403.46 206.798C1403.38 204.438 1404.26 202.074 1403.75 199.763C1402.09 199.509 1401.7 200.665 1401 201.37C1398.42 203.978 1396.09 206.918 1393.21 209.137C1384.05 216.192 1373.57 218.792 1362.09 217.575C1358.23 217.167 1354.49 216.312 1350.85 215.009C1337.91 210.378 1329.43 201.462 1325.36 188.362C1323.37 181.97 1322.43 175.396 1322.35 167.907C1322.5 165.934 1322.61 164.759 1322.85 163.247C1322.98 162.434 1322.97 161.957 1323.11 161.083C1323.94 157.629 1324.54 154.547 1325.34 151.519C1327.65 142.808 1331.55 134.892 1337.5 128.071C1339.1 126.24 1340.84 124.526 1342.82 122.614C1348.83 118.061 1355 114.604 1362.02 112.754C1363.19 112.445 1364.32 111.969 1365.67 111.589C1365.89 111.608 1366.19 111.317 1366.64 111.309C1369.63 110.839 1372.17 110.376 1375.21 109.961C1380.59 109.954 1385.49 109.725 1390.37 109.896C1395.39 110.072 1400.4 110.639 1405.55 111.045C1406.59 107.364 1406.31 103.907 1406.1 100.454C1406.28 93.2181 1406.45 85.9819 1406.85 78.0948C1407.52 77.1817 1407.96 76.9195 1408.39 76.6573C1410.12 76.7231 1411.84 76.856 1413.56 76.8426C1419.99 76.7925 1426.42 76.6799 1432.85 76.6325C1433.69 76.6263 1434.52 76.8638 1435.63 77.0296C1436.08 83.9593 1434.77 90.648 1434.78 97.8688ZM1357.19 188.944C1357.81 189.56 1358.4 190.217 1359.06 190.786C1364.71 195.621 1371.26 197.365 1378.6 196.496C1386.7 195.536 1392.52 191.154 1396.76 184.445C1400.49 178.552 1402.22 171.949 1403.15 165.129C1404.56 154.692 1404.49 144.156 1405.03 133.661C1405.08 132.676 1404.76 131.671 1404.59 130.536C1402.49 130.114 1400.64 129.614 1398.76 129.383C1391.04 128.439 1383.39 128.453 1375.85 130.781C1366.85 133.564 1360.16 139.085 1355.79 147.427C1353.49 151.815 1352.19 156.526 1351.21 161.355C1349.25 171.135 1351.08 180.129 1357.19 188.944Z" fill="#F3663E"/>
<path d="M755.675 62.0548C747.339 59.0146 739.091 57.6612 730.684 56.8825C724.825 56.3398 719.13 56.8635 713.53 58.4456C707.261 60.2168 702.189 63.8063 698.303 69.0708C696.558 71.4351 695.798 74.0401 695.979 76.9555C696.224 80.8842 697.303 84.5179 699.571 87.7847C702.498 92.0015 706.063 95.6409 710.093 98.7433C719.411 105.916 728.063 113.845 736.743 121.747C741.275 125.872 745.965 129.848 750.227 134.238C753.75 137.867 756.991 141.833 759.925 145.957C764.716 152.692 767.002 160.398 767.266 168.633C767.402 172.851 766.679 177.037 765.398 181.055C761.576 193.04 754.691 202.621 743.393 208.693C734.164 213.654 724.392 216.518 713.91 217.427C703.903 218.295 693.952 218.002 684.005 217.11C678.783 216.641 673.589 215.747 668.424 214.82C663.947 214.015 659.516 212.936 655.087 211.887C653.587 211.532 652.152 210.898 650.871 210.455C649.99 206.828 647.885 181.995 648.17 178.543C649.696 179.064 651.159 179.515 652.588 180.057C661.938 183.601 671.434 186.644 681.305 188.372C690.175 189.925 699.033 190.45 707.856 187.928C711.601 186.858 715.123 185.373 718.295 183.11C728.499 175.828 727.266 163.914 722.312 157.595C720.91 155.806 719.48 153.992 717.805 152.474C707.422 143.06 697.025 133.66 686.512 124.391C679.41 118.13 672.331 111.872 666.153 104.655C661.638 99.3796 658.198 93.5336 656.428 86.8121C652.132 70.4968 657.569 49.7414 675.011 38.6176C681.762 34.3117 689.129 31.5829 696.941 30.1869C707.659 28.2715 718.451 27.2537 729.356 28.6453C732.652 29.066 735.994 29.1341 740.168 29.5122C744.665 30.058 748.309 30.4553 752.354 30.9878C755.591 31.6205 758.426 32.118 761.343 32.792C761.423 32.9683 761.726 33.2106 761.753 33.4236C761.841 33.9385 762.006 34.1641 762.31 34.314C762.346 34.3144 762.345 34.2439 762.288 34.7222C762.489 44.7266 763.162 54.2167 764.68 63.6342C764.083 63.8214 763.417 64.2798 762.9 64.1492C760.602 63.5684 758.346 62.819 755.675 62.0548Z" fill="#F2663F"/>
<path d="M1218.87 133.799C1218.18 133.822 1217.49 133.86 1216.8 133.856C1216.67 133.855 1216.53 133.689 1216.11 133.402C1216.21 132.732 1216.31 131.905 1216.43 131.08C1217 127.104 1217.67 123.141 1218.1 119.151C1218.36 116.708 1219.39 115.389 1221.87 114.929C1226.16 114.133 1230.39 113.021 1234.68 112.214C1246.41 110.006 1258.26 109.35 1270.17 109.911C1279.03 110.328 1287.42 112.48 1295.49 117.804C1300.85 122.462 1303.29 127.793 1303.37 134.227C1303.38 135.253 1303.62 136.278 1303.76 137.303C1303.67 138.085 1303.58 138.866 1303.46 140.511C1303.29 146.32 1303.15 151.267 1303.02 156.213C1302.8 157.416 1302.45 158.611 1302.38 159.823C1301.9 167.513 1301.41 175.204 1301.08 182.901C1300.67 192.7 1300.41 202.506 1300.07 212.309C1300.04 212.985 1299.86 213.656 1299.71 214.53C1296.61 215.626 1293.45 214.933 1290.37 215.045C1287.4 215.153 1284.41 215.144 1281.44 215.029C1278.34 214.91 1275.18 215.598 1271.78 214.405C1273.39 197.257 1274.04 180.164 1274.89 163.132C1274.21 163 1273.77 162.764 1273.55 162.896C1267.67 166.54 1261.09 168.341 1254.51 170.209C1250.31 171.405 1246.15 172.79 1242.04 174.291C1238.56 175.565 1235.56 177.657 1232.89 180.293C1226.47 186.626 1229.16 197.917 1238.31 200.409C1243.14 201.726 1247.99 201.902 1252.88 201.046C1255.12 200.654 1257.31 200.03 1259.55 199.589C1260.51 199.398 1261.52 199.403 1262.88 199.287C1261.18 205.05 1259.61 210.351 1258.1 215.447C1257.26 215.801 1256.8 216.105 1256.3 216.189C1245.35 218.055 1234.39 218.733 1223.47 216.088C1221.27 215.555 1219.12 214.735 1217.01 213.89C1213.69 212.557 1210.89 210.407 1208.75 207.576C1202.7 199.57 1200.55 190.679 1203.11 180.832C1204.5 175.538 1207.76 171.471 1211.73 167.909C1216.91 163.258 1223.04 160.223 1229.64 158.279C1237.35 156.005 1245.19 154.152 1252.96 152.048C1257.35 150.86 1261.72 149.617 1266.05 148.238C1268.77 147.373 1271.11 145.843 1273.07 142.728C1276.29 134.834 1273.94 130.014 1266.42 127.671C1262.18 125.626 1257.64 125.585 1253.13 125.907C1246.87 126.355 1240.63 127.118 1233.75 128.964C1228.13 130.292 1223.33 131.526 1218.87 133.799Z" fill="#F3663E"/>
<path d="M1092.45 187.904C1091.29 182.824 1090 178.069 1089.43 173.229C1088.05 161.529 1090.02 150.255 1094.53 139.391C1097.47 132.306 1101.91 126.366 1107.69 121.339C1113.95 115.898 1121.3 112.794 1129.29 111.196C1140.04 109.044 1150.8 109.124 1161.53 111.721C1173.9 114.713 1182.85 121.79 1188.33 133.273C1188.55 133.746 1188.78 134.22 1189.25 134.943C1190.39 138.93 1191.44 142.637 1192.12 146.413C1193.09 151.8 1193.06 157.19 1191.19 162.697C1190.01 162.893 1188.84 163.229 1187.67 163.257C1184.17 163.342 1180.66 163.315 1177.16 163.317C1158.95 163.326 1140.74 163.326 1122.53 163.347C1120.99 163.349 1119.44 163.476 1117.63 163.557C1117.46 164.765 1117.16 165.762 1117.2 166.745C1117.37 170.944 1117.69 175.126 1118.89 179.198C1121.04 186.5 1125.48 191.812 1132.35 195.129C1138.49 198.099 1145 199.046 1151.75 198.799C1158.26 198.56 1164.61 197.375 1170.89 195.747C1173.6 195.045 1176.28 194.239 1179 193.543C1180.16 193.243 1181.37 193.101 1182.82 192.841C1182.96 193.659 1183.26 194.335 1183.15 194.935C1182.17 200.268 1181.05 205.577 1180.11 210.917C1179.75 212.932 1178.74 214.05 1176.77 214.392C1172.12 215.204 1167.5 216.265 1162.81 216.777C1149.71 218.21 1136.64 218.403 1123.67 215.334C1109.58 212 1099.52 203.9 1093.71 190.591C1093.36 189.789 1093 188.991 1092.45 187.904ZM1120.55 151.647C1135.06 151.607 1149.57 151.57 1164.08 151.504C1164.37 151.503 1164.67 151.172 1165.13 150.901C1166.01 145.4 1164.61 140.299 1161.87 135.459C1160.45 132.947 1158.42 131.044 1155.88 129.743C1151.42 127.461 1146.66 126.3 1141.68 126.995C1128.13 128.882 1120.98 137.645 1118.6 150.006C1118.52 150.425 1119.32 151.012 1120.55 151.647Z" fill="#F3663E"/>
<path d="M501.916 205.336C494.093 197.478 490.114 188.136 488.021 177.774C485.871 167.133 487.284 156.801 490.699 146.745C496.014 131.091 506.968 120.852 522.479 115.551C537.901 110.28 553.428 110.246 568.836 115.695C584.505 121.235 594.701 131.915 598.79 148.193C603.62 167.425 599.989 184.978 588.203 200.823C582.113 209.009 573.657 213.894 564.055 216.751C549.02 221.225 533.994 220.889 519.127 215.837C512.748 213.67 507.041 210.316 501.916 205.336ZM522.044 144.74C519.137 149.236 517.486 154.197 516.724 159.457C515.631 166.994 515.756 174.473 518.015 181.829C520.14 188.745 524.422 193.877 530.932 196.964C541.651 202.047 559.743 200.601 567.316 184.637C572.953 172.755 573.876 160.411 569.196 147.886C566.992 141.987 562.896 137.896 557.286 135.192C553.223 133.234 548.916 132.856 544.483 132.895C535.256 132.975 527.848 136.506 522.044 144.74Z" fill="#F2663F"/>
<path d="M934.977 215.131C926.046 215.06 917.115 214.995 908.185 214.896C907.891 214.893 907.601 214.555 907.102 214.244C907.251 211.072 907.405 207.777 907.599 203.574C907.953 195.6 908.268 188.533 908.682 181.028C908.816 178.8 908.849 177.009 909.054 174.897C909.234 173.368 909.241 172.16 909.361 170.54C909.453 168.999 909.432 167.87 909.517 166.289C909.657 163.684 909.692 161.529 909.82 159.028C909.879 158.211 909.845 157.739 909.957 156.858C910.247 154.883 910.47 153.318 910.521 151.747C910.898 140.015 911.231 128.282 911.61 116.551C911.653 115.213 911.889 113.882 912.025 112.646C917.252 111.838 934.21 111.892 938.135 112.725C938.215 113.829 938.348 115.015 938.373 116.202C938.399 117.427 938.321 118.654 938.288 119.88C938.255 121.106 938.139 122.337 938.21 123.557C938.274 124.658 937.633 125.942 938.926 127.025C940.18 125.417 941.36 123.931 942.511 122.421C944.776 119.451 947.551 117.01 950.791 115.229C961.965 109.089 973.694 108.022 985.822 111.904C992.814 114.142 998.148 118.412 1001.28 125.209C1001.63 125.97 1002.2 126.625 1002.68 127.329C1002.97 127.012 1003.26 126.695 1003.86 126.189C1004.95 124.84 1005.73 123.679 1006.82 122.347C1012 116.621 1018.08 113.014 1025.19 111.137C1031.36 109.51 1037.65 109.384 1043.93 110.086C1049 110.652 1053.88 112.068 1058.32 114.672C1065.99 119.169 1070.16 125.952 1070.63 134.774C1070.88 139.292 1070.43 143.848 1070.27 148.386C1070.18 151 1070.06 153.613 1069.95 156.226C1069.55 160.76 1068.96 165.286 1068.77 169.829C1068.21 183.31 1067.8 196.797 1067.32 210.282C1067.27 211.653 1067.13 213.02 1067.01 214.665C1063.76 215.501 1060.62 214.98 1057.53 215.06C1054.55 215.138 1051.57 215.086 1048.59 215.047C1045.48 215.007 1042.35 215.243 1039.29 214.859C1039.02 214.05 1038.7 213.561 1038.73 213.093C1039.8 194.902 1040.92 176.714 1041.97 158.522C1042.17 155.201 1042.1 151.865 1042.14 148.536C1042.14 147.837 1042.08 147.134 1041.99 146.44C1040.57 135.539 1032.43 129.933 1021.66 132.435C1018.51 133.164 1015.76 134.61 1013.41 136.838C1009.5 140.552 1006.7 144.951 1005.55 150.24C1004.7 154.171 1003.91 158.144 1003.52 162.141C1002.91 168.239 1002.54 174.368 1002.29 180.494C1001.89 190.825 1001.67 201.163 1001.35 211.498C1001.32 212.508 1001.15 213.514 1001.02 214.858C996.288 215.358 991.763 215.022 987.257 215.061C982.726 215.1 978.193 215.028 973.373 215.004C973.195 213.746 972.892 212.758 972.944 211.789C973.482 201.818 974.139 191.852 974.638 181.879C975.155 171.555 975.593 161.226 975.925 150.895C975.998 148.649 975.696 146.333 975.186 144.138C972.99 134.684 964.975 130.04 955.61 132.609C951.76 133.666 948.59 135.763 946.008 138.738C943.095 142.094 940.85 145.884 940.037 150.285C938.957 156.134 937.774 162.003 937.307 167.917C936.425 179.092 935.656 190.29 935.747 202.385C935.688 206.17 935.724 209.089 935.76 212.007C935.666 212.514 935.572 213.02 935.357 214.094C935.15 214.818 935.064 214.975 934.977 215.131Z" fill="#F3653D"/>
<path d="M1559.04 190.056C1557.05 193.186 1555.42 196.113 1553.37 198.719C1547.84 205.792 1540.71 210.7 1532.22 213.661C1517.01 218.969 1501.71 219.26 1486.34 214.462C1471.3 209.768 1460.99 200.102 1455.71 185.154C1450.25 169.683 1451.21 154.459 1457.84 139.645C1462.9 128.308 1471.52 120.276 1482.89 115.352C1490.99 111.847 1499.44 109.854 1508.35 109.736C1517.38 109.616 1526.11 110.719 1534.62 113.898C1552.85 120.709 1562.58 134.049 1565.29 152.992C1567.14 165.883 1564.89 178.073 1559.04 190.056ZM1494.38 194.04C1497.01 194.989 1499.57 196.259 1502.28 196.833C1513.56 199.225 1527.34 194.871 1533.27 180.948C1537.11 171.928 1537.68 162.619 1536.42 153.103C1536.08 150.529 1535.25 147.96 1534.27 145.544C1532.08 140.164 1528.41 136.084 1523.09 133.504C1518.03 131.053 1512.71 130.285 1507.22 130.88C1497.03 131.983 1489.46 137.005 1485.11 146.421C1480.6 156.173 1479.9 166.382 1482.24 176.748C1483.83 183.782 1487.12 189.891 1494.38 194.04Z" fill="#F3663E"/>
<path d="M890.927 159.371C890.346 162.247 888.605 163.458 885.675 163.27C883.583 163.136 881.473 163.276 879.372 163.279C860.28 163.302 841.188 163.315 822.096 163.354C820.211 163.357 818.283 163.126 816.524 163.711C813.967 180.505 822.115 192.618 834.525 196.654C839.601 198.305 844.742 198.97 850.04 198.796C857.083 198.564 863.941 197.238 870.718 195.396C874.245 194.437 877.775 193.486 881.652 192.438C881.997 196.27 880.492 199.519 880.115 202.903C879.73 206.353 878.89 209.752 878.27 213.06C874.534 215.162 870.621 215.403 866.865 215.932C860.807 216.786 854.698 217.401 848.589 217.745C840.165 218.219 831.782 217.489 823.533 215.679C804.821 211.575 793.682 199.797 789.187 181.42C785.598 166.745 787.371 152.493 793.336 138.82C800.057 123.411 812.005 114.188 828.489 111.028C839.82 108.856 851.129 109.183 863.02 112.426C878.731 117.754 886.976 128.51 890.114 143.732C891.188 148.942 890.994 154.142 890.927 159.371ZM838.738 151.65C842.929 151.668 847.122 151.78 851.309 151.68C855.438 151.581 859.624 152.303 863.69 151.167C863.904 150.483 864.204 149.991 864.186 149.51C864.001 144.561 862.915 139.855 860.413 135.513C858.687 132.517 856.222 130.404 853.093 129.039C842.34 124.348 831.066 127.97 824.952 134.204C820.89 138.346 818.585 143.321 817.4 148.889C817.238 149.648 817.491 150.494 817.542 151.17C818.181 151.392 818.507 151.602 818.833 151.603C825.117 151.632 831.402 151.636 838.738 151.65Z" fill="#F3663E"/>
<path d="M968.744 291.557C967.512 291.962 966.537 292.093 965.21 292.342C961.557 292.224 958.834 290.835 956.553 288.447C952.679 284.391 953.211 277.739 957.933 274.748C959.805 273.562 962.088 272.957 964.252 272.32C966.26 271.728 968.384 271.539 970.408 270.99C971.539 270.683 972.57 270.006 973.584 269.525C973.82 267.048 972.888 265.547 970.819 264.797C967.024 263.421 964.465 265.455 962.182 268.371C960.04 268.139 957.993 267.917 956.018 267.703C955.409 263.45 956.736 261.084 960.055 259.596C964.911 257.419 969.883 257.263 974.956 258.488C978.905 259.441 981.579 261.762 981.935 265.991C982.229 269.47 982.216 272.976 982.326 277.401C982.249 281.97 982.03 285.63 983.889 288.982C983.751 290.043 983.613 291.1 982.165 291.097C980.26 291.093 978.355 291.096 976.418 291.096C975.812 290.014 975.317 289.131 974.771 288.157C974.308 288.198 973.702 288.079 973.32 288.318C971.842 289.245 970.435 290.285 968.744 291.557ZM966.677 277.485C966.191 277.671 965.673 277.801 965.224 278.053C962.762 279.435 962.108 280.645 962.767 282.495C963.514 284.59 965.446 286.078 967.53 285.741C968.831 285.53 970.24 284.968 971.242 284.133C973.529 282.229 974.201 279.645 973.766 276.631C971.399 275.859 969.466 276.768 966.677 277.485Z" fill="#4A4CA1"/>
<path d="M1060.05 257.865C1061.46 258.193 1062.45 258.515 1063.43 258.896C1066.31 260.022 1068.55 261.962 1070.04 264.644C1072.12 268.37 1073.15 272.361 1072.73 276.95C1065.86 278.058 1059.02 276.783 1052.37 277.666C1051.47 279.498 1052.19 280.963 1053.15 282.19C1053.98 283.249 1055.03 284.352 1056.23 284.862C1060.25 286.571 1062.25 283.419 1064.42 280.861C1066.93 281.273 1069.3 281.661 1071.68 282.051C1069.21 292.733 1055.81 294.687 1049.18 289.188C1047.47 287.766 1046.22 285.788 1044.55 283.799C1041.95 277.506 1042.03 271.541 1045.14 265.042C1047.07 261.724 1049.63 260.096 1052.17 258.438C1054.65 258.254 1057.14 258.07 1060.05 257.865ZM1058.02 272.098C1059.87 271.919 1061.81 272.477 1063.56 271.576C1063.64 268.522 1063.53 268.022 1062.36 266.716C1061.29 265.509 1060.02 264.69 1058.33 264.597C1056.66 264.505 1055.26 265.027 1054.1 266.202C1052.6 267.708 1051.44 269.351 1051.88 271.954C1053.68 272.005 1055.39 272.053 1058.02 272.098Z" fill="#4A4CA1"/>
<path d="M1037.22 277.985C1037.11 282.443 1036.9 286.421 1036.55 290.802C1034.32 291.15 1032.25 291.095 1030.06 291.038C1029.6 289.685 1029.22 288.573 1028.84 287.465C1028.49 287.505 1028.07 287.429 1027.84 287.6C1026.85 288.319 1025.89 289.074 1024.98 289.883C1020.91 293.5 1015.99 292.15 1012.89 290.06C1008.55 287.13 1006.35 283.033 1005.89 277.889C1005.46 273.108 1006.03 268.518 1008.02 264.087C1008.69 262.574 1009.6 261.392 1010.94 260.541C1015.71 257.508 1020.59 256.616 1025.66 259.888C1026.09 260.169 1026.56 260.406 1027.04 260.615C1027.17 260.67 1027.37 260.547 1027.93 260.411C1028.76 259.256 1028.35 257.669 1028.4 256.194C1028.45 254.625 1028.35 253.051 1028.38 251.481C1028.42 249.945 1028.55 248.412 1028.64 246.72C1031.42 245.903 1033.95 245.954 1036.82 247.206C1037.2 253.52 1037.26 259.156 1037.33 264.792C1037.26 269.03 1037.19 273.268 1037.22 277.985ZM1015.89 281.359C1016.18 281.796 1016.4 282.3 1016.77 282.658C1020.32 286.135 1024.24 285.76 1026.72 281.495C1029.28 277.104 1029.1 272.515 1026.96 267.973C1026.74 267.507 1026.4 267.084 1026.06 266.688C1023.86 264.101 1020.24 263.806 1017.68 266.027C1015.59 267.839 1014.59 270.209 1014.37 272.917C1014.15 275.562 1014.44 278.145 1015.89 281.359Z" fill="#4A4CA1"/>
<path d="M1348.59 269.593C1349.51 267.38 1350.4 265.549 1351.3 263.726C1352 262.328 1352.84 261.076 1354.82 260.506C1356.56 259.707 1357.94 258.987 1359.41 258.552C1364.65 257.002 1369.59 257.847 1374.77 261.123C1378.5 264.492 1380.52 268.075 1381.01 272.384C1381.79 279.173 1379.49 287.164 1370.53 290.902C1363.48 293.845 1355.47 291.21 1350.77 284.6C1350.17 283.757 1349.57 282.915 1348.97 282.072C1348.2 278.063 1347.22 274.06 1348.59 269.593ZM1365.01 264.919C1361.01 265.05 1358.46 267.311 1357.4 270.916C1356.19 275.079 1356.38 279.261 1359.68 282.613C1362.78 285.767 1367.4 285.417 1370.17 281.894C1372.65 278.746 1372.61 275.078 1371.91 271.429C1371.27 268.089 1369.21 265.86 1365.01 264.919Z" fill="#4A4CA1"/>
<path d="M670.921 258.452C671.943 258.822 672.517 259.215 673.117 259.562C676.319 261.416 677.553 264.357 677.613 267.877C677.683 272.058 677.564 276.244 677.703 280.421C677.778 282.663 678.222 284.893 678.69 287.53C678.836 288.791 678.793 289.651 678.744 290.651C676.3 291.381 673.933 291.289 671.142 290.256C669.694 287.76 669.636 287.699 668.243 288.596C667.383 289.151 666.635 289.882 665.837 290.534C665.208 290.828 664.599 291.179 663.947 291.408C656.882 293.888 652.556 290.023 649.973 285.623C648.763 283.563 648.867 281.189 649.897 279.097C650.798 277.267 652.145 275.657 653.842 273.623C655.125 273.146 655.862 272.996 656.9 272.894C657.749 272.705 658.296 272.468 659.265 272.212C660.773 271.951 661.862 271.71 663.161 271.544C663.693 271.598 663.946 271.456 664.525 271.171C665.909 270.852 666.95 270.666 667.878 270.236C669.236 269.605 669.509 267.914 668.56 266.754C666.434 264.156 662.348 263.731 659.792 265.889C658.891 266.651 658.087 267.528 657.547 268.052C655.525 268.052 653.975 268.052 652.425 268.052C652.425 268.052 652.04 267.826 651.641 267.461C651.006 266.634 650.771 266.173 650.536 265.712C651.148 264.658 651.76 263.604 652.645 262.004C653.166 261.201 653.413 260.943 653.66 260.684C654.618 260.021 655.503 258.961 656.548 258.769C659.436 258.238 662.385 257.927 665.321 257.812C667.031 257.745 668.763 258.222 670.921 258.452ZM665.542 284.961C669.352 281.463 669.537 280.949 668.526 276.414C665.173 276.239 662.087 277.235 659.198 278.868C657.672 279.73 657.383 281.317 658.218 282.944C659.47 285.381 660.808 285.865 665.542 284.961Z" fill="#4A4CA1"/>
<path d="M550.014 260.421C551.258 262.504 553.786 263.646 553.447 266.492C551.317 267.228 549.172 267.806 546.689 267.879C546.127 267.313 545.554 266.669 544.913 266.103C542.23 263.738 538.766 263.308 535.73 265.058C535.211 265.358 534.695 266.128 534.677 266.697C534.659 267.249 535.152 268.094 535.651 268.335C537.055 269.013 538.557 269.514 540.057 269.962C542.569 270.714 545.138 271.282 547.627 272.099C549.103 272.584 550.608 273.206 551.863 274.099C555.819 276.913 556.631 281.679 553.889 285.65C553.103 286.788 552.104 287.816 551.057 288.729C546.681 292.545 541.456 292.758 536.178 291.676C531.086 290.632 527.649 287.312 525.046 282.339C527.888 281.304 530.355 280.916 533.027 280.806C533.837 281.761 534.547 282.751 535.409 283.583C538.125 286.208 542.491 286.415 545.502 284.133C547 282.997 546.852 281.174 545.107 280.381C543.841 279.807 542.491 279.409 541.161 278.99C538.493 278.149 535.767 277.471 533.147 276.506C527.105 274.28 525.004 269.313 527.568 263.54C528.058 262.436 528.701 261.4 529.436 259.989C534.613 258.13 539.663 257.069 544.934 258.243C546.662 258.628 548.353 259.013 550.014 260.421Z" fill="#4A4CA1"/>
<path d="M922.705 290.059C920.721 290.886 918.965 291.469 916.839 292.196C914.725 292.24 912.978 292.18 911.239 292.035C906.361 291.628 902.75 289.033 899.918 285.244C899.331 284.46 899.141 283.38 898.701 282.267C901.18 281.05 903.648 281.206 906.049 280.502C907.074 281.68 907.897 282.79 908.883 283.729C911.407 286.133 915.705 286.334 918.552 284.268C920.153 283.107 919.914 280.85 918.034 280.111C916.577 279.539 915.043 279.159 913.536 278.717C911.19 278.029 908.792 277.49 906.498 276.659C899.767 274.22 897.52 267.828 901.281 261.854C901.811 261.012 902.681 260.177 903.584 259.813C908.725 257.744 914.022 256.912 919.451 258.596C923.157 259.746 925.618 262.249 927.201 266.109C924.848 267.443 922.479 267.607 919.926 267.901C919.324 267.315 918.732 266.708 918.108 266.135C915.581 263.813 911.935 263.322 908.936 265.019C908.432 265.304 907.965 266.123 907.963 266.696C907.961 267.267 908.43 268.094 908.932 268.362C910.15 269.013 911.484 269.484 912.814 269.882C915.324 270.632 917.875 271.246 920.388 271.985C921.555 272.328 922.739 272.712 923.805 273.283C928.981 276.055 930.09 282.759 926.083 287.053C925.135 288.069 923.989 288.899 922.705 290.059Z" fill="#4A4CA1"/>
<path d="M585.727 260.627C587.629 262.854 589.616 264.66 590.149 267.602C588.113 269.515 585.275 268.718 582.738 269.709C581.987 268.625 581.39 267.576 580.615 266.681C578.365 264.085 574.749 263.932 572.253 266.312C571.631 266.905 571.025 267.608 570.677 268.381C568.676 272.817 568.885 277.327 571.062 281.553C573.16 285.626 578.251 285.869 581.04 282.246C581.873 281.164 582.511 279.932 583.338 278.609C585.479 279.025 587.524 279.401 589.556 279.842C589.842 279.904 590.059 280.288 590.563 280.763C590.438 283.325 589.048 285.465 587.258 287.405C585.06 289.787 582.403 291.39 579.179 291.971C571.039 293.436 562.705 287.876 561.1 279.734C560.132 274.825 560.624 269.938 562.525 265.306C563.44 263.075 564.597 260.848 567.391 260.259C568.039 260.123 568.599 259.573 569.459 258.944C570.719 258.492 571.722 258.315 572.723 258.127C577.243 257.279 581.513 257.78 585.727 260.627Z" fill="#4A4CA1"/>
<path d="M950.761 290.439C947.784 292.201 944.779 292.534 941.221 291.861C940.153 291.192 939.528 290.584 938.897 289.982C937.027 288.201 936.079 286.063 936.077 283.439C936.075 279.761 935.923 276.083 935.862 272.404C935.83 270.489 935.856 268.573 935.856 266.594C934.61 265.959 933.569 265.429 932.427 264.848C932.427 263.047 932.427 261.314 932.427 259.325C932.945 259.062 933.517 258.742 934.115 258.48C934.581 258.275 935.079 258.142 935.78 257.904C936.049 255.727 936.323 253.514 936.619 251.118C939.4 250.669 940.834 247.445 944.327 248.084C945.332 251.189 944.231 254.571 945.134 258.04C946.586 258.305 948.064 258.574 949.443 258.826C950.375 259.767 950.41 260.492 949.778 265.221C948.38 265.5 946.89 265.798 945.331 266.109C945.16 266.584 944.842 267.063 944.837 267.546C944.79 271.75 944.728 275.956 944.813 280.159C944.89 283.908 945.292 284.211 949.794 284.686C950.723 286.269 951.186 288.054 950.761 290.439Z" fill="#4A4CA1"/>
<path d="M892.679 289.56C892.003 290.39 891.269 290.947 890.485 291.028C888.944 291.186 887.376 291.08 885.363 291.09C884.777 289.362 884.544 287.629 884.534 285.894C884.487 278.22 884.492 270.547 884.51 262.874C884.512 261.674 884.673 260.474 884.767 259.19C887.21 258.063 889.565 258.59 892.266 258.741C892.438 260.267 892.717 261.591 892.716 262.915C892.71 271.634 892.644 280.354 892.679 289.56Z" fill="#434795"/>
<path d="M884.883 254.071C884.395 251.912 884.316 249.857 884.192 247.36C886.754 245.51 889.439 246.193 892.277 246.446C893.213 249.056 893.386 251.468 891.855 254.175C889.712 254.175 887.502 254.175 884.883 254.071Z" fill="#4A4CA1"/>
<path d="M753.427 266.241C755.01 262.769 756.8 259.823 760.32 258.753C764.528 257.474 768.788 257.352 772.922 259.19C773.862 259.609 774.748 260.148 776.192 261.095C781.156 267.21 782.406 271.433 781.182 277.196C774.555 277.716 767.774 277.009 761.018 277.609C760.47 280.211 761.692 281.931 763.101 283.475C765.413 286.007 768.455 286.099 770.983 283.768C771.859 282.961 772.548 281.95 773.389 280.954C775.938 281.454 778.564 281.142 780.85 282.541C779.048 286.738 779.048 286.738 774.362 290.825C771.603 291.738 768.808 292.433 765.066 292.099C759.469 290.898 755.958 288.144 753.723 283.753C753.491 283.298 753.191 282.878 752.922 282.443C752.457 279.651 751.991 276.859 751.454 273.637C752.05 271.013 752.718 268.819 753.427 266.241ZM773.198 270.83C773.176 268.766 772.067 267.256 770.641 265.938C769.109 264.523 767.212 264.098 765.353 264.855C764.151 265.344 763.046 266.345 762.205 267.369C761.252 268.53 760.266 269.881 761.215 271.824C765.018 272.192 768.922 272.446 773.198 270.83Z" fill="#4A4CA1"/>
<path d="M1404.76 289.377C1404.68 286.909 1404.82 284.836 1404.82 282.762C1404.81 272.537 1404.77 262.312 1404.74 251.21C1404.68 249.541 1404.61 248.748 1404.55 247.955C1405.03 246.014 1406.6 246.184 1408.91 246.144C1416.45 246.064 1423.14 245.983 1429.83 245.902C1431.89 245.969 1433.96 246.035 1436.46 246.046C1437.88 248.365 1437.54 250.773 1437.17 253.483C1436.17 253.671 1435.2 253.999 1434.23 254.006C1428.99 254.047 1423.74 253.993 1418.49 254.008C1417.13 254.011 1415.77 254.145 1414.13 254.235C1413.73 257.408 1413.57 260.269 1414.22 263.402C1421.29 264.305 1428.27 263.301 1435.25 263.875C1436.49 266.163 1435.9 268.352 1435.67 270.849C1434.57 271.038 1433.59 271.345 1432.61 271.353C1427.89 271.389 1423.17 271.321 1418.44 271.342C1417.09 271.349 1415.73 271.531 1414.22 271.645C1413.6 275.494 1413.6 279.059 1414.24 282.861C1422.22 283.832 1430.08 282.548 1437.91 283.423C1438.95 285.756 1438.5 287.977 1438.25 290.45C1437.44 290.654 1436.65 291.024 1435.85 291.028C1426.58 291.073 1417.31 291.068 1408.04 291.059C1406.84 291.058 1405.52 291.26 1404.76 289.377Z" fill="#48499C"/>
<path d="M836.848 264.618C842.965 274.268 840.428 284.785 831.024 290.149C826.219 292.89 821.34 292.872 816.491 290.384C807.91 285.983 804.845 276.534 808.424 267.559C810.36 262.704 813.623 259.912 818.384 258.587C823.498 257.163 828.467 257.505 832.901 260.711C834.279 261.709 835.371 263.103 836.848 264.618ZM815.762 276.506C816.256 277.987 816.557 279.574 817.288 280.928C818.623 283.4 820.794 284.783 823.687 284.735C826.581 284.688 828.7 283.222 829.984 280.731C831.66 277.478 831.74 273.971 830.741 270.532C829.781 267.225 826.88 265.001 823.911 264.89C821.054 264.782 817.855 266.891 816.701 270.064C816.061 271.823 816.013 273.798 815.762 276.506Z" fill="#48499C"/>
<path d="M1450.58 258.684C1452.6 258.23 1454.32 257.919 1456.05 257.807C1459.76 257.567 1463.35 258.128 1467.14 259.868C1469.03 261.869 1471.16 263.34 1471.42 266.342C1469.27 267.405 1466.85 267.413 1464.59 268.012C1463.9 267.399 1463.37 266.956 1462.87 266.488C1460.01 263.815 1456.58 263.254 1453.33 265.059C1452.8 265.351 1452.27 266.113 1452.24 266.68C1452.22 267.236 1452.71 268.098 1453.2 268.338C1454.61 269.015 1456.11 269.511 1457.62 269.953C1460.3 270.744 1463.04 271.362 1465.71 272.201C1469.22 273.305 1472.07 275.205 1472.8 279.157C1473.6 283.47 1471.65 286.594 1468.34 289.096C1461.43 294.324 1449.87 292.725 1444.74 285.804C1444.33 285.247 1443.97 284.624 1443.71 283.982C1443.53 283.522 1443.54 282.98 1443.43 282.228C1445.65 281.062 1448.07 281.062 1450.59 280.677C1451.52 281.728 1452.35 282.835 1453.34 283.754C1455.97 286.177 1460.16 286.336 1463.02 284.217C1464.47 283.142 1464.43 281.107 1462.85 280.331C1461.76 279.8 1460.57 279.483 1459.4 279.134C1456.55 278.281 1453.69 277.49 1450.84 276.627C1444.66 274.752 1442.59 268.662 1445.27 263.159C1446.39 260.858 1448.52 260.197 1450.58 258.684Z" fill="#4A4CA1"/>
<path d="M1304.31 260.157C1306.41 262.41 1308.67 264.243 1308.93 267.5C1306.91 269.62 1304.07 268.619 1301.7 269.691C1300.98 268.664 1300.53 267.941 1300 267.287C1296.92 263.485 1291.97 263.918 1289.73 268.245C1289.19 269.306 1288.74 270.567 1288.74 271.735C1288.75 274.518 1288.78 277.354 1289.32 280.066C1289.84 282.65 1291.76 284.302 1294.47 284.669C1297.2 285.037 1299.24 283.926 1300.54 281.476C1300.94 280.707 1301.35 279.938 1301.85 278.983C1304.47 278.827 1306.95 279.288 1309.31 280.354C1308.46 285.871 1307.4 287.212 1300.25 291.869C1300.77 292.751 1301.32 293.623 1301.81 294.532C1302.96 296.687 1302.47 298.658 1300.84 300.289C1300 301.136 1298.92 301.843 1297.82 302.321C1295.43 303.364 1289.37 303.145 1286.03 302.075C1285.76 300.944 1285.82 299.845 1287.2 299.669C1288.76 299.472 1290.35 299.627 1291.92 299.487C1292.94 299.394 1294.06 299.252 1294.92 298.751C1295.55 298.382 1296.17 297.378 1296.13 296.687C1296.1 296.017 1295.35 294.989 1294.71 294.815C1293.06 294.355 1291.3 294.275 1289.5 294.033C1289.5 293.182 1289.5 292.344 1289.5 291.276C1286.15 289.668 1283.45 287.238 1281.27 283.767C1280.64 282.054 1280.23 280.597 1279.69 278.354C1279.51 275.762 1279.46 273.958 1279.4 272.153C1279.98 270.287 1280.56 268.421 1281.36 265.883C1282.32 264.316 1283.09 263.443 1283.79 262.518C1284.49 261.594 1285.11 260.617 1285.77 259.664C1286.78 259.43 1287.83 259.301 1288.8 258.945C1294.03 257.016 1299.07 257.338 1304.31 260.157Z" fill="#4A4CA1"/>
<path d="M1267.31 290.948C1266.56 289.94 1266.26 288.994 1265.82 287.589C1264.18 288.596 1262.82 289.295 1261.62 290.202C1256.75 293.853 1249.55 292.723 1245.71 285.668C1244.03 282.567 1244.76 279.526 1246.82 276.817C1248.23 274.965 1250.06 273.621 1252.37 273.072C1254.58 272.547 1256.82 272.103 1259.02 271.551C1260.85 271.092 1262.66 270.528 1264.36 270.045C1264.54 266.542 1263.75 265.173 1261.29 264.69C1258.98 264.238 1256.71 264.268 1255.04 266.315C1254.48 266.992 1254.05 267.767 1253.83 268.095C1250.99 268.106 1248.92 268.092 1246.85 267.178C1246.32 265.098 1246.77 263.398 1248.64 261.694C1251.77 258.886 1252.59 258.459 1256 257.945C1260.02 257.338 1263.97 257.581 1267.78 259.12C1268.58 259.442 1269.3 259.951 1270.56 260.895C1272.92 263.734 1273.15 266.471 1273.18 269.291C1273.22 273.793 1273.32 278.294 1273.4 282.795C1273.81 285.314 1274.23 287.833 1274.68 290.563C1272.49 291.601 1270.09 290.971 1267.31 290.948ZM1263.51 282.773C1264.87 280.805 1265.24 278.731 1264.36 276.35C1261.15 276.13 1258.36 277.095 1255.7 278.286C1252.98 279.502 1252.64 282.092 1254.72 284.211C1256.05 285.556 1257.71 286.151 1259.48 285.533C1260.74 285.09 1261.83 284.15 1263.51 282.773Z" fill="#4A4CA1"/>
<path d="M1234.76 259.613C1236.2 260.898 1237.28 262.031 1238.3 263.208C1239.45 264.518 1240.57 265.858 1240.33 268.035C1238.11 269.169 1235.68 269.113 1233.21 269.479C1232.41 268.437 1231.76 267.409 1230.93 266.547C1228.65 264.162 1225.43 263.978 1222.93 266.107C1222.15 266.776 1221.36 267.59 1220.95 268.507C1218.97 272.952 1219.17 277.442 1221.52 281.644C1223.67 285.494 1228.29 285.853 1231.22 282.563C1232.14 281.538 1232.78 280.269 1233.7 278.876C1234.79 279.004 1235.99 279.087 1237.16 279.298C1238.34 279.51 1239.49 279.849 1240.98 280.21C1240.81 281.192 1240.82 282.051 1240.52 282.778C1236.36 292.684 1224.7 295.352 1216.69 288.222C1215.65 287.298 1214.81 286.157 1213.59 284.919C1212.56 282.534 1211.81 280.347 1211.01 277.334C1211.03 274.356 1211.1 272.203 1211.17 270.051C1211.68 268.943 1212.16 267.827 1212.68 266.729C1215.89 259.987 1222.02 256.725 1229.39 257.971C1231.09 258.258 1232.72 258.966 1234.76 259.613Z" fill="#4A4CA1"/>
<path d="M1335.7 290.968C1334.96 289.938 1334.68 288.996 1334.26 287.584C1332.76 288.549 1331.62 289.26 1330.51 289.998C1324.95 293.673 1318.58 292.446 1314.87 286.98C1312.7 283.779 1313.29 278.675 1316.09 275.833C1318.03 273.859 1320.53 273.096 1323.1 272.483C1325.65 271.874 1328.24 271.414 1330.78 270.778C1331.98 270.478 1333.15 269.928 1333.15 268.381C1333.15 266.691 1332.13 265.218 1330.54 264.864C1327.9 264.273 1325.3 264.145 1323.28 266.483C1322.83 267.003 1322.34 267.487 1321.82 268.038C1319.52 268.075 1317.3 268.151 1315.2 267.058C1314.8 264.926 1315.89 263.537 1316.96 262.186C1318.28 260.499 1319.96 259.239 1322.04 258.629C1326.55 257.311 1331.13 257.464 1335.52 258.839C1339.06 259.947 1341.53 262.388 1341.6 266.504C1341.63 268.43 1341.72 270.355 1341.89 272.742C1341.17 278.923 1341.63 284.596 1342.91 290.218C1340.6 291.796 1338.32 290.95 1335.7 290.968ZM1324.71 285.212C1327.31 286.38 1329.48 285.42 1331.35 283.674C1333.48 281.67 1333.38 279.149 1332.88 276.402C1329.54 276.113 1326.8 277.135 1324.11 278.292C1322.69 278.908 1322.17 280.185 1322.28 281.71C1322.37 283.003 1322.98 284.004 1324.71 285.212Z" fill="#4A4CA1"/>
<path d="M519.74 253.714C512.077 254.267 504.41 253.758 496.707 254.16C496.301 257.5 495.638 260.385 496.716 263.476C503.783 264.166 510.756 263.42 517.61 263.817C518.72 267.223 518.72 267.223 517.678 271.073C514.271 271.682 510.777 271.24 507.308 271.37C503.844 271.501 500.348 270.943 496.742 271.739C496.053 275.401 495.784 278.972 496.618 282.845C497.873 283.019 499.044 283.324 500.213 283.319C505.458 283.298 510.702 283.16 515.947 283.128C517.482 283.118 519.106 282.763 520.714 283.979C520.714 285.89 520.764 287.962 520.666 290.027C520.649 290.378 519.994 290.699 519.227 291.175C516.323 291.246 513.824 291.175 510.378 291.1C504.727 291.084 500.021 291.076 495.316 291.057C493.226 291.048 491.136 291.015 489.045 290.995C487.713 290.981 487.37 289.988 487.125 288.491C487.211 280.202 487.238 272.398 487.208 264.595C487.191 260.092 487.08 255.588 487.077 250.827C487.099 250.4 487.055 250.228 487.086 249.709C487.107 248.892 487.054 248.424 487 247.955C487.534 245.891 489.267 246.318 491.559 246.157C495.243 246.065 498.09 245.98 500.936 245.896C505.134 245.979 509.333 246.042 513.531 246.155C515.449 246.206 517.364 246.355 519.633 247.133C520 249.608 520.015 251.41 520.03 253.211C520.03 253.211 519.762 253.513 519.74 253.714Z" fill="#48499C"/>
<path d="M1488.27 302.046C1487.92 302.633 1487.55 302.793 1486.43 302.98C1483.99 302.889 1482.29 302.771 1480.34 302.637C1480.2 301.187 1480.01 300.008 1480.01 298.828C1479.97 286.591 1479.96 274.353 1479.98 262.116C1479.98 260.903 1480.2 259.689 1480.32 258.476C1480.8 258.469 1481.27 258.461 1482.09 258.355C1483.98 258.436 1485.53 258.617 1487.13 258.805C1487.45 259.879 1487.74 260.855 1488.03 261.828C1488.4 261.766 1488.81 261.809 1489.07 261.637C1490.24 260.87 1491.31 259.954 1492.51 259.251C1496.39 256.976 1501.27 257.504 1504.75 260.332C1508.96 263.748 1511.28 268.025 1511.13 273.509C1511.08 275.431 1511.05 277.364 1510.82 279.268C1510.21 284.335 1507.33 287.998 1503.14 290.593C1499.75 292.692 1496.18 292.737 1492.74 290.482C1491.48 289.654 1490.23 288.804 1488.63 287.732C1487.71 290.342 1488.11 292.602 1488.08 294.798C1488.05 297.07 1488.18 299.345 1488.27 302.046ZM1488.24 272.314C1487.6 275.933 1488.28 279.249 1490.55 282.177C1492.03 284.088 1493.93 285.221 1496.43 284.843C1499.13 284.436 1500.73 282.728 1501.56 280.214C1502.63 276.981 1502.68 273.678 1501.85 270.422C1501.52 269.122 1500.79 267.808 1499.92 266.783C1497.52 263.971 1493.63 263.828 1491.23 266.582C1490.01 267.977 1489.35 269.856 1488.24 272.314Z" fill="#48499C"/>
<path d="M1586.55 247.352C1589.37 245.693 1591.98 245.864 1594.74 247.183C1594.74 249.318 1594.74 251.367 1594.74 253.544C1592.18 254.726 1589.65 254.22 1586.94 254.046C1586.06 251.915 1586.43 249.829 1586.55 247.352Z" fill="#4A4CA1"/>
<path d="M1204.17 258.597C1204.43 265.436 1204.48 272.259 1204.53 279.083C1204.54 281.008 1204.53 282.934 1204.63 285.344C1204.47 287.456 1204.22 289.082 1203.98 290.598C1201.93 291.51 1200.06 290.967 1197.65 290.788C1196.87 289.38 1196.67 288.31 1196.42 286.992C1194.35 287.908 1192.95 289.019 1191.37 290.601C1185.33 293.229 1182.62 292.764 1178.38 288.622C1177.77 288.02 1177.17 287.403 1176.46 286.366C1175.26 283.492 1175.24 280.885 1175.21 278.277C1175.15 272.729 1175.07 267.181 1175 261.633C1175.4 260.515 1174.96 258.949 1177.46 258.466C1179.94 258.668 1181.76 257.977 1183.48 259.252C1183.54 260.787 1183.65 262.335 1183.66 263.884C1183.7 268.252 1183.61 272.623 1183.73 276.988C1183.78 278.707 1184.11 280.451 1184.56 282.116C1185.07 283.997 1186.51 284.927 1188.45 285.08C1191.45 285.317 1193.98 283.769 1195 280.931C1195.35 279.96 1195.58 278.889 1195.59 277.86C1195.67 271.754 1195.66 265.648 1195.68 259.542C1196.68 259.174 1197.67 258.805 1199.47 258.426C1201.4 258.384 1202.52 258.353 1203.64 258.321C1203.64 258.321 1203.96 258.583 1204.17 258.597Z" fill="#4A4CA1"/>
<path d="M1594.99 288.5C1594.71 290.232 1594.1 291.15 1592.61 291.136C1591.23 291.123 1589.86 291.198 1588.05 291.33C1587.22 290.691 1586.49 289.958 1586.48 289.22C1586.41 279.284 1586.43 269.346 1586.43 259.338C1589.07 257.979 1591.61 258.558 1594.5 258.797C1594.65 260.215 1594.9 261.548 1594.91 262.882C1594.94 271.259 1594.91 279.636 1594.99 288.5Z" fill="#48499C"/>
<path d="M1646.54 286.882C1646.35 288.067 1646.16 289.253 1645.94 290.549C1643.46 291.457 1641.07 291.092 1638.43 290.9C1638.22 290.027 1637.86 289.219 1637.85 288.409C1637.78 275.29 1637.74 262.17 1637.7 249.05C1637.7 247.779 1637.8 246.563 1640.23 246.175C1642.55 246.092 1644.02 246.056 1645.49 246.02C1645.49 246.02 1645.67 246.162 1645.92 246.56C1646.23 248.706 1646.35 250.453 1646.36 252.201C1646.36 261.664 1646.32 271.128 1646.33 280.591C1646.33 282.688 1646.47 284.785 1646.54 286.882Z" fill="#48499C"/>
<path d="M1516.61 266.659C1516.92 265.964 1517.16 265.687 1517.26 265.365C1520.12 256.867 1534.69 255.701 1539.93 261.655C1543.82 266.068 1545.8 270.974 1544.69 277.086C1538.2 277.778 1531.58 277.091 1525.22 277.455C1524.02 278.791 1524.3 280.071 1524.93 281.06C1525.74 282.35 1526.72 283.742 1527.98 284.508C1530.8 286.227 1533.28 285.167 1537.01 280.913C1539.18 281.242 1541.54 281.602 1544.27 282.017C1544.05 283.058 1544.08 283.944 1543.7 284.579C1540.04 290.612 1534.45 293.254 1527.69 291.864C1521.23 290.533 1517.43 286.31 1515.81 279.997C1514.69 275.606 1515.46 271.327 1516.61 266.659ZM1526.54 272.089C1529.81 272.01 1533.1 272.327 1536.32 271.814C1536.97 269.677 1535.97 268.23 1534.97 266.814C1533.63 264.897 1531.7 264.314 1529.47 264.67C1526.72 265.109 1524.32 268.2 1524.55 271.062C1524.58 271.404 1525.25 271.693 1526.54 272.089Z" fill="#4A4CA1"/>
<path d="M1558.92 275.167C1559.4 277.473 1559.54 279.477 1560.37 281.144C1562.56 285.581 1567.53 286.041 1570.63 282.213C1571.37 281.288 1571.84 280.139 1572.57 278.871C1575.09 278.974 1577.59 279.278 1579.97 280.22C1579.1 286.391 1574.37 291.092 1568.28 292.02C1560.73 293.171 1553.45 288.704 1551.08 281.366C1548.94 274.768 1550.36 268.564 1553.64 262.735C1554.54 261.13 1556.13 260.106 1558.09 259.395C1562 257.982 1565.81 257.415 1569.89 258.285C1575.02 259.377 1578.15 262.439 1579.6 267.491C1577.59 269.472 1574.9 268.733 1572.48 269.766C1571.83 268.884 1571.16 268.118 1570.64 267.265C1568.59 263.924 1563.64 263.613 1560.87 267.283C1560.06 268.358 1559.56 269.744 1559.21 271.065C1558.9 272.224 1558.99 273.491 1558.92 275.167Z" fill="#4A4CA1"/>
<path d="M1602.29 286.519C1600 279.79 1602.27 275.025 1608.51 273.081C1611.17 272.252 1613.95 271.799 1616.69 271.21C1618.23 270.878 1619.8 270.652 1620.99 269.195C1620.92 267.207 1620.17 265.43 1618.08 264.834C1614.51 263.815 1611.51 264.778 1609.44 268.449C1607.21 268.144 1605.01 267.844 1602.8 267.543C1603.92 260.491 1606.63 258.823 1610.93 258.238C1614.27 257.783 1617.5 257.663 1620.83 258.212C1623.19 258.6 1625.04 259.63 1626.79 261.23C1628.04 262.38 1628.78 263.63 1628.98 265.249C1629.17 266.808 1629.39 268.372 1629.43 269.938C1629.5 272.212 1629.42 274.489 1629.41 276.765C1629.4 281.301 1629.21 285.856 1630.93 290.345C1628.45 291.781 1626.05 290.947 1623.73 291.027C1623.02 289.928 1622.39 288.945 1621.59 287.701C1620.14 288.637 1618.84 289.465 1617.56 290.305C1613.24 293.126 1608.97 292.886 1605.05 289.522C1604.12 288.729 1603.35 287.758 1602.29 286.519ZM1613.77 277.532C1613.12 277.799 1612.49 278.069 1611.84 278.33C1609.01 279.48 1609.12 282.753 1611.43 284.701C1613.01 286.044 1615.28 286.122 1617.28 284.968C1620.21 283.271 1621.21 280.757 1620.58 276.477C1618.48 275.87 1616.56 276.829 1613.77 277.532Z" fill="#4A4CA1"/>
<path d="M730.391 284.787C729.715 286.692 729.04 288.597 728.318 290.635C726.079 291.35 723.856 290.877 721.039 290.935C720.118 290.558 719.854 290.303 719.574 289.643C716.668 279.607 715.243 269.586 711.698 260.08C711.227 270.079 711.159 280.059 711.417 290.042C710.81 290.408 710.202 290.774 708.95 291.156C707.268 291.225 706.229 291.276 705.191 291.327C703.99 290.956 702.807 290.569 702.908 288.947C702.919 288.773 702.891 288.597 702.892 288.423C702.95 274.613 703.009 260.803 703.226 246.54C707.566 246.205 711.749 246.325 716.317 247.087C717.886 252.289 718.982 256.874 720.278 261.402C721.558 265.872 722.084 270.576 724.393 275.554C724.912 273.926 725.249 273.026 725.486 272.1C727.398 264.664 729.263 257.216 731.214 249.791C731.559 248.477 732.238 247.25 732.763 245.984C732.763 245.984 733.1 246.102 733.729 246.122C736.579 246.162 738.804 246.104 741.019 246.232C742.522 246.318 744.01 246.665 745.505 246.895C745.444 259.777 745.397 272.66 745.307 285.541C745.296 287.238 745.66 289.018 744.563 290.825C742.781 291.298 740.888 291.134 739.008 291.016C737.674 290.933 737.42 289.898 737.249 287.913C737.22 278.962 737.228 270.928 737.143 262.895C737.134 262.046 737.709 260.725 735.932 260.366C734.344 266.967 732.738 273.562 731.184 280.169C730.827 281.687 730.65 283.247 730.391 284.787Z" fill="#48499C"/>
<path d="M1128.97 254.06C1121.48 254.041 1114 254.035 1106.37 254.009C1105.39 257.259 1105.6 260.115 1106.07 263.223C1109.61 264.177 1113.1 263.619 1116.53 263.698C1120.01 263.776 1123.49 263.715 1127.06 263.715C1128.32 266.256 1127.84 268.583 1127.33 271.273C1120.35 271.925 1113.39 271.2 1106.27 271.47C1105.4 275.352 1105.58 278.89 1106.18 282.759C1110.32 283.535 1114.32 282.976 1118.28 283.124C1122.09 283.266 1125.94 282.624 1129.75 283.534C1130.58 285.869 1130.31 288.087 1129.87 290.49C1126.3 291.645 1122.62 290.889 1119.02 291.016C1115.53 291.139 1112.03 291.081 1108.53 291.052C1104.87 291.021 1101.2 290.931 1097.09 290.719C1096.61 285.106 1096.58 279.639 1096.56 273.203C1096.48 264.841 1096.41 257.45 1096.34 250.059C1096.49 249.028 1096.63 247.997 1096.9 246.595C1097.02 246.225 1097.27 246.269 1097.73 246.208C1098.98 246.074 1099.77 246.001 1101.05 246.027C1109.63 246.046 1117.72 245.965 1126.14 245.98C1127.4 246.088 1128.32 246.102 1129.33 246.547C1129.35 249.316 1129.28 251.654 1129.15 253.991C1129.08 253.989 1128.97 254.06 1128.97 254.06Z" fill="#4A4CA1"/>
<path d="M868.718 290.781C868.242 289.644 868.191 288.629 868.124 287.278C866.387 287.571 865.574 288.732 864.559 289.521C859.868 293.165 855.365 293.034 850.888 289.103C846.864 285.57 844.729 281.176 844.698 275.772C844.677 272.066 845.186 268.53 846.732 265.08C849.366 259.199 856.292 256.199 862.293 258.648C863.709 259.226 865.035 260.024 866.408 260.723C867.559 258.224 867.558 258.224 867.515 254.178C867.493 252.083 867.476 249.988 867.44 247.407C867.85 246.682 868.275 246.445 868.914 246.086C870.823 246.04 872.519 246.11 874.214 246.189C875.682 246.258 876.3 247.133 876.426 249.02C876.466 249.537 876.584 249.888 876.475 250.238C876.412 251.815 876.458 253.041 876.414 254.755C876.304 260.947 876.255 266.654 876.271 272.36C876.283 276.85 876.375 281.34 876.337 286.176C876.3 286.993 876.359 287.463 876.417 287.934C876.197 288.763 875.978 289.591 875.712 290.596C873.572 291.469 871.353 291.12 868.718 290.781ZM861.113 264.56C858.057 264.302 856.043 265.983 854.816 268.447C852.549 273.001 852.752 277.686 855.383 282C857.819 285.996 862.702 286.036 865.448 282.264C867.882 278.921 868.175 275.157 867.313 271.22C866.634 268.119 865.171 265.683 861.113 264.56Z" fill="#4A4CA1"/>
<path d="M1158.29 254.259C1158.35 252.115 1158.4 249.971 1158.43 247.369C1158.67 246.754 1158.92 246.575 1159.77 246.271C1162.43 246.368 1164.55 245.816 1166.41 246.665C1167.53 248.442 1167.1 250.222 1167.1 251.916C1167.11 262.878 1167.08 273.84 1167.02 284.802C1167.01 286.886 1166.84 288.969 1166.74 291.052C1165.3 291.098 1163.86 291.143 1161.99 291.28C1160.93 290.857 1160.1 290.457 1159.69 289.795C1159.29 289.126 1159.31 288.198 1159.05 286.904C1157.35 288.146 1155.96 289.153 1154.58 290.169C1150.89 292.888 1147.23 292.944 1143.49 290.341C1137.84 286.405 1135.37 280.838 1135.62 274.126C1135.78 269.973 1136.22 265.754 1139.63 261.933C1140.17 261.146 1140.42 260.898 1140.66 260.647C1141.13 260.456 1141.66 260.338 1142.08 260.065C1145.62 257.755 1149.38 257.13 1154.03 258.897C1155.55 259.692 1156.46 260.185 1157.73 260.648C1158.18 259.913 1158.25 259.206 1158.41 258.08C1158.43 256.527 1158.36 255.393 1158.29 254.259ZM1153.21 284.751C1156.03 283.575 1157.65 281.275 1158.29 278.471C1159 275.387 1159.1 272.167 1157.77 269.186C1157.22 267.955 1156.26 266.805 1155.23 265.912C1153.11 264.069 1150.08 264.006 1148.03 265.898C1146.79 267.04 1145.58 268.544 1145.1 270.114C1144.06 273.51 1144.1 277.032 1145.52 280.399C1146.79 283.417 1148.84 285.314 1153.21 284.751Z" fill="#4A4CA1"/>
<path d="M617.613 258.66C618.784 259.406 619.983 260.109 621.12 260.904C627.876 265.631 630.082 275.503 626.083 283.02C622.137 290.436 613.211 293.846 605.399 290.922C597.877 288.106 593.52 280.151 595.057 271.788C595.433 269.741 596.115 267.724 596.876 265.779C598.072 262.724 600.104 260.432 603.763 259.345C604.379 259.159 604.626 259.082 605.362 258.717C606.656 258.325 607.454 258.182 608.188 257.883C608.952 257.571 609.542 257.04 609.304 256.061C609.304 256.061 609.362 255.987 609.334 256.44C611.902 258.296 614.875 257.927 617.613 258.66ZM609.418 265.224C604.172 268.408 602.365 273.141 604.17 278.966C605.244 282.431 608.149 284.755 611.39 284.742C614.85 284.728 617.857 282.197 618.613 278.384C618.947 276.7 619.002 274.916 618.886 273.198C618.521 267.78 615.883 265.354 609.418 265.224Z" fill="#4A4CA1"/>
<path d="M797.239 247.929C797.623 251.228 797.3 254.512 797.774 258.028C799.467 258.31 800.945 258.556 802.631 258.836C803.192 260.944 803.265 262.924 802.521 265.146C801.034 265.437 799.554 265.727 798.026 266.026C797.19 268.359 797.566 270.635 797.519 272.859C797.46 275.64 797.531 278.423 797.566 281.205C797.594 283.457 798.574 284.897 801.088 284.541C801.572 284.473 802.086 284.609 802.478 284.641C802.793 285.02 803.106 285.245 803.209 285.542C805.022 290.822 802.526 291.811 798.363 292.165C797.162 292.267 795.936 292.092 794.046 291.718C789.956 288.94 788.639 285.583 788.844 281.438C788.99 278.489 788.872 275.526 788.854 272.57C788.842 270.501 788.8 268.431 788.773 266.421C788.042 266.075 787.592 265.847 787.131 265.645C786.518 265.377 785.897 265.13 785.237 264.856C785.126 262.981 785.023 261.254 785.019 259.362C785.116 259.195 785.09 258.811 785.489 258.715C788.844 257.872 788.86 257.872 788.908 255.173C788.92 254.52 788.78 253.864 788.902 252.893C791.223 251.011 793.352 249.446 795.482 247.88C795.951 247.886 796.42 247.891 797.239 247.929Z" fill="#4A4CA1"/>
<path d="M635.06 290.993C634.532 276.596 634.47 262.242 634.371 247.396C634.335 246.905 634.621 246.641 634.978 246.43C635.765 246.124 636.195 246.028 637.057 246.031C639.176 246.322 641.025 245.745 642.783 247.517C642.826 248.87 642.907 250.585 642.929 252.3C643.015 258.917 643.081 265.534 643.061 272.541C643.027 273.723 643.088 274.517 643.149 275.31C643.005 280.289 642.862 285.267 642.715 290.354C640.301 291.682 637.864 290.926 635.06 290.993Z" fill="#48499C"/>
<path d="M1318.18 253.32C1318.79 251.724 1319.41 250.127 1320.15 248.228C1321.82 247.545 1323.36 247.166 1325.65 246.924C1328.19 247.736 1329.94 248.521 1331.77 249.055C1333.55 249.57 1334.84 248.862 1335.36 247.007C1336.42 246.962 1337.47 246.916 1338.91 246.962C1339.3 247.054 1339.31 247.523 1339.29 248.121C1337.44 254.316 1335.68 255.276 1330.19 253.622C1329.2 253.325 1328.23 252.989 1327.26 252.619C1325.35 251.881 1323.76 251.885 1322.19 253.647C1321.03 254.958 1319.42 254.737 1318.18 253.32Z" fill="#4A4CA1"/>
<path d="M207.089 211.729C209.522 213.436 211.959 215.136 214.389 216.849C228.157 226.554 241.216 237.111 253.006 249.175C259.689 256.013 265.928 263.227 271.19 271.236C274.904 276.89 278.039 282.836 280.218 289.267C281.863 294.12 282.717 299.095 282.788 304.21C282.808 305.699 282.785 307.188 282.814 308.921C282.21 311.997 280.548 314.21 278.601 316.262C277.278 317.655 276.022 319.112 274.685 320.49C274.216 320.973 273.646 321.452 273.028 321.683C267.554 323.738 262.078 325.79 256.565 327.736C251.945 329.366 247.173 330.425 242.051 331.111C241.619 331.13 241.46 331.173 241.302 331.216C240.266 331.188 239.23 331.16 237.836 331.071C236.961 331.05 236.445 331.09 235.928 331.13C235.246 331.094 234.564 331.058 233.484 330.991C230.407 330.878 227.727 330.796 224.956 330.64C224.571 330.603 224.277 330.64 223.757 330.644C216.854 330.466 210.178 330.321 203.365 330.096C202.611 330.052 201.994 330.088 201.158 330.094C194.785 329.929 188.631 329.793 182.327 329.579C181.395 329.541 180.615 329.582 179.596 329.593C174.732 329.436 170.106 329.298 165.481 329.183C153.349 328.883 141.217 328.58 129.085 328.303C124.285 328.194 119.484 328.148 114.566 327.994C113.994 327.95 113.539 327.987 112.862 327.991C106.137 327.826 99.6348 327.692 92.9727 327.475C91.8621 327.427 90.9114 327.463 89.7344 327.469C83.1826 327.308 76.857 327.177 70.3831 326.961C69.4545 326.917 68.6743 326.958 67.8941 327C61.7532 326.83 55.6122 326.661 49.0412 326.423C46.8004 326.294 44.9857 325.956 42.9537 326.404C36.2873 326.206 29.8503 326.031 23.4129 325.871C19.4997 325.774 15.5858 325.702 11.6722 325.618C11.4498 325.494 11.2274 325.369 11 325.241C11.738 323.674 12.4681 322.124 13.3435 320.254C14.021 318.65 14.5533 317.366 15.0856 316.082C15.4039 315.576 15.7223 315.071 16.0679 314.523C18.4897 314.523 20.8814 314.523 23.5148 314.479C24.1517 314.477 24.5469 314.52 25.3464 314.574C26.7083 314.64 27.6652 314.727 28.6234 314.746C36.3861 314.899 44.1489 315.041 51.9119 315.176C52.1641 315.181 52.4181 315.076 52.6713 315.022C53.3524 315.115 54.0322 315.276 54.715 315.29C60.6974 315.41 66.6803 315.505 73.0461 315.643C73.8601 315.64 74.2912 315.601 74.7223 315.562C76.3222 315.665 77.9221 315.768 79.9987 315.878C85.0987 315.967 89.722 316.059 94.3456 316.122C95.1243 316.132 95.9048 316.011 96.6844 315.951C98.4196 316.099 100.153 316.34 101.89 316.379C117.028 316.715 132.163 317.134 147.308 317.079C169.452 316.999 191.597 317.031 213.741 317.021C221.717 317.018 229.659 316.493 237.556 315.395C243.293 314.597 248.912 313.305 254.183 310.793C256.808 309.542 259.255 308.033 261.439 305.584C263.866 302.693 265.051 299.647 265.255 296.222C265.402 293.745 264.972 291.348 264.24 288.99C262.615 283.755 259.929 279.061 256.875 274.557C253.038 268.896 248.755 263.576 244.11 258.575C238.336 252.359 232.438 246.254 226.481 240.212C220.278 233.919 213.879 227.82 207.687 221.517C204.503 218.276 201.578 214.782 198.552 211.388C198.221 211.018 197.786 210.618 198.172 209.945C198.651 209.924 199.172 209.923 199.688 209.874C202.375 209.622 204.902 209.993 207.089 211.729Z" fill="#434795"/>
<path d="M339.623 70.5383C342.293 67.5114 345.685 65.9156 349.667 65.5748C352.265 65.3524 353.788 66.4654 354.549 68.9733C355.172 71.0277 355.049 72.8644 353.476 74.5728C351.879 76.3062 350.448 78.2002 349.031 80.0884C345.608 84.6486 343.843 89.7646 344.008 95.5082C344.056 97.1702 344.05 98.8351 344.022 100.498C343.941 105.415 344.212 110.295 345.397 115.095C345.669 116.196 345.781 117.337 346.014 118.449C346.116 118.934 346.34 119.393 346.56 120.009C350.281 118.136 353.861 116.317 357.455 114.528C360.962 112.783 364.398 110.885 368.065 109.281C369.873 111.368 371.578 113.338 373.252 115.271C374.416 115.187 375.252 114.692 376.109 114.292C380.334 112.32 384.168 109.715 387.893 106.939C392.464 103.532 396.815 99.874 400.607 95.5972C401.592 94.4866 402.514 93.3114 403.375 92.1022C405.083 89.7056 405.724 87.0503 405.066 84.1394C404.796 82.9456 404.517 81.753 404.207 80.5692C403.92 79.4739 403.586 78.3909 403.297 77.3902C403.687 76.7797 404.099 76.9411 404.51 77.1061C405.876 77.6532 407.215 78.2845 408.622 78.5549C409.196 78.0081 408.942 77.487 408.692 77.0591C407.369 74.7952 406.13 72.4686 404.635 70.3217C399.921 63.5531 394.495 57.369 388.767 51.4472C383.833 46.3451 378.726 41.4256 372.955 37.2613C371.258 36.0366 369.452 34.9416 367.613 33.94C365.562 32.8233 363.365 32.6267 361.003 32.9179C354.542 33.7146 349.548 37.0107 345.376 41.7492C343.587 43.7819 341.959 45.9615 340.32 48.1211C338.098 51.0483 336.009 54.0798 333.718 56.9504C332.415 58.5822 330.89 60.0559 329.344 61.4686C327.378 63.2644 325.029 64.4106 322.466 65.1649C320.599 65.7144 319.028 65.4897 317.678 63.7382C323.586 54.6195 329.529 45.4481 335.658 35.9939C339.329 30.5226 342.655 25.2338 346.03 19.7898C345.29 19.5371 344.72 19.3614 344.164 19.1485C342.368 18.461 340.583 17.7436 338.783 17.0679C336.379 16.1652 334.548 14.5008 332.897 12.621C330.575 9.97799 329.299 6.85039 328.83 3.38599C328.64 1.98607 329.087 0.842719 330.311 0C330.775 0.254672 331.159 0.452635 331.531 0.672234C336.355 3.52069 341.175 6.37665 346.004 9.21731C346.601 9.56842 347.243 9.84217 347.98 10.2939C350.155 11.6006 352.214 12.7651 354.384 14.065C357.58 16.0269 360.665 17.8534 363.83 19.8321C364.769 20.7242 365.648 21.442 366.483 22.2075C370.348 25.7502 374.199 29.3077 378.058 32.857C384.877 39.1294 391.705 45.3925 398.517 51.673C404.17 56.886 409.794 62.1319 415.463 67.3288C416.406 68.1936 417.299 69.1832 418.58 69.6597C420.273 68.3948 421.983 67.2617 423.521 65.9295C425.097 64.5639 426.506 63.005 427.985 61.5278C429.617 59.8984 429.839 57.8232 428.24 56.156C427.229 55.102 426.426 53.8523 425.136 53.0058C423.866 52.1728 422.892 50.9118 421.592 50.0617C420.539 49.3732 419.522 48.6302 418.395 47.8371C418.165 47.6757 418.031 47.5867 417.831 47.3249C417.338 46.8669 416.904 46.5922 416.489 46.2902C415.333 45.4479 414.118 44.6693 413.05 43.7257C411.768 42.5926 410.612 41.315 409.348 39.9614C408.896 39.5291 408.498 39.2354 408.071 38.7507C407.149 37.1415 406.265 35.7165 405.353 34.3104C405.174 34.034 404.882 33.8304 404.652 33.5071C404.662 33.421 404.536 33.3015 404.475 33.1429C403.948 31.9551 403.53 30.9012 403.007 29.9023C402.204 28.3692 401.256 26.9095 400.501 25.3547C399.205 22.6841 397.48 20.3474 395.413 18.2329C393.784 16.5668 392.148 14.9197 389.798 13.6148C385.163 14.654 380.285 15.9661 375.265 17.2443C375.003 17.1426 374.893 17.1158 374.781 16.8617C375.225 14.776 375.583 12.8905 376.144 11.0674C376.644 9.44304 377.742 8.04222 379.164 7.24607C381.117 6.15241 383.222 5.21511 385.5 4.94176C387.747 4.67224 390.005 4.50004 392.261 4.30842C393.84 4.17421 395.385 4.37361 396.996 5.02612C399.129 6.40796 400.902 7.95813 402.49 9.71302C404.658 12.1099 406.785 14.5442 408.971 17.1308C409.639 17.9648 410.267 18.6305 410.95 19.4501C411.362 20.0044 411.72 20.405 412.108 20.9325C412.39 21.2905 412.641 21.5215 412.996 21.9047C414.952 24.5817 417.183 26.7465 419.522 28.8054C419.767 29.0206 420.137 29.0929 420.556 29.3684C421.831 30.2614 422.983 31.0445 424.17 31.7687C428.192 34.2219 432.257 36.6067 436.244 39.1139C438.314 40.4153 440.181 42.0049 441.827 43.8372C444.136 46.4063 445.071 49.312 444.457 52.786C443.913 55.859 442.8 58.6702 441.201 61.3086C439.977 63.328 438.613 65.2647 437.443 67.3135C436.258 69.3886 434.758 71.1798 433.112 72.8876C432.144 73.8919 431.299 75.0158 430.411 76.0962C429.589 77.0957 429.359 78.2566 429.4 79.5337C429.465 81.5247 430.069 83.3182 431.218 84.9223C432.032 86.0599 432.916 87.147 433.765 88.2603C435.247 90.2045 436.032 92.3484 435.911 94.8455C435.821 96.696 435.566 98.4948 435.034 100.265C434.606 101.688 434.22 103.124 433.815 104.554C433.815 104.554 433.933 104.555 433.793 104.458C433.476 104.351 433.297 104.341 433.008 104.19C431.714 102.662 430.532 101.275 429.348 99.8904C426.922 97.0546 424.505 94.2115 422.06 91.3917C421.508 90.7544 421.087 89.9136 420.091 89.8148C419.695 88.9882 419.34 88.1976 418.534 87.5858C417.602 86.8784 416.889 85.8818 415.95 84.6991C415.688 84.2735 415.572 84.1311 415.422 84.0526C415.219 83.9454 414.989 83.887 414.771 83.8076C414.706 84.0406 414.629 84.2713 414.582 84.508C414.568 84.5804 414.636 84.6692 414.667 84.7504C414.566 85.3022 414.466 85.854 414.345 86.8283C414.327 87.9883 414.329 88.7259 414.332 89.4634C414.256 90.5358 414.181 91.6081 414.054 93.0605C413.762 94.1719 413.116 94.4684 412.539 94.8673C410.381 96.3588 408.166 97.7847 406.122 99.4214C402.024 102.701 398.011 106.088 393.989 109.46C389.228 113.451 384.518 117.502 379.733 121.464C378.461 122.517 377.019 123.376 375.61 124.251C374.496 124.944 373.387 124.693 372.485 123.827C371.926 123.291 371.464 122.63 371.06 121.963C370.349 120.79 369.322 120.308 367.995 120.306C365.852 120.304 363.813 120.687 362.007 121.917C360.852 122.703 359.649 123.437 358.579 124.328C354.844 127.44 350.432 128.596 345.718 128.912C345.139 128.951 344.548 128.817 344.093 128.775C343.575 127.649 343.229 126.643 342.684 125.76C341.417 123.71 340.193 121.636 338.738 119.697C337.553 118.117 336.433 116.418 335.67 114.609C334.76 112.451 334.261 110.119 333.617 107.74C333.638 107.437 333.556 107.295 333.401 106.956C333.098 102.802 332.897 98.8818 333.102 94.9484C333.206 92.9459 333.232 90.9393 333.373 88.7414C333.89 85.427 334.437 82.3244 335.45 79.3332C336.145 77.2789 336.965 75.2665 337.729 73.2354C338.349 73.0442 338.56 72.561 338.807 71.7697C339.198 71.2217 339.41 70.88 339.623 70.5383Z" fill="#444795"/>
<path d="M438.243 224.667C438.325 224.683 438.429 224.74 438.487 224.709C439.455 224.19 440.258 223.524 440.665 222.331C441.36 221.896 442.166 221.759 442.13 220.862C442.13 220.862 442.221 220.703 442.206 220.612C444.472 218.284 446.969 216.324 450.02 214.529C450.581 214.393 450.824 214.397 451.068 214.4C451.096 214.515 451.124 214.63 451.182 215.114C451.339 216.75 451.466 218.018 451.594 219.285C451.621 220.535 451.647 221.784 451.699 223.455C451.839 224.799 451.956 225.722 452.072 226.644C452.23 229.654 452.387 232.664 452.567 236.099C452.649 237.086 452.709 237.648 452.728 238.417C452.819 239.888 452.95 241.15 453.082 242.412C453.132 244.829 453.115 247.249 453.259 249.659C453.342 251.053 453.022 252.186 452.04 253.185C451.376 253.86 450.813 254.634 449.962 255.532C449.627 255.719 449.535 255.738 449.443 255.757C449.225 254.605 449.008 253.453 448.766 251.967C448.737 251.45 448.66 251.306 448.511 251.2C448.124 248.423 447.736 245.646 447.324 242.444C446.851 240.397 447.083 238.627 446.315 237.021C445.236 237.964 445.236 237.964 444.576 239.594C444.355 239.91 444.268 240.118 444.113 240.395C443.967 240.571 443.913 240.688 443.882 240.815C440.695 246.919 437.508 253.023 434.306 259.157C433.108 258.77 432.073 258.534 431.359 257.482C431.017 256.978 430.215 256.784 429.55 256.409C429.253 254.222 429.415 252.05 429.786 249.894C430.786 244.084 432.607 238.53 435.056 233.174C435.346 232.539 435.608 231.892 435.975 230.904C437.385 229.011 438.055 227.113 438.859 225.294C439.013 224.945 438.621 224.714 438.243 224.667Z" fill="#444795"/>
<path d="M284.851 236.864C282.444 235.442 280.104 233.889 277.615 232.628C273.405 230.494 269.103 228.541 264.836 226.52C260.961 224.686 257.113 222.803 253.519 220.443C246.667 215.944 241.269 210.062 237.004 203.103C234.566 199.124 234.582 199.116 234.592 194.526C234.597 191.726 234.594 188.926 234.595 186.126C234.595 185.435 234.595 184.743 234.595 184.129C233.272 183.184 231.837 184.046 230.55 183.356C230.125 182.607 230.38 181.727 230.477 180.89C230.959 176.72 231.431 172.548 232.002 168.39C233.227 159.458 235.076 150.652 237.499 141.966C240.584 130.903 244.702 120.225 249.641 109.872C252.766 103.322 256.14 96.8919 259.344 90.3795C260.635 87.7548 262.51 85.6002 264.467 83.4908C264.942 82.9791 265.447 82.4946 266.168 81.7621C269.531 78.4066 272.663 75.2865 275.888 72.0749C277.153 72.0749 278.453 72.0944 279.752 72.0699C281.31 72.0405 282.869 71.9735 284.622 71.979C285.215 71.9981 285.615 71.961 286.241 71.9794C287.716 72.0238 288.964 72.0128 290.392 72.0724C291.322 72.3281 292.071 72.5132 292.93 72.833C296.393 75.1372 297.907 78.3204 297.994 82.2137C298.02 83.4175 297.739 84.6281 297.532 85.8871C297.39 86.0527 297.403 86.1558 297.4 86.4217C296.868 87.4219 296.44 88.2481 295.866 89.084C295.625 89.0791 295.529 89.0644 295.339 88.8987C294.179 87.7292 292.999 86.8032 292.081 85.6659C291.192 84.5654 290.048 84.0835 288.804 83.6977C286.78 83.0706 284.686 83.1113 282.598 83.0796C280.896 83.0538 279.296 83.4902 277.835 84.2632C276.31 85.0702 274.871 86.0271 273.606 87.2614C271.094 89.7123 269.1 92.5123 267.394 95.6942C267.208 95.9363 267.153 96.1148 267.006 96.4533C264.333 101.202 262.477 106.102 260.767 111.058C257.65 120.09 255.494 129.373 253.688 138.743C251.747 148.81 250.607 158.976 249.928 169.198C249.906 169.524 250.013 169.858 250.078 170.321C250.657 170.379 251.161 170.477 251.663 170.471C253.763 170.446 255.87 170.483 257.962 170.323C261.36 170.064 264.747 169.668 268.315 169.363C268.725 169.355 268.959 169.315 269.416 169.305C271.241 169.15 272.843 168.964 274.642 168.809C275.235 168.787 275.63 168.733 276.234 168.709C277.704 168.575 278.965 168.41 280.424 168.277C281.018 168.249 281.414 168.19 282.015 168.164C284.658 168.018 284.884 167.852 285.545 165.724C285.7 165.225 285.85 164.725 285.987 164.221C287.313 159.35 288.649 154.482 289.956 149.606C291.105 145.322 292.222 141.029 293.417 136.681C293.549 136.505 293.536 136.397 293.55 136.111C293.885 135.691 294.116 135.264 294.341 135.267C294.909 135.276 295.52 135.382 296.026 135.628C296.692 135.95 296.408 136.684 296.429 137.321C296.349 137.452 296.311 137.518 296.324 137.574C296.35 137.692 296.402 137.805 296.389 138.123C296.249 138.93 296.136 139.532 296.081 140.139C295.493 146.565 294.918 152.992 294.332 159.418C294.126 161.676 294.025 163.953 293.65 166.183C292.913 170.566 292.017 174.922 291.187 179.29C291.187 179.29 291.216 179.297 291.206 179.285C282.532 179.296 273.868 179.32 265.204 179.343C262.666 179.35 260.128 179.349 257.59 179.361C255.13 179.373 252.715 179.704 250.321 180.288C248.209 180.802 246.069 181.202 243.798 181.682C243.984 182.326 244.104 182.913 244.321 183.462C245.72 186.993 246.541 190.641 246.626 194.447C246.699 197.748 247.943 200.538 250.209 202.935C252.322 205.17 254.665 207.122 257.148 208.917C262.037 212.452 267.252 215.461 272.521 218.379C277.257 221.002 282.023 223.575 286.777 226.167C292.69 229.392 298.804 232.21 304.931 234.994C315.44 239.771 326.023 244.379 336.857 248.382C339.726 249.442 342.662 250.321 345.826 251.407C346.19 251.657 346.324 251.732 346.487 251.756C349.746 256.538 354.028 260.218 358.901 263.253C365.473 267.346 372.585 270.28 379.836 272.898C386.337 275.244 392.868 277.505 399.362 279.868C403.228 281.276 406.921 283.067 410.585 285.621C410.756 286.104 410.73 286.267 410.705 286.431C409.417 286.287 408.13 286.143 406.401 285.957C404.517 285.78 403.074 285.646 401.433 285.443C399.966 285.273 398.696 285.17 397.192 285.005C395.062 284.802 393.167 284.661 391.273 284.52C391.032 284.46 390.792 284.4 390.2 284.282C386.068 283.831 382.288 283.439 378.508 283.047C376.564 282.805 374.619 282.563 372.308 282.244C371.511 282.157 371.082 282.147 370.652 282.138C369.328 281.171 368.015 280.188 366.676 279.241C363.923 277.294 361.156 275.366 358.117 273.354C357.704 273.207 357.573 273.127 357.448 273.038C357.222 272.815 356.995 272.592 356.517 272.303C356.139 272.173 356.014 272.103 355.893 272.029C355.657 271.798 355.421 271.567 354.932 271.266C354.558 271.13 354.437 271.064 354.316 270.998C354.316 270.998 354.187 270.778 353.949 270.683C353.549 270.527 353.398 270.445 353.259 270.341C353.045 270.129 352.832 269.916 352.356 269.636C351.947 269.497 351.807 269.415 351.672 269.323C351.445 269.108 351.217 268.892 350.728 268.614C350.332 268.471 350.202 268.384 349.996 268.139C349.311 267.681 348.705 267.377 347.993 267.013C347.737 266.896 347.597 266.818 347.392 266.565C346.707 266.101 346.096 265.794 345.377 265.428C345.115 265.314 344.973 265.236 344.764 264.973C338.173 260.757 331.428 257.125 324.607 253.629C324.382 253.514 324.108 253.495 323.857 253.431C323.117 252.999 322.408 252.502 321.632 252.147C316.526 249.81 311.405 247.503 306.129 244.887C305.988 243.728 305.343 243.431 304.723 243.094C301.418 241.298 297.845 240.225 294.241 239.246C293.33 238.998 292.381 238.795 291.442 238.761C290.35 238.72 289.406 238.417 288.527 237.801C287.817 237.304 287.107 236.8 286.36 236.361C285.715 235.982 285.199 236.227 284.851 236.864Z" fill="#434694"/>
<path d="M321.965 110.788C322.18 110.35 322.375 110.138 322.627 110.14C322.726 110.748 322.767 111.142 322.809 111.536C322.771 111.97 322.692 112.404 322.7 112.837C322.829 119.128 322.982 125.418 323.104 131.708C323.251 139.31 323.349 146.913 323.511 154.514C323.769 166.658 324.061 178.801 324.319 191.389C324.174 192.367 323.75 192.447 323.304 192.466C322.432 192.503 321.56 192.524 320.542 192.54C320.32 192.687 320.245 192.847 320.132 193.237C320.39 196.383 320.668 199.3 320.983 202.213C321.177 204.011 321.428 205.802 321.594 207.68C321.589 207.949 321.643 208.134 321.689 208.553C321.825 210.186 321.969 211.583 321.884 213.016C321.357 212.987 321.058 212.922 320.76 212.858C320.615 212.604 320.47 212.35 320.133 211.928C319.862 211.624 319.765 211.502 319.65 211.394C317.91 208.917 317.009 206.062 316.052 203.244C315.359 201.203 314.818 199.11 314.136 196.762C314.047 196.344 313.975 196.248 313.844 196.195C313.491 194.285 312.117 193.008 310.89 191.7C309.975 190.724 308.597 190.472 307.276 190.366C305.364 190.211 303.447 190.085 301.53 190.014C299.524 189.94 297.515 189.96 295.508 189.911C292.6 189.842 289.804 189.27 287.028 187.934C286.855 187.276 286.662 186.537 286.479 185.841C287.057 184.897 288.029 184.916 289.085 184.471C289.556 184.362 289.681 184.268 289.766 184.12C293.087 183.116 296.411 182.122 299.728 181.104C302.55 180.237 305.364 179.347 308.178 178.457C308.918 178.223 309.646 177.949 310.437 177.673C310.968 175.757 310.613 173.841 310.811 171.661C310.868 171.3 310.903 171.235 310.888 171.185C310.856 171.077 310.798 170.977 310.75 170.873C310.906 166.941 311.016 163.007 311.239 159.079C311.338 157.342 311.443 155.555 311.924 153.9C314.341 145.582 315.986 137.083 318.006 128.673C319.129 124.001 320.158 119.307 321.305 114.338C321.457 113.919 321.447 113.792 321.352 113.673C321.55 112.787 321.748 111.901 321.965 110.788Z" fill="#434694"/>
<path d="M443.37 271.027C444.113 270.302 445.001 269.675 445.571 268.833C447.047 266.651 448.848 264.812 450.881 263.162C451.552 262.618 452.206 261.988 452.672 261.27C453.868 259.432 455.705 258.218 457.079 256.56C457.228 256.381 457.497 256.3 457.842 256.096C460.006 259.328 461.019 262.837 461 267.092C460.382 272.462 458.142 276.661 455.11 280.5C451.674 284.849 447.588 288.545 443.379 292.112C440.518 294.536 437.656 296.954 435.025 299.635C433.905 300.777 433.427 302.01 433.66 303.645C434.178 307.281 434.558 310.936 434.994 314.583C435.263 316.838 435.532 319.093 435.576 321.383C434.007 321.524 432.663 321.628 431.106 321.65C429.025 321.549 427.157 321.53 425.288 321.51C425.126 321.317 424.964 321.123 424.727 320.633C424.18 318.89 423.73 317.435 423.213 316.004C423.129 315.772 422.752 315.646 422.608 315.403C422.872 315.225 422.906 315.083 422.88 314.729C422.826 313.105 422.701 311.662 422.628 309.99C422.77 308.522 422.86 307.282 423.019 305.908C423.071 305.259 423.056 304.744 422.849 304.113C422.577 304.121 422.496 304.246 422.622 304.367C423.769 303.643 423.754 302.504 423.974 301.52C425.065 296.645 426.944 292.044 428.761 287.422C429.168 286.388 429.664 285.37 430.758 284.769C431.266 284.49 431.69 283.961 432.012 283.456C433.387 281.304 435.2 279.578 437.119 277.93C437.891 277.266 438.762 276.627 439.104 275.396C439.836 274.528 440.469 273.789 441.259 272.978C442.049 272.27 442.681 271.634 443.327 271.006C443.341 271.014 443.37 271.027 443.37 271.027Z" fill="#434694"/>
<path d="M359.342 238.658C359.98 238.674 360.375 238.727 361.176 238.811C363.895 239.164 366.208 239.486 368.521 239.808C369.842 240.257 371.164 240.698 372.482 241.155C376.154 242.426 379.346 244.558 382.483 246.776C385.186 248.687 387.852 250.65 390.578 252.766C390.113 252.921 389.582 252.989 389.098 252.867C379.707 250.498 370.322 248.105 360.935 245.723C357.298 244.8 353.658 243.892 349.662 242.95C349.189 243.081 349.075 243.239 348.96 243.398C348.817 243.642 348.673 243.886 348.372 244.328C347.974 244.687 347.734 244.849 347.493 245.012C345.707 243.583 343.802 242.32 341.944 240.998C340.149 239.721 338.326 238.452 336.56 237.116C334.335 235.433 331.934 233.981 329.726 232.278C328.044 230.981 326.046 230.113 324.615 228.485C322.229 227.494 320.451 225.59 318.334 224.193C316.297 222.849 314.307 221.376 312.324 219.921C309.254 217.668 306.233 215.341 303.067 213.232C301.794 212.383 300.681 211.313 299.367 210.581C298.09 209.869 297.081 208.825 295.852 208.106C294.524 207.329 293.436 206.23 292.139 205.469C290.804 204.687 289.73 203.582 288.431 202.801C286.32 201.531 284.428 199.958 282.358 198.632C280.57 197.487 278.906 196.148 277.088 194.74C277.283 194.1 277.581 193.617 277.872 193.13C278.204 192.575 278.716 192.407 279.514 192.399C285.356 193.149 290.385 195.533 295.185 198.467C298.981 200.789 302.573 203.413 306.079 206.149C310.683 209.741 315.174 213.485 319.857 216.971C325.102 220.876 330.507 224.566 335.842 228.349C339.893 231.221 343.963 234.066 347.986 236.975C349.526 238.089 351.106 238.738 353.072 238.614C355.071 238.487 357.089 238.656 359.342 238.658Z" fill="#464898"/>
<path d="M284.954 236.998C285.198 236.227 285.714 235.982 286.36 236.361C287.107 236.8 287.816 237.304 288.526 237.801C289.405 238.417 290.35 238.72 291.442 238.761C292.38 238.795 293.329 238.998 294.241 239.246C297.844 240.225 301.417 241.298 304.723 243.094C305.342 243.431 305.988 243.728 305.976 244.776C304.824 244.588 303.672 244.187 302.504 243.842C299.318 242.899 296.135 241.95 292.932 241.069C291.95 240.799 290.915 240.525 289.776 240.939C289.948 241.502 290.072 242.004 290.253 242.485C292.179 247.59 293.324 252.866 293.989 258.28C295.016 266.635 295.375 275.021 295.516 283.428C295.62 289.643 295.799 295.857 296.073 302.066C296.258 306.264 296.792 310.428 297.964 314.494C298.611 316.737 299.667 318.685 301.354 320.311C303.307 322.194 305.22 324.12 307.137 326.041C307.617 326.523 308.043 327.058 308.484 327.556C308.294 327.771 308.191 327.993 308.084 327.995C302.578 328.096 297.073 328.073 291.517 327.997C290.152 326.053 288.867 324.18 287.533 322.342C286.967 321.563 286.942 320.72 287.025 319.839C287.278 317.138 287.547 314.439 287.8 311.738C287.898 310.692 287.972 309.644 288.037 308.35C288.38 304.534 288.737 300.964 289.106 297.396C289.421 294.349 289.776 291.305 290.059 288.255C290.155 287.217 290.182 286.152 290.07 285.118C289.471 279.636 288.816 274.16 288.184 268.682C287.561 263.29 286.944 257.897 286.32 252.506C285.918 249.027 285.504 245.55 285.109 242.07C285.062 241.654 285.103 241.228 285.103 240.669C286.255 240.532 287.272 240.411 288.274 240.292C288.498 239.719 288.096 239.462 287.77 239.205C286.876 238.5 285.963 237.822 284.954 236.998Z" fill="#464898"/>
<path d="M313.269 254.726C313.5 254.361 313.759 254.221 314.175 254.108C316.402 256.761 317.422 259.789 317.811 263.472C317.956 264.42 318.035 264.98 318.113 265.539C318.131 271.466 318.055 277.395 318.207 283.317C318.276 286.005 318.681 288.702 319.153 291.356C319.471 293.14 319.987 294.941 320.744 296.583C322.141 299.617 323.021 302.79 323.82 306.005C324.661 309.385 325.535 312.757 326.372 316.38C326.268 316.728 326.166 316.796 326.041 316.832C324.502 315.457 322.901 314.166 321.43 312.694C319.548 310.808 318.321 308.567 317.202 306.261C314.56 300.819 312.912 295.053 312.028 288.751C312.005 288.28 311.943 288.155 311.813 288.064C310.873 283.019 311.518 277.981 311.889 272.945C312.331 266.945 312.826 260.948 313.269 254.726Z" fill="#464898"/>
<path d="M413.645 263.889C413.299 266.71 412.954 269.53 412.616 272.563C411.911 271.736 411.767 270.515 411.565 269.324C410.354 262.169 409.162 255.011 407.968 247.853C407.839 247.082 407.736 246.307 407.593 245.344C408 245.498 408.287 245.607 408.72 245.794C410.585 247.349 412.273 248.864 414.032 250.293C417.148 252.824 420.306 255.304 423.447 257.804C424.881 258.944 426.334 260.062 427.749 261.225C428.623 261.943 429.442 262.727 430.399 263.582C429.392 269.364 428.388 275.125 427.4 281.105C427.415 281.325 427.408 281.279 427.247 281.325C426.994 281.402 426.902 281.433 426.809 281.464C426.481 280.965 426.097 280.494 425.835 279.962C424.634 277.525 423.875 274.935 423.232 272.306C422.963 271.207 422.639 270.122 422.247 268.694C421.829 267.936 421.504 267.515 421.178 267.094C419.272 264.568 416.942 262.512 414.239 260.712C413.661 261.462 413.807 262.263 413.629 263.271C413.495 263.684 413.522 263.798 413.645 263.889Z" fill="#464898"/>
<path d="M145.669 173.331C148.591 173.853 151.527 174.307 154.433 174.908C166.796 177.469 178.77 181.3 190.458 186.049C200.032 189.939 209.353 194.34 218.102 199.874C220.022 201.088 221.87 202.419 223.722 203.737C224.42 204.233 225.036 204.843 225.733 205.437C224.815 207.722 223.482 209.528 221.803 211.078C221.002 211.817 220 212.098 218.893 212.043C217.471 211.973 216.128 211.596 214.854 211.002C213.27 210.263 211.689 209.509 210.161 208.663C209 208.019 207.813 207.503 206.128 207.181C200.704 205.635 195.629 204.272 190.638 202.648C184.647 200.698 178.702 198.599 172.785 196.437C155.11 189.98 136.874 186.553 118.07 186.102C115.268 186.035 112.468 185.922 109.669 185.798C109.096 185.773 108.53 185.599 107.877 185.479C108.059 184.201 108.218 183.085 108.487 181.824C108.87 180.723 109.143 179.768 109.526 178.673C109.924 177.754 110.21 176.976 110.629 176.076C112.724 171.856 115.083 167.991 117.638 164.238C118.117 163.534 118.469 162.744 118.976 161.843C120.878 159.395 122.684 157.099 124.628 154.711C125.847 153.247 126.928 151.874 128.151 150.416C129.048 149.384 129.803 148.438 130.703 147.41C131.099 146.973 131.351 146.618 131.753 146.187C132.68 145.179 133.457 144.248 134.39 143.227C136.127 141.355 137.709 139.572 139.29 137.789C140.458 136.612 141.619 135.428 142.794 134.258C152.096 124.996 161.405 115.742 170.7 106.472C172.367 104.81 173.949 103.063 175.619 101.405C176.292 100.737 177.094 100.198 177.847 99.6135C178.049 99.4569 178.373 99.4014 178.495 99.2076C179.121 98.2064 180.197 97.7812 181.037 97.0739C181.893 96.3531 182.817 95.7399 183.658 95.0418C185.88 93.197 188.243 91.5815 190.612 89.9471C192.362 88.7394 193.999 87.3849 195.869 86.3275C197.783 85.2446 199.571 83.9383 201.422 82.7416C202.692 81.9203 203.946 81.0686 205.259 80.3213C207.105 79.2709 209 78.3066 210.871 77.3007C211.256 77.0939 211.671 76.9162 211.999 76.6383C212.984 75.8036 214.08 75.1938 215.298 74.7738C215.79 74.6042 216.281 74.3808 216.712 74.091C220.127 71.7903 223.917 70.2554 227.65 68.5816C230.102 67.4824 232.562 66.401 235.039 65.365C237.54 64.3196 240.087 63.3863 242.865 62.3381C243.241 62.2688 243.321 62.2084 243.358 62.091C247.848 60.6596 252.345 59.2592 256.959 58.2581C260.643 57.459 264.354 56.9435 268.122 56.8793C271.005 56.8301 273.89 56.8886 276.772 56.8185C283.026 56.6663 289.141 57.4953 295.142 59.2436C296.314 59.5851 297.51 59.8459 299.03 60.2515C299.916 60.5174 300.48 60.6402 301.011 60.8473C301.33 60.9718 301.533 61.2472 301.041 61.607C298.32 62.2518 295.808 62.9054 293.083 63.5593C290.747 64.0873 288.622 64.6149 286.497 65.1425C285.193 65.421 283.889 65.6994 282.216 66.0872C280.041 66.6414 278.235 67.0862 276.207 67.5347C272.451 68.3649 268.913 69.1744 265.384 70.0231C262.617 70.6885 259.862 71.4023 256.897 72.0744C255.565 72.2846 254.438 72.5151 253.084 72.726C247.334 73.5302 242.067 75.1822 236.867 77.6434C236.491 77.7982 236.286 77.9115 235.928 78.0356C235.331 78.2921 234.887 78.5377 234.252 78.8066C227.069 82.0416 220.485 85.9635 214.206 90.3916C209.864 93.4534 205.464 96.4581 201.344 99.8023C194.484 105.371 187.804 111.164 181.46 117.328C180.587 118.176 179.761 119.073 178.757 120.034C177.799 120.964 176.995 121.808 176.04 122.72C175.527 123.211 175.165 123.633 174.669 124.122C173.998 124.782 173.461 125.374 172.764 126.061C163.912 135.042 155.772 144.407 148.299 154.343C144.461 159.446 140.82 164.687 137.653 170.24C137.277 170.899 136.629 171.475 136.823 172.388C137.639 172.777 138.499 172.782 139.573 172.732C141.738 172.984 143.703 173.157 145.669 173.331Z" fill="#434694"/>
<path d="M253.159 242.153C248.891 238.118 244.751 234.218 240.618 230.312C236.284 226.217 232.156 221.937 228.838 216.95C227.875 215.503 227.012 213.991 226.006 212.352C226.604 212.02 227.018 211.759 227.459 211.557C227.774 211.413 228.133 211.369 228.46 211.247C233.245 209.461 232.134 209.553 235.752 212.22C251.141 223.563 264.08 237.191 273.814 253.723C278.324 261.382 281.816 269.488 283.585 278.232C284.259 281.564 284.483 284.987 284.893 288.371C284.952 288.863 284.901 289.368 284.901 289.827C284.17 290.074 283.958 289.599 283.738 289.276C282.213 287.036 280.587 284.85 279.235 282.508C276 276.902 272.93 271.2 269.731 265.573C267.699 262 265.615 258.453 263.442 254.965C260.563 250.343 257.136 246.142 253.159 242.153Z" fill="#444795"/>
<path d="M107.322 283.818C108.08 283.957 108.838 284.097 109.742 284.264C109.506 285.589 108.786 286.586 108.172 287.585C107.897 288.031 107.222 288.345 106.67 288.481C105.922 288.665 105.117 288.665 104.336 288.668C99.631 288.683 94.9261 288.672 90.2213 288.679C87.2013 288.682 84.3172 288.096 81.7057 286.542C78.9182 284.884 75.9164 284.225 72.7076 284.302C70.9662 284.344 69.2233 284.327 67.1922 284.205C67.1068 283.715 67.2284 283.254 67.5277 283.019C68.8816 281.955 70.2856 280.955 71.6716 279.932C72.0456 279.875 72.4196 279.818 73.2013 279.756C74.2179 279.791 74.8306 279.799 75.4348 279.875C84.25 280.989 93.0633 282.118 101.879 283.228C103.689 283.456 105.508 283.623 107.322 283.818Z" fill="#48499C"/>
<path d="M103.721 292.022C109.482 290.582 114.681 288.269 119.86 285.909C126.388 282.935 132.888 279.9 139.43 276.957C145.255 274.337 151.344 272.95 157.777 273.19C161.625 273.333 165.481 273.274 169.33 273.401C174.016 273.555 178.488 274.81 182.862 276.384C186.318 277.628 189.704 279.062 193.134 280.38C196.072 281.51 199.027 282.594 201.975 283.699C202.621 283.941 203.268 284.182 203.928 284.429C204.135 285.82 204.108 287.098 203.877 288.465C203.18 288.465 202.575 288.568 202.017 288.448C198.427 287.674 194.824 286.938 191.269 286.02C187.175 284.964 183.042 284.343 178.817 284.338C173.826 284.331 168.835 284.392 163.846 284.318C155.342 284.19 147.104 285.655 139.126 288.49C133.11 290.628 127.181 293.012 121.226 295.317C117.064 296.928 112.903 298.525 108.631 299.843C102.327 301.787 95.9148 302.13 89.4065 301.511C86.3498 301.221 83.3538 300.607 80.3854 299.821C74.1819 298.178 67.9079 297.099 61.4455 297.434C56.6068 297.685 51.8799 298.451 47.3123 300.104C45.0085 300.937 42.7106 301.789 40.3919 302.58C39.088 303.024 37.7473 303.361 36.0625 303.851C36.3105 303.217 36.3643 302.9 36.5346 302.67C41.2852 296.237 47.7862 292.887 55.6 291.811C61.1877 291.042 66.779 291.273 72.3767 291.609C79.8899 292.061 87.4033 292.51 94.9182 292.93C97.8202 293.093 100.688 292.792 103.721 292.022Z" fill="#464898"/>
<path d="M175.251 268.162C175.089 268.646 174.722 268.834 174.247 268.801C172.505 268.683 170.748 268.658 169.026 268.404C158.69 266.88 149.735 262.473 142.101 255.354C141.783 255.056 141.455 254.768 140.898 254.252C134.159 247.343 129.111 239.666 125.131 231.259C124.313 229.532 123.485 227.811 122.696 226.009C122.714 225.802 122.644 225.721 122.477 225.497C120.597 220.313 118.758 215.32 116.955 210.235C116.979 209.998 116.908 209.893 116.756 209.628C116.139 207.462 115.545 205.494 114.972 203.409C114.964 203.125 114.877 202.996 114.719 202.7C113.935 199.221 112.816 196.021 112.417 192.53C118.175 192.53 123.746 192.53 129.347 192.53C129.992 194.013 129.747 195.523 129.84 196.98C130.189 202.503 131.179 207.898 132.877 213.167C135.349 220.836 139.324 227.681 144.247 234.01C148.768 239.824 153.935 245.046 159.129 250.243C161.602 252.717 164.043 255.223 166.485 257.727C169.665 260.988 172.461 264.574 175.251 268.162Z" fill="#434694"/>
</g>
<defs>
<clipPath id="clip0_217_724">
<rect width="1652" height="331" fill="white"/>
</clipPath>
</defs>
</svg>
