<svg width="1560" height="336" viewBox="0 0 1560 336" fill="none" xmlns="http://www.w3.org/2000/svg">
<path d="M218.089 213.729C220.522 215.436 222.959 217.136 225.389 218.849C239.157 228.554 252.216 239.111 264.006 251.175C270.689 258.013 276.928 265.227 282.19 273.236C285.904 278.89 289.039 284.836 291.218 291.267C292.863 296.12 293.717 301.095 293.788 306.21C293.808 307.699 293.785 309.188 293.814 310.921C293.21 313.997 291.548 316.21 289.601 318.262C288.278 319.655 287.022 321.112 285.685 322.49C285.216 322.973 284.646 323.452 284.028 323.683C278.554 325.738 273.078 327.79 267.565 329.736C262.945 331.366 258.173 332.425 253.051 333.111C252.619 333.13 252.46 333.173 252.302 333.216C251.266 333.188 250.23 333.16 248.836 333.071C247.961 333.05 247.445 333.09 246.928 333.13C246.246 333.094 245.564 333.058 244.484 332.991C241.407 332.878 238.727 332.796 235.956 332.64C235.571 332.603 235.277 332.64 234.757 332.644C227.854 332.466 221.178 332.321 214.365 332.096C213.611 332.052 212.994 332.088 212.158 332.094C205.785 331.929 199.631 331.793 193.327 331.579C192.395 331.541 191.615 331.582 190.596 331.593C185.732 331.436 181.106 331.298 176.481 331.183C164.349 330.883 152.217 330.58 140.085 330.303C135.285 330.194 130.484 330.148 125.566 329.994C124.994 329.95 124.539 329.987 123.862 329.991C117.137 329.826 110.635 329.692 103.973 329.475C102.862 329.427 101.911 329.463 100.734 329.469C94.1826 329.308 87.857 329.177 81.3831 328.961C80.4545 328.917 79.6744 328.958 78.8941 329C72.7532 328.83 66.6122 328.661 60.0412 328.423C57.8004 328.294 55.9857 327.956 53.9537 328.404C47.2873 328.206 40.8503 328.031 34.4129 327.871C30.4997 327.774 26.5858 327.702 22.6722 327.618C22.4498 327.494 22.2274 327.369 22 327.241C22.738 325.674 23.4681 324.124 24.3435 322.254C25.021 320.65 25.5533 319.366 26.0856 318.082C26.4039 317.576 26.7223 317.071 27.0679 316.523C29.4897 316.523 31.8814 316.523 34.5148 316.479C35.1517 316.477 35.5469 316.52 36.3464 316.574C37.7083 316.64 38.6652 316.727 39.6234 316.746C47.3861 316.899 55.1489 317.041 62.9119 317.176C63.1641 317.181 63.4181 317.076 63.6713 317.022C64.3524 317.115 65.0322 317.276 65.715 317.29C71.6974 317.41 77.6803 317.505 84.0461 317.643C84.8601 317.64 85.2912 317.601 85.7223 317.562C87.3222 317.665 88.9221 317.768 90.9987 317.878C96.0987 317.967 100.722 318.059 105.346 318.122C106.124 318.132 106.905 318.011 107.684 317.951C109.42 318.099 111.153 318.34 112.89 318.379C128.028 318.715 143.163 319.134 158.308 319.079C180.452 318.999 202.597 319.031 224.741 319.021C232.717 319.018 240.659 318.493 248.556 317.395C254.293 316.597 259.912 315.305 265.183 312.793C267.808 311.542 270.255 310.033 272.439 307.584C274.866 304.693 276.051 301.647 276.255 298.222C276.402 295.745 275.972 293.348 275.24 290.99C273.615 285.755 270.929 281.061 267.875 276.557C264.038 270.896 259.755 265.576 255.11 260.575C249.336 254.359 243.438 248.254 237.481 242.212C231.278 235.919 224.879 229.82 218.687 223.517C215.503 220.276 212.578 216.782 209.552 213.388C209.221 213.018 208.786 212.618 209.172 211.945C209.651 211.924 210.172 211.923 210.688 211.874C213.375 211.622 215.902 211.993 218.089 213.729Z" fill="#434795"/>
<path d="M350.623 72.5383C353.293 69.5114 356.685 67.9156 360.667 67.5748C363.265 67.3524 364.788 68.4654 365.549 70.9733C366.172 73.0277 366.049 74.8644 364.476 76.5728C362.879 78.3062 361.448 80.2002 360.031 82.0884C356.608 86.6486 354.843 91.7646 355.008 97.5082C355.056 99.1702 355.05 100.835 355.022 102.498C354.941 107.415 355.212 112.295 356.397 117.095C356.669 118.196 356.781 119.337 357.014 120.449C357.116 120.934 357.34 121.393 357.56 122.009C361.281 120.136 364.861 118.317 368.455 116.528C371.962 114.783 375.398 112.885 379.065 111.281C380.873 113.368 382.578 115.338 384.252 117.271C385.416 117.187 386.252 116.692 387.109 116.292C391.334 114.32 395.168 111.715 398.893 108.939C403.464 105.532 407.815 101.874 411.607 97.5972C412.592 96.4866 413.514 95.3114 414.375 94.1022C416.083 91.7056 416.724 89.0503 416.066 86.1394C415.796 84.9456 415.517 83.753 415.207 82.5692C414.92 81.4739 414.586 80.3909 414.297 79.3902C414.687 78.7797 415.099 78.9411 415.51 79.1061C416.876 79.6532 418.215 80.2845 419.622 80.5549C420.196 80.0081 419.942 79.487 419.692 79.0591C418.369 76.7952 417.13 74.4686 415.635 72.3217C410.921 65.5531 405.495 59.369 399.767 53.4472C394.833 48.3451 389.726 43.4256 383.955 39.2613C382.258 38.0366 380.452 36.9416 378.613 35.94C376.562 34.8233 374.365 34.6267 372.003 34.9179C365.542 35.7146 360.548 39.0107 356.376 43.7492C354.587 45.7819 352.959 47.9615 351.32 50.1211C349.098 53.0483 347.009 56.0798 344.718 58.9504C343.415 60.5822 341.89 62.0559 340.344 63.4686C338.378 65.2644 336.029 66.4106 333.466 67.1649C331.599 67.7144 330.028 67.4897 328.678 65.7382C334.586 56.6195 340.529 47.4481 346.658 37.9939C350.329 32.5226 353.655 27.2338 357.03 21.7898C356.29 21.5371 355.72 21.3614 355.164 21.1485C353.368 20.461 351.583 19.7436 349.783 19.0679C347.379 18.1652 345.548 16.5008 343.897 14.621C341.575 11.978 340.299 8.85039 339.83 5.38599C339.64 3.98607 340.087 2.84272 341.311 2C341.775 2.25467 342.159 2.45263 342.531 2.67223C347.355 5.52069 352.175 8.37665 357.004 11.2173C357.601 11.5684 358.243 11.8422 358.98 12.2939C361.155 13.6006 363.214 14.7651 365.384 16.065C368.58 18.0269 371.665 19.8534 374.83 21.8321C375.769 22.7242 376.648 23.442 377.483 24.2075C381.348 27.7502 385.199 31.3077 389.058 34.857C395.877 41.1294 402.705 47.3925 409.517 53.673C415.17 58.886 420.794 64.1319 426.463 69.3288C427.406 70.1936 428.299 71.1832 429.58 71.6597C431.273 70.3948 432.983 69.2617 434.521 67.9295C436.097 66.5639 437.506 65.005 438.985 63.5278C440.617 61.8984 440.839 59.8232 439.24 58.156C438.229 57.102 437.426 55.8523 436.136 55.0058C434.866 54.1728 433.892 52.9118 432.592 52.0617C431.539 51.3732 430.522 50.6302 429.395 49.8371C429.165 49.6757 429.031 49.5867 428.831 49.3249C428.338 48.8669 427.904 48.5922 427.489 48.2902C426.333 47.4479 425.118 46.6693 424.05 45.7257C422.768 44.5926 421.612 43.315 420.348 41.9614C419.896 41.5291 419.498 41.2354 419.071 40.7507C418.149 39.1414 417.265 37.7165 416.353 36.3104C416.174 36.034 415.882 35.8304 415.652 35.5071C415.662 35.421 415.536 35.3015 415.475 35.1429C414.948 33.9551 414.53 32.9012 414.007 31.9023C413.204 30.3692 412.256 28.9095 411.501 27.3547C410.205 24.6841 408.48 22.3474 406.413 20.2329C404.784 18.5668 403.148 16.9197 400.798 15.6148C396.163 16.654 391.285 17.9661 386.265 19.2443C386.003 19.1426 385.893 19.1158 385.781 18.8617C386.225 16.776 386.583 14.8905 387.144 13.0674C387.644 11.443 388.742 10.0422 390.164 9.24607C392.117 8.15241 394.222 7.21511 396.5 6.94176C398.747 6.67224 401.005 6.50004 403.261 6.30842C404.84 6.17421 406.385 6.37361 407.996 7.02612C410.129 8.40796 411.902 9.95813 413.49 11.713C415.658 14.1099 417.785 16.5442 419.971 19.1308C420.639 19.9648 421.267 20.6305 421.95 21.4501C422.362 22.0044 422.72 22.405 423.108 22.9325C423.39 23.2905 423.641 23.5215 423.996 23.9047C425.952 26.5817 428.183 28.7465 430.522 30.8054C430.767 31.0206 431.137 31.0929 431.556 31.3684C432.831 32.2614 433.983 33.0445 435.17 33.7687C439.192 36.2219 443.257 38.6067 447.244 41.1139C449.314 42.4153 451.181 44.0049 452.827 45.8372C455.136 48.4063 456.071 51.312 455.457 54.786C454.913 57.859 453.8 60.6702 452.201 63.3086C450.977 65.328 449.613 67.2647 448.443 69.3135C447.258 71.3885 445.758 73.1798 444.112 74.8876C443.144 75.8919 442.299 77.0158 441.411 78.0962C440.589 79.0957 440.359 80.2566 440.4 81.5337C440.465 83.5247 441.069 85.3182 442.218 86.9223C443.032 88.0599 443.916 89.147 444.765 90.2603C446.247 92.2045 447.032 94.3484 446.911 96.8455C446.821 98.696 446.566 100.495 446.034 102.265C445.606 103.688 445.22 105.124 444.815 106.554C444.815 106.554 444.933 106.555 444.793 106.458C444.476 106.351 444.297 106.341 444.008 106.19C442.714 104.662 441.532 103.275 440.348 101.89C437.922 99.0546 435.505 96.2115 433.06 93.3917C432.508 92.7544 432.087 91.9136 431.091 91.8148C430.695 90.9882 430.34 90.1976 429.534 89.5858C428.602 88.8784 427.889 87.8818 426.95 86.6991C426.688 86.2735 426.572 86.1311 426.422 86.0526C426.219 85.9454 425.989 85.887 425.771 85.8076C425.706 86.0406 425.629 86.2713 425.582 86.508C425.568 86.5804 425.636 86.6692 425.667 86.7504C425.566 87.3022 425.466 87.854 425.345 88.8283C425.327 89.9883 425.329 90.7259 425.332 91.4634C425.256 92.5358 425.181 93.6081 425.054 95.0605C424.762 96.1719 424.116 96.4684 423.539 96.8673C421.381 98.3588 419.166 99.7847 417.122 101.421C413.024 104.701 409.011 108.088 404.989 111.46C400.228 115.451 395.518 119.502 390.733 123.464C389.461 124.517 388.019 125.376 386.61 126.251C385.496 126.944 384.387 126.693 383.485 125.827C382.926 125.291 382.464 124.63 382.06 123.963C381.349 122.79 380.322 122.308 378.995 122.306C376.852 122.304 374.813 122.687 373.007 123.917C371.852 124.703 370.649 125.437 369.579 126.328C365.844 129.44 361.432 130.596 356.718 130.912C356.139 130.951 355.548 130.817 355.093 130.775C354.575 129.649 354.229 128.643 353.684 127.76C352.417 125.71 351.193 123.636 349.738 121.697C348.553 120.117 347.433 118.418 346.67 116.609C345.76 114.451 345.261 112.119 344.617 109.74C344.638 109.437 344.556 109.295 344.401 108.956C344.098 104.802 343.897 100.882 344.102 96.9484C344.206 94.9459 344.232 92.9393 344.373 90.7414C344.89 87.427 345.437 84.3244 346.45 81.3332C347.145 79.2789 347.965 77.2665 348.729 75.2354C349.349 75.0442 349.56 74.561 349.807 73.7697C350.198 73.2217 350.41 72.88 350.623 72.5383Z" fill="#444795"/>
<path d="M449.243 226.667C449.325 226.683 449.429 226.74 449.487 226.709C450.455 226.19 451.258 225.524 451.665 224.331C452.36 223.896 453.166 223.759 453.13 222.862C453.13 222.862 453.221 222.703 453.206 222.612C455.472 220.284 457.969 218.324 461.02 216.529C461.581 216.393 461.824 216.397 462.068 216.4C462.096 216.515 462.124 216.63 462.182 217.114C462.339 218.75 462.466 220.018 462.594 221.285C462.621 222.535 462.647 223.784 462.699 225.455C462.839 226.799 462.956 227.722 463.072 228.644C463.23 231.654 463.387 234.664 463.567 238.099C463.649 239.086 463.709 239.648 463.728 240.417C463.819 241.888 463.95 243.15 464.082 244.413C464.132 246.829 464.115 249.249 464.259 251.659C464.342 253.053 464.022 254.186 463.04 255.185C462.376 255.86 461.813 256.634 460.962 257.532C460.627 257.719 460.535 257.738 460.443 257.757C460.225 256.605 460.008 255.453 459.766 253.967C459.737 253.45 459.66 253.306 459.511 253.2C459.124 250.423 458.736 247.646 458.324 244.444C457.851 242.397 458.083 240.627 457.315 239.021C456.236 239.964 456.236 239.964 455.576 241.594C455.355 241.91 455.268 242.118 455.113 242.395C454.967 242.571 454.913 242.688 454.882 242.815C451.695 248.919 448.508 255.023 445.306 261.157C444.108 260.77 443.073 260.534 442.359 259.482C442.017 258.978 441.215 258.784 440.55 258.409C440.253 256.222 440.415 254.05 440.786 251.894C441.786 246.084 443.607 240.53 446.056 235.175C446.346 234.539 446.608 233.892 446.975 232.904C448.385 231.011 449.055 229.113 449.859 227.294C450.013 226.945 449.621 226.714 449.243 226.667Z" fill="#444795"/>
<path d="M295.851 238.864C293.444 237.442 291.104 235.889 288.615 234.628C284.405 232.494 280.103 230.541 275.836 228.52C271.961 226.686 268.113 224.803 264.519 222.443C257.667 217.944 252.269 212.062 248.004 205.103C245.566 201.124 245.582 201.116 245.592 196.526C245.597 193.726 245.594 190.926 245.595 188.126C245.595 187.435 245.595 186.743 245.595 186.128C244.272 185.184 242.837 186.046 241.55 185.356C241.125 184.607 241.38 183.727 241.477 182.89C241.959 178.72 242.431 174.548 243.002 170.39C244.227 161.458 246.076 152.652 248.499 143.966C251.584 132.903 255.702 122.225 260.641 111.872C263.766 105.322 267.14 98.8919 270.344 92.3795C271.635 89.7548 273.51 87.6001 275.467 85.4908C275.942 84.979 276.447 84.4945 277.168 83.7621C280.531 80.4065 283.663 77.2865 286.888 74.0749C288.153 74.0749 289.453 74.0944 290.752 74.0699C292.31 74.0404 293.869 73.9735 295.622 73.979C296.215 73.9981 296.615 73.961 297.241 73.9794C298.716 74.0238 299.964 74.0128 301.392 74.0724C302.322 74.3281 303.071 74.5132 303.93 74.8329C307.393 77.1371 308.907 80.3203 308.994 84.2137C309.02 85.4175 308.739 86.6281 308.532 87.8871C308.39 88.0527 308.403 88.1557 308.4 88.4217C307.868 89.4219 307.44 90.2481 306.866 91.084C306.625 91.079 306.529 91.0644 306.339 90.8986C305.179 89.7292 303.999 88.8031 303.081 87.6659C302.192 86.5654 301.048 86.0835 299.804 85.6977C297.78 85.0705 295.686 85.1113 293.598 85.0796C291.896 85.0538 290.296 85.4901 288.835 86.2632C287.31 87.0702 285.871 88.027 284.606 89.2614C282.094 91.7122 280.1 94.5122 278.394 97.6942C278.208 97.9363 278.153 98.1147 278.006 98.4533C275.333 103.202 273.477 108.102 271.767 113.058C268.65 122.09 266.494 131.373 264.688 140.743C262.747 150.81 261.607 160.976 260.928 171.198C260.906 171.524 261.013 171.858 261.078 172.321C261.657 172.379 262.161 172.477 262.663 172.471C264.763 172.446 266.87 172.483 268.962 172.323C272.36 172.064 275.747 171.668 279.315 171.363C279.725 171.355 279.959 171.315 280.416 171.305C282.241 171.15 283.843 170.964 285.642 170.809C286.235 170.787 286.63 170.733 287.234 170.709C288.704 170.575 289.965 170.41 291.424 170.277C292.018 170.249 292.414 170.19 293.015 170.164C295.658 170.018 295.884 169.852 296.545 167.724C296.7 167.225 296.85 166.725 296.987 166.221C298.313 161.35 299.649 156.482 300.956 151.606C302.105 147.322 303.222 143.029 304.417 138.681C304.549 138.505 304.536 138.397 304.55 138.111C304.885 137.691 305.116 137.264 305.341 137.267C305.909 137.276 306.52 137.382 307.026 137.627C307.692 137.95 307.408 138.684 307.429 139.321C307.349 139.452 307.311 139.518 307.324 139.574C307.35 139.692 307.402 139.805 307.389 140.123C307.249 140.93 307.136 141.532 307.081 142.139C306.493 148.565 305.918 154.992 305.332 161.418C305.126 163.676 305.025 165.953 304.65 168.183C303.913 172.566 303.017 176.922 302.187 181.29C302.187 181.29 302.216 181.297 302.206 181.285C293.532 181.296 284.868 181.32 276.204 181.343C273.666 181.35 271.128 181.349 268.59 181.361C266.13 181.373 263.715 181.704 261.321 182.288C259.209 182.802 257.069 183.201 254.798 183.682C254.984 184.326 255.104 184.913 255.321 185.462C256.72 188.993 257.541 192.641 257.626 196.447C257.699 199.748 258.943 202.538 261.209 204.935C263.322 207.17 265.665 209.122 268.148 210.917C273.037 214.452 278.252 217.461 283.521 220.379C288.257 223.002 293.023 225.574 297.777 228.167C303.69 231.392 309.804 234.21 315.931 236.994C326.44 241.771 337.023 246.379 347.857 250.382C350.726 251.442 353.662 252.321 356.826 253.407C357.19 253.657 357.324 253.732 357.487 253.756C360.746 258.538 365.028 262.218 369.901 265.253C376.473 269.346 383.585 272.28 390.836 274.898C397.337 277.244 403.868 279.505 410.362 281.868C414.228 283.276 417.921 285.067 421.585 287.621C421.756 288.104 421.73 288.267 421.705 288.431C420.417 288.287 419.13 288.143 417.401 287.957C415.517 287.78 414.074 287.646 412.433 287.443C410.966 287.273 409.696 287.17 408.192 287.005C406.062 286.802 404.167 286.661 402.273 286.519C402.032 286.46 401.792 286.4 401.2 286.282C397.068 285.831 393.288 285.439 389.508 285.047C387.564 284.805 385.619 284.563 383.308 284.244C382.511 284.157 382.082 284.147 381.652 284.138C380.328 283.171 379.015 282.188 377.676 281.241C374.923 279.294 372.156 277.366 369.117 275.354C368.704 275.207 368.573 275.127 368.448 275.038C368.222 274.815 367.995 274.592 367.517 274.303C367.139 274.173 367.014 274.103 366.893 274.029C366.657 273.798 366.421 273.567 365.932 273.265C365.558 273.13 365.437 273.064 365.316 272.998C365.316 272.998 365.187 272.778 364.949 272.683C364.549 272.527 364.398 272.445 364.259 272.341C364.045 272.129 363.832 271.916 363.356 271.636C362.947 271.497 362.807 271.415 362.672 271.323C362.445 271.108 362.217 270.892 361.728 270.614C361.332 270.471 361.202 270.384 360.996 270.138C360.311 269.681 359.705 269.377 358.993 269.013C358.737 268.896 358.597 268.818 358.392 268.565C357.707 268.101 357.096 267.794 356.377 267.428C356.115 267.314 355.973 267.236 355.764 266.973C349.173 262.757 342.428 259.124 335.607 255.629C335.382 255.514 335.108 255.495 334.857 255.431C334.117 254.999 333.408 254.502 332.632 254.147C327.526 251.81 322.405 249.503 317.129 246.887C316.988 245.728 316.343 245.431 315.723 245.094C312.418 243.298 308.845 242.225 305.241 241.246C304.33 240.998 303.381 240.795 302.442 240.761C301.35 240.72 300.406 240.417 299.527 239.801C298.817 239.304 298.107 238.8 297.36 238.361C296.715 237.982 296.199 238.227 295.851 238.864Z" fill="#434694"/>
<path d="M332.965 112.788C333.18 112.35 333.375 112.138 333.627 112.14C333.726 112.748 333.767 113.142 333.809 113.536C333.771 113.97 333.692 114.404 333.7 114.837C333.829 121.128 333.982 127.418 334.104 133.708C334.251 141.31 334.349 148.913 334.511 156.514C334.769 168.658 335.061 180.801 335.319 193.389C335.174 194.367 334.75 194.447 334.304 194.466C333.432 194.503 332.56 194.524 331.542 194.54C331.32 194.687 331.245 194.847 331.132 195.237C331.39 198.383 331.668 201.3 331.983 204.213C332.177 206.011 332.428 207.802 332.594 209.68C332.589 209.949 332.643 210.134 332.689 210.553C332.825 212.186 332.969 213.583 332.884 215.016C332.357 214.987 332.058 214.922 331.76 214.858C331.615 214.604 331.47 214.35 331.133 213.928C330.862 213.624 330.765 213.502 330.65 213.394C328.91 210.917 328.009 208.062 327.052 205.244C326.359 203.203 325.818 201.11 325.136 198.762C325.047 198.344 324.975 198.248 324.844 198.195C324.491 196.285 323.117 195.008 321.89 193.7C320.975 192.724 319.597 192.472 318.276 192.366C316.364 192.211 314.447 192.085 312.53 192.014C310.524 191.94 308.515 191.96 306.508 191.911C303.6 191.842 300.804 191.27 298.028 189.934C297.855 189.276 297.662 188.537 297.479 187.841C298.057 186.897 299.029 186.916 300.085 186.471C300.556 186.362 300.681 186.268 300.766 186.12C304.087 185.116 307.411 184.122 310.728 183.104C313.55 182.237 316.364 181.347 319.178 180.457C319.918 180.223 320.646 179.949 321.437 179.673C321.968 177.757 321.613 175.841 321.811 173.661C321.868 173.3 321.903 173.235 321.888 173.185C321.856 173.077 321.798 172.977 321.75 172.873C321.906 168.941 322.016 165.007 322.239 161.079C322.338 159.342 322.443 157.555 322.924 155.9C325.341 147.582 326.986 139.083 329.006 130.673C330.129 126.001 331.158 121.307 332.305 116.338C332.457 115.919 332.447 115.792 332.352 115.673C332.55 114.787 332.748 113.901 332.965 112.788Z" fill="#434694"/>
<path d="M454.37 273.027C455.113 272.302 456.001 271.675 456.571 270.833C458.047 268.651 459.848 266.812 461.881 265.162C462.552 264.618 463.206 263.988 463.672 263.27C464.868 261.432 466.705 260.218 468.079 258.56C468.228 258.381 468.497 258.3 468.842 258.096C471.006 261.328 472.019 264.837 472 269.092C471.382 274.461 469.142 278.661 466.11 282.5C462.674 286.849 458.588 290.545 454.379 294.112C451.518 296.536 448.656 298.954 446.025 301.635C444.905 302.777 444.427 304.01 444.66 305.645C445.178 309.281 445.558 312.936 445.994 316.583C446.263 318.838 446.532 321.093 446.576 323.383C445.007 323.524 443.663 323.628 442.106 323.65C440.025 323.549 438.157 323.53 436.288 323.51C436.126 323.317 435.964 323.123 435.727 322.633C435.18 320.89 434.73 319.435 434.213 318.004C434.129 317.772 433.752 317.646 433.608 317.403C433.872 317.225 433.906 317.083 433.88 316.729C433.826 315.105 433.701 313.662 433.628 311.99C433.77 310.522 433.86 309.282 434.019 307.908C434.071 307.259 434.056 306.744 433.849 306.113C433.577 306.121 433.496 306.246 433.622 306.367C434.769 305.643 434.754 304.504 434.974 303.52C436.065 298.645 437.944 294.044 439.761 289.422C440.168 288.388 440.664 287.37 441.758 286.769C442.266 286.49 442.69 285.961 443.012 285.456C444.387 283.304 446.2 281.578 448.119 279.93C448.891 279.266 449.762 278.627 450.104 277.396C450.836 276.528 451.469 275.789 452.259 274.978C453.049 274.27 453.681 273.634 454.327 273.006C454.341 273.014 454.37 273.027 454.37 273.027Z" fill="#434694"/>
<path d="M370.342 240.658C370.98 240.674 371.375 240.727 372.176 240.811C374.895 241.164 377.208 241.486 379.521 241.808C380.842 242.257 382.164 242.698 383.482 243.155C387.154 244.426 390.346 246.558 393.483 248.776C396.186 250.687 398.852 252.65 401.578 254.766C401.113 254.921 400.582 254.989 400.098 254.867C390.707 252.498 381.322 250.105 371.935 247.723C368.298 246.8 364.658 245.892 360.662 244.95C360.189 245.081 360.075 245.239 359.96 245.398C359.817 245.642 359.673 245.886 359.372 246.328C358.974 246.687 358.734 246.849 358.493 247.012C356.707 245.583 354.802 244.32 352.944 242.998C351.149 241.721 349.326 240.452 347.56 239.116C345.335 237.433 342.934 235.981 340.726 234.278C339.044 232.981 337.046 232.113 335.615 230.485C333.229 229.494 331.451 227.59 329.334 226.193C327.297 224.849 325.307 223.376 323.324 221.921C320.254 219.668 317.233 217.341 314.067 215.232C312.794 214.383 311.681 213.313 310.367 212.581C309.09 211.869 308.081 210.825 306.852 210.106C305.524 209.329 304.436 208.23 303.139 207.469C301.804 206.687 300.73 205.582 299.431 204.801C297.32 203.531 295.428 201.958 293.358 200.632C291.57 199.487 289.906 198.148 288.088 196.74C288.283 196.1 288.581 195.617 288.872 195.13C289.204 194.575 289.716 194.407 290.514 194.399C296.356 195.149 301.385 197.533 306.185 200.467C309.981 202.789 313.573 205.413 317.079 208.149C321.683 211.741 326.174 215.485 330.857 218.971C336.102 222.876 341.507 226.566 346.842 230.349C350.893 233.221 354.963 236.066 358.986 238.975C360.526 240.089 362.106 240.738 364.072 240.614C366.071 240.487 368.089 240.656 370.342 240.658Z" fill="#464898"/>
<path d="M295.954 238.998C296.198 238.227 296.714 237.982 297.36 238.361C298.107 238.8 298.816 239.304 299.526 239.801C300.405 240.417 301.35 240.72 302.442 240.761C303.38 240.795 304.329 240.998 305.241 241.246C308.844 242.225 312.417 243.298 315.723 245.094C316.342 245.431 316.988 245.728 316.976 246.776C315.824 246.588 314.672 246.187 313.504 245.842C310.318 244.899 307.135 243.95 303.932 243.069C302.95 242.799 301.915 242.525 300.776 242.939C300.948 243.502 301.072 244.004 301.253 244.485C303.179 249.59 304.324 254.866 304.989 260.28C306.016 268.635 306.375 277.021 306.516 285.428C306.62 291.643 306.799 297.857 307.073 304.066C307.258 308.264 307.792 312.428 308.964 316.494C309.611 318.737 310.667 320.685 312.354 322.311C314.307 324.194 316.22 326.12 318.137 328.041C318.617 328.523 319.043 329.058 319.484 329.556C319.294 329.771 319.191 329.993 319.084 329.995C313.578 330.096 308.073 330.073 302.517 329.997C301.152 328.053 299.867 326.18 298.533 324.342C297.967 323.563 297.942 322.72 298.025 321.839C298.278 319.138 298.547 316.439 298.8 313.738C298.898 312.692 298.972 311.644 299.037 310.35C299.38 306.534 299.737 302.964 300.106 299.396C300.421 296.349 300.776 293.305 301.059 290.255C301.155 289.217 301.182 288.152 301.07 287.118C300.471 281.636 299.816 276.16 299.184 270.682C298.561 265.29 297.944 259.897 297.32 254.506C296.918 251.027 296.504 247.55 296.109 244.07C296.062 243.654 296.103 243.228 296.103 242.669C297.255 242.532 298.272 242.411 299.274 242.292C299.498 241.719 299.096 241.462 298.77 241.205C297.876 240.5 296.963 239.822 295.954 238.998Z" fill="#464898"/>
<path d="M324.269 256.726C324.5 256.361 324.759 256.221 325.175 256.108C327.402 258.761 328.422 261.789 328.811 265.472C328.956 266.42 329.035 266.98 329.113 267.539C329.131 273.466 329.055 279.395 329.207 285.317C329.276 288.005 329.681 290.702 330.153 293.356C330.471 295.14 330.987 296.941 331.744 298.583C333.141 301.617 334.021 304.79 334.82 308.005C335.661 311.385 336.535 314.757 337.372 318.38C337.268 318.728 337.166 318.796 337.041 318.832C335.502 317.457 333.901 316.166 332.43 314.694C330.548 312.808 329.321 310.567 328.202 308.261C325.56 302.819 323.912 297.053 323.028 290.751C323.005 290.28 322.943 290.155 322.813 290.064C321.873 285.019 322.518 279.981 322.889 274.945C323.331 268.945 323.826 262.948 324.269 256.726Z" fill="#464898"/>
<path d="M424.645 265.889C424.299 268.71 423.954 271.53 423.616 274.563C422.911 273.736 422.767 272.515 422.565 271.324C421.354 264.169 420.162 257.011 418.968 249.853C418.839 249.082 418.736 248.307 418.593 247.344C419 247.498 419.287 247.607 419.72 247.794C421.585 249.349 423.273 250.864 425.032 252.293C428.148 254.824 431.306 257.304 434.447 259.804C435.881 260.944 437.334 262.062 438.749 263.225C439.623 263.943 440.442 264.727 441.399 265.583C440.392 271.364 439.388 277.125 438.4 283.105C438.415 283.325 438.408 283.279 438.247 283.325C437.994 283.402 437.902 283.433 437.809 283.464C437.481 282.965 437.097 282.494 436.835 281.962C435.634 279.525 434.875 276.935 434.232 274.306C433.963 273.207 433.639 272.122 433.247 270.694C432.829 269.936 432.504 269.515 432.178 269.094C430.272 266.568 427.942 264.512 425.239 262.712C424.661 263.462 424.807 264.263 424.629 265.271C424.495 265.684 424.522 265.798 424.645 265.889Z" fill="#464898"/>
<path d="M156.669 175.331C159.591 175.853 162.527 176.307 165.433 176.908C177.796 179.469 189.77 183.3 201.458 188.049C211.032 191.939 220.353 196.34 229.102 201.874C231.022 203.088 232.87 204.419 234.722 205.737C235.42 206.233 236.036 206.843 236.733 207.437C235.815 209.722 234.482 211.528 232.803 213.078C232.002 213.817 231 214.098 229.893 214.043C228.471 213.973 227.128 213.596 225.854 213.002C224.27 212.263 222.689 211.509 221.161 210.662C220 210.019 218.813 209.503 217.128 209.181C211.704 207.635 206.629 206.272 201.638 204.648C195.647 202.698 189.702 200.599 183.785 198.437C166.11 191.98 147.874 188.553 129.07 188.102C126.268 188.034 123.468 187.922 120.669 187.798C120.096 187.772 119.53 187.599 118.877 187.479C119.059 186.201 119.218 185.085 119.487 183.824C119.87 182.723 120.143 181.768 120.526 180.673C120.924 179.754 121.21 178.976 121.629 178.076C123.724 173.856 126.083 169.991 128.638 166.238C129.117 165.534 129.469 164.744 129.976 163.843C131.878 161.395 133.684 159.099 135.628 156.711C136.847 155.247 137.928 153.874 139.151 152.416C140.048 151.384 140.803 150.438 141.703 149.41C142.099 148.973 142.351 148.618 142.753 148.187C143.68 147.179 144.457 146.248 145.39 145.227C147.127 143.355 148.709 141.572 150.29 139.789C151.458 138.612 152.619 137.428 153.794 136.258C163.096 126.996 172.405 117.742 181.7 108.472C183.367 106.81 184.949 105.063 186.619 103.405C187.292 102.737 188.094 102.198 188.847 101.613C189.049 101.457 189.373 101.401 189.495 101.208C190.121 100.206 191.197 99.7812 192.037 99.0739C192.893 98.3531 193.817 97.7399 194.658 97.0418C196.88 95.197 199.243 93.5815 201.612 91.9471C203.362 90.7394 204.999 89.3849 206.869 88.3275C208.783 87.2446 210.571 85.9383 212.422 84.7416C213.692 83.9203 214.946 83.0686 216.259 82.3213C218.105 81.2708 220 80.3066 221.871 79.3006C222.256 79.0939 222.671 78.9162 222.999 78.6383C223.984 77.8036 225.08 77.1938 226.298 76.7738C226.79 76.6042 227.281 76.3808 227.712 76.091C231.127 73.7903 234.917 72.2554 238.65 70.5816C241.102 69.4824 243.562 68.401 246.039 67.365C248.54 66.3196 251.087 65.3863 253.865 64.3381C254.241 64.2688 254.321 64.2084 254.358 64.091C258.848 62.6596 263.345 61.2592 267.959 60.2581C271.643 59.459 275.354 58.9435 279.122 58.8792C282.005 58.8301 284.89 58.8886 287.772 58.8185C294.026 58.6663 300.141 59.4953 306.142 61.2436C307.314 61.5851 308.51 61.8459 310.03 62.2515C310.916 62.5174 311.48 62.6402 312.011 62.8473C312.33 62.9718 312.533 63.2472 312.041 63.6069C309.32 64.2518 306.808 64.9054 304.083 65.5593C301.747 66.0873 299.622 66.6149 297.497 67.1425C296.193 67.421 294.889 67.6994 293.216 68.0872C291.041 68.6414 289.235 69.0862 287.207 69.5347C283.451 70.3649 279.913 71.1744 276.384 72.0231C273.617 72.6885 270.862 73.4023 267.897 74.0744C266.565 74.2846 265.438 74.5151 264.084 74.726C258.334 75.5302 253.067 77.1822 247.867 79.6433C247.491 79.7982 247.286 79.9115 246.928 80.0356C246.331 80.2921 245.887 80.5377 245.252 80.8066C238.069 84.0416 231.485 87.9635 225.206 92.3916C220.864 95.4534 216.464 98.4581 212.344 101.802C205.484 107.371 198.804 113.164 192.46 119.328C191.587 120.176 190.761 121.073 189.757 122.034C188.799 122.964 187.995 123.808 187.04 124.72C186.527 125.211 186.165 125.633 185.669 126.122C184.998 126.782 184.461 127.374 183.764 128.061C174.912 137.042 166.772 146.407 159.299 156.343C155.461 161.446 151.82 166.687 148.653 172.24C148.277 172.899 147.629 173.475 147.823 174.388C148.639 174.777 149.499 174.782 150.573 174.732C152.738 174.984 154.703 175.157 156.669 175.331Z" fill="#434694"/>
<path d="M264.159 244.153C259.891 240.118 255.751 236.218 251.618 232.312C247.284 228.217 243.156 223.937 239.838 218.95C238.875 217.503 238.012 215.991 237.006 214.352C237.604 214.02 238.018 213.759 238.459 213.557C238.774 213.413 239.133 213.369 239.46 213.247C244.245 211.461 243.134 211.553 246.752 214.22C262.141 225.563 275.08 239.191 284.814 255.723C289.324 263.382 292.816 271.488 294.585 280.232C295.259 283.564 295.483 286.987 295.893 290.371C295.952 290.863 295.901 291.368 295.901 291.827C295.17 292.074 294.958 291.599 294.738 291.276C293.213 289.036 291.587 286.85 290.235 284.508C287 278.902 283.93 273.2 280.731 267.573C278.699 264 276.615 260.453 274.442 256.965C271.563 252.343 268.136 248.142 264.159 244.153Z" fill="#444795"/>
<path d="M118.322 285.818C119.08 285.957 119.838 286.097 120.742 286.264C120.506 287.589 119.786 288.586 119.172 289.585C118.897 290.031 118.222 290.345 117.67 290.481C116.922 290.665 116.117 290.665 115.336 290.668C110.631 290.683 105.926 290.672 101.221 290.679C98.2013 290.682 95.3172 290.096 92.7057 288.542C89.9182 286.884 86.9164 286.225 83.7076 286.302C81.9662 286.344 80.2233 286.327 78.1922 286.205C78.1068 285.715 78.2284 285.254 78.5277 285.019C79.8816 283.955 81.2856 282.955 82.6716 281.932C83.0456 281.875 83.4196 281.818 84.2013 281.756C85.2179 281.791 85.8306 281.799 86.4348 281.875C95.25 282.989 104.063 284.118 112.879 285.228C114.689 285.456 116.508 285.623 118.322 285.818Z" fill="#48499C"/>
<path d="M114.721 294.022C120.482 292.582 125.681 290.269 130.86 287.909C137.388 284.935 143.888 281.9 150.43 278.957C156.255 276.337 162.344 274.95 168.777 275.19C172.625 275.333 176.481 275.274 180.33 275.401C185.016 275.555 189.488 276.81 193.862 278.384C197.318 279.628 200.704 281.062 204.134 282.38C207.072 283.51 210.027 284.595 212.975 285.699C213.621 285.941 214.268 286.182 214.928 286.429C215.135 287.82 215.108 289.098 214.877 290.465C214.18 290.465 213.575 290.568 213.017 290.448C209.427 289.674 205.824 288.938 202.269 288.02C198.175 286.964 194.042 286.344 189.817 286.338C184.826 286.331 179.835 286.392 174.846 286.318C166.342 286.19 158.104 287.655 150.126 290.49C144.11 292.628 138.181 295.012 132.226 297.317C128.064 298.928 123.903 300.525 119.631 301.843C113.327 303.787 106.915 304.13 100.406 303.511C97.3498 303.221 94.3538 302.607 91.3854 301.821C85.1819 300.178 78.9079 299.099 72.4455 299.434C67.6068 299.685 62.8799 300.451 58.3123 302.104C56.0085 302.937 53.7106 303.789 51.3919 304.58C50.088 305.024 48.7473 305.361 47.0625 305.851C47.3105 305.217 47.3643 304.9 47.5346 304.67C52.2852 298.237 58.7862 294.887 66.6 293.811C72.1877 293.042 77.779 293.273 83.3767 293.61C90.8899 294.061 98.4033 294.51 105.918 294.931C108.82 295.093 111.688 294.792 114.721 294.022Z" fill="#464898"/>
<path d="M186.251 270.162C186.089 270.646 185.722 270.834 185.247 270.801C183.505 270.683 181.748 270.658 180.026 270.404C169.69 268.88 160.735 264.473 153.101 257.354C152.783 257.056 152.455 256.768 151.898 256.252C145.159 249.343 140.111 241.666 136.131 233.259C135.313 231.532 134.485 229.811 133.696 228.009C133.714 227.802 133.644 227.721 133.477 227.497C131.597 222.313 129.758 217.32 127.955 212.235C127.979 211.998 127.908 211.893 127.756 211.628C127.139 209.462 126.545 207.494 125.972 205.409C125.964 205.125 125.877 204.996 125.719 204.7C124.935 201.221 123.816 198.021 123.417 194.53C129.175 194.53 134.746 194.53 140.347 194.53C140.992 196.013 140.747 197.523 140.84 198.98C141.189 204.503 142.179 209.898 143.877 215.167C146.349 222.836 150.324 229.681 155.247 236.01C159.768 241.824 164.935 247.046 170.129 252.243C172.602 254.717 175.043 257.223 177.485 259.727C180.665 262.988 183.461 266.574 186.251 270.162Z" fill="#434694"/>
<path d="M1513.32 132.712C1514.76 132.055 1516.19 131.398 1518.19 130.49C1520.44 129.75 1522.12 129.259 1523.8 128.768C1524.41 128.754 1525.02 128.739 1525.92 128.661C1529.27 128.801 1532.31 129.005 1535.36 129.209C1537.02 132.599 1536.18 136.055 1536.65 140.195C1536.82 144.248 1536.97 147.453 1537 150.699C1536.88 150.742 1536.93 150.992 1536.51 150.951C1534.15 150.609 1532.21 150.309 1530.27 150.009C1528.81 149.896 1527.35 149.784 1525.58 149.756C1514.94 150.334 1508.69 156.245 1505.14 165.396C1503.97 168.412 1503.3 171.709 1502.96 174.937C1502.31 181.135 1502.07 187.374 1501.56 194.359C1501.5 197.423 1501.52 199.725 1501.55 202.026C1501.49 207.976 1501.43 213.926 1501.47 220.306C1501.21 221.609 1500.86 222.49 1499.7 222.514C1498.92 222.53 1498.14 222.563 1497.36 222.563C1491.43 222.562 1485.5 222.561 1479.57 222.541C1478.64 222.538 1477.72 222.437 1476.53 222.366C1476.35 221.479 1475.99 220.605 1476.03 219.755C1476.46 211.969 1476.96 204.188 1477.44 196.405C1477.81 190.333 1478.35 184.266 1478.51 178.189C1478.91 163.686 1479.13 149.178 1479.44 134.672C1479.46 133.608 1479.59 132.546 1479.67 131.348C1480.39 131.171 1480.97 130.908 1481.55 130.903C1488.1 130.847 1494.66 130.854 1501.21 130.788C1502.72 130.772 1503.61 131.269 1503.61 133.56C1503.65 134.659 1503.69 135.08 1503.6 135.826C1503.36 137.214 1503.18 138.275 1503.18 139.337C1503.18 140.31 1502.71 141.394 1503.77 142.514C1505.78 140.123 1507.7 137.828 1509.89 135.423C1511.22 134.446 1512.27 133.579 1513.32 132.712Z" fill="#F3653D"/>
<path d="M1343.84 118.206C1343.57 121.751 1343.17 124.849 1343.01 127.958C1342.56 136.835 1342.22 145.717 1341.81 154.596C1341.29 165.965 1340.63 177.33 1340.25 188.704C1339.93 198.212 1339.91 207.731 1339.75 217.244C1339.72 218.781 1339.64 220.318 1339.57 222.102C1335.57 223.07 1331.7 222.466 1327.88 222.521C1324.02 222.576 1320.14 222.723 1316.13 222.346C1315.41 219.791 1316.02 217.474 1315.95 215.189C1315.89 213.089 1316.67 210.983 1316.22 208.926C1314.74 208.7 1314.39 209.729 1313.77 210.357C1311.47 212.679 1309.4 215.296 1306.83 217.272C1298.67 223.553 1289.34 225.868 1279.12 224.785C1275.69 224.421 1272.36 223.661 1269.12 222.5C1257.6 218.377 1250.04 210.438 1246.42 198.776C1244.65 193.084 1243.81 187.231 1243.74 180.564C1243.88 178.807 1243.97 177.761 1244.19 176.415C1244.3 175.691 1244.29 175.266 1244.41 174.488C1245.15 171.413 1245.69 168.669 1246.4 165.973C1248.46 158.217 1251.93 151.17 1257.23 145.097C1258.66 143.466 1260.2 141.94 1261.97 140.238C1267.31 136.184 1272.81 133.106 1279.06 131.459C1280.1 131.184 1281.1 130.76 1282.31 130.422C1282.5 130.439 1282.78 130.18 1283.17 130.173C1285.83 129.754 1288.1 129.342 1290.8 128.973C1295.59 128.967 1299.95 128.763 1304.3 128.915C1308.77 129.072 1313.23 129.576 1317.82 129.938C1318.74 126.66 1318.49 123.582 1318.31 120.508C1318.46 114.066 1318.62 107.623 1318.98 100.601C1319.57 99.788 1319.96 99.5546 1320.35 99.3211C1321.88 99.3797 1323.42 99.498 1324.95 99.4861C1330.68 99.4415 1336.4 99.3412 1342.12 99.299C1342.87 99.2935 1343.61 99.5049 1344.59 99.6525C1345 105.822 1343.83 111.777 1343.84 118.206ZM1274.76 199.294C1275.31 199.842 1275.84 200.427 1276.43 200.933C1281.46 205.238 1287.28 206.791 1293.82 206.017C1301.03 205.163 1306.22 201.261 1309.99 195.288C1313.31 190.041 1314.85 184.162 1315.68 178.09C1316.94 168.798 1316.87 159.417 1317.35 150.073C1317.4 149.196 1317.11 148.301 1316.96 147.291C1315.09 146.915 1313.44 146.47 1311.77 146.265C1304.9 145.424 1298.08 145.437 1291.38 147.509C1283.36 149.987 1277.4 154.903 1273.51 162.33C1271.47 166.237 1270.3 170.431 1269.44 174.73C1267.69 183.437 1269.32 191.446 1274.76 199.294Z" fill="#F3663E"/>
<path d="M739.21 86.32C731.789 83.6132 724.445 82.4083 716.96 81.7149C711.744 81.2318 706.673 81.698 701.688 83.1066C696.106 84.6836 691.59 87.8795 688.13 92.5666C686.577 94.6716 685.9 96.9909 686.062 99.5866C686.279 103.084 687.24 106.32 689.259 109.228C691.865 112.983 695.039 116.223 698.628 118.985C706.924 125.371 714.626 132.43 722.354 139.466C726.389 143.139 730.565 146.678 734.36 150.587C737.497 153.818 740.382 157.349 742.994 161.021C747.26 167.017 749.295 173.878 749.531 181.21C749.651 184.966 749.008 188.692 747.867 192.27C744.465 202.94 738.334 211.471 728.275 216.877C720.059 221.293 711.358 223.844 702.025 224.653C693.116 225.425 684.256 225.165 675.4 224.371C670.751 223.953 666.127 223.157 661.528 222.331C657.542 221.615 653.597 220.654 649.654 219.72C648.318 219.404 647.041 218.84 645.9 218.445C645.116 215.216 643.241 193.107 643.495 190.033C644.854 190.497 646.156 190.899 647.429 191.381C655.753 194.536 664.208 197.246 672.996 198.784C680.894 200.167 688.78 200.634 696.636 198.389C699.97 197.436 703.105 196.114 705.929 194.099C715.015 187.616 713.917 177.008 709.506 171.382C708.258 169.79 706.985 168.175 705.494 166.823C696.249 158.442 686.992 150.072 677.632 141.82C671.309 136.245 665.006 130.674 659.506 124.249C655.486 119.551 652.424 114.347 650.848 108.362C647.023 93.8362 651.864 75.357 667.393 65.4531C673.404 61.6194 679.962 59.1899 686.918 57.947C696.46 56.2417 706.069 55.3355 715.778 56.5745C718.713 56.949 721.688 57.0096 725.404 57.3462C729.408 57.8323 732.652 58.186 736.254 58.6601C739.135 59.2234 741.66 59.6663 744.256 60.2664C744.328 60.4234 744.598 60.6391 744.622 60.8287C744.7 61.2872 744.847 61.4881 745.118 61.6214C745.15 61.6218 745.149 61.5591 745.098 61.9849C745.277 70.8921 745.877 79.3415 747.228 87.7262C746.696 87.8929 746.103 88.301 745.643 88.1847C743.597 87.6676 741.589 87.0004 739.21 86.32Z" fill="#F2663F"/>
<path d="M1151.61 150.196C1151 150.217 1150.38 150.25 1149.76 150.247C1149.65 150.246 1149.53 150.098 1149.15 149.843C1149.24 149.246 1149.33 148.51 1149.44 147.775C1149.94 144.236 1150.54 140.707 1150.92 137.154C1151.15 134.979 1152.07 133.805 1154.28 133.396C1158.1 132.687 1161.86 131.697 1165.68 130.979C1176.13 129.013 1186.68 128.428 1197.28 128.928C1205.17 129.299 1212.64 131.215 1219.83 135.955C1224.6 140.102 1226.77 144.849 1226.84 150.577C1226.85 151.491 1227.07 152.403 1227.19 153.316C1227.11 154.012 1227.03 154.708 1226.92 156.172C1226.77 161.344 1226.65 165.748 1226.53 170.152C1226.33 171.223 1226.02 172.287 1225.96 173.366C1225.54 180.213 1225.09 187.06 1224.8 193.913C1224.43 202.638 1224.21 211.369 1223.9 220.096C1223.88 220.698 1223.71 221.295 1223.59 222.074C1220.83 223.049 1218.01 222.432 1215.27 222.532C1212.62 222.629 1209.96 222.621 1207.31 222.518C1204.56 222.412 1201.74 223.025 1198.71 221.962C1200.15 206.695 1200.73 191.477 1201.49 176.312C1200.88 176.195 1200.48 175.985 1200.3 176.102C1195.05 179.347 1189.2 180.95 1183.34 182.614C1179.6 183.678 1175.89 184.911 1172.24 186.247C1169.13 187.382 1166.46 189.245 1164.09 191.591C1158.38 197.23 1160.77 207.283 1168.92 209.501C1173.22 210.673 1177.53 210.83 1181.89 210.068C1183.88 209.72 1185.84 209.164 1187.82 208.771C1188.68 208.601 1189.58 208.606 1190.8 208.502C1189.28 213.633 1187.88 218.353 1186.54 222.89C1185.79 223.206 1185.38 223.475 1184.93 223.551C1175.18 225.212 1165.43 225.816 1155.7 223.461C1153.74 222.987 1151.83 222.256 1149.95 221.503C1147 220.317 1144.5 218.403 1142.6 215.882C1137.21 208.754 1135.29 200.838 1137.58 192.071C1138.81 187.358 1141.72 183.736 1145.25 180.566C1149.87 176.424 1155.32 173.722 1161.19 171.991C1168.07 169.967 1175.05 168.317 1181.96 166.444C1185.87 165.386 1189.76 164.279 1193.62 163.052C1196.03 162.282 1198.12 160.919 1199.86 158.146C1202.73 151.117 1200.64 146.826 1193.94 144.741C1190.17 142.919 1186.13 142.883 1182.11 143.17C1176.53 143.569 1170.98 144.248 1164.86 145.891C1159.85 147.074 1155.58 148.172 1151.61 150.196Z" fill="#F3663E"/>
<path d="M1039.05 198.368C1038.02 193.845 1036.87 189.611 1036.36 185.302C1035.14 174.885 1036.89 164.848 1040.9 155.175C1043.52 148.867 1047.48 143.578 1052.62 139.103C1058.19 134.259 1064.74 131.495 1071.85 130.072C1081.43 128.156 1091 128.227 1100.56 130.54C1111.57 133.204 1119.54 139.504 1124.42 149.728C1124.62 150.149 1124.81 150.571 1125.24 151.215C1126.25 154.764 1127.19 158.065 1127.79 161.426C1128.65 166.223 1128.63 171.022 1126.96 175.925C1125.91 176.099 1124.87 176.398 1123.83 176.424C1120.71 176.5 1117.59 176.475 1114.47 176.477C1098.26 176.485 1082.05 176.485 1065.84 176.504C1064.46 176.505 1063.08 176.619 1061.47 176.691C1061.32 177.766 1061.05 178.654 1061.09 179.529C1061.24 183.268 1061.52 186.991 1062.59 190.617C1064.5 197.118 1068.46 201.847 1074.57 204.8C1080.05 207.444 1085.83 208.288 1091.85 208.068C1097.64 207.855 1103.3 206.8 1108.89 205.351C1111.3 204.725 1113.69 204.008 1116.11 203.388C1117.14 203.121 1118.22 202.995 1119.51 202.764C1119.63 203.492 1119.9 204.094 1119.81 204.627C1118.93 209.375 1117.94 214.102 1117.1 218.856C1116.78 220.651 1115.87 221.646 1114.13 221.951C1109.99 222.673 1105.87 223.618 1101.7 224.074C1090.03 225.35 1078.39 225.522 1066.85 222.789C1054.3 219.821 1045.35 212.609 1040.18 200.76C1039.87 200.046 1039.55 199.335 1039.05 198.368ZM1064.07 166.087C1076.99 166.051 1089.9 166.018 1102.82 165.96C1103.09 165.958 1103.35 165.664 1103.76 165.422C1104.55 160.525 1103.3 155.983 1100.86 151.674C1099.59 149.437 1097.79 147.744 1095.53 146.585C1091.56 144.553 1087.32 143.519 1082.88 144.138C1070.82 145.818 1064.46 153.62 1062.34 164.626C1062.27 164.999 1062.97 165.522 1064.07 166.087Z" fill="#F3663E"/>
<path d="M513.281 213.888C506.315 206.892 502.772 198.574 500.909 189.348C498.995 179.874 500.253 170.675 503.293 161.722C508.026 147.785 517.778 138.669 531.588 133.949C545.319 129.257 559.143 129.226 572.861 134.077C586.811 139.01 595.889 148.519 599.53 163.012C603.831 180.134 600.598 195.762 590.104 209.87C584.682 217.158 577.153 221.507 568.604 224.051C555.218 228.035 541.84 227.735 528.603 223.238C522.924 221.308 517.843 218.322 513.281 213.888ZM531.201 159.937C528.613 163.94 527.143 168.357 526.464 173.04C525.491 179.751 525.602 186.41 527.614 192.959C529.505 199.116 533.318 203.685 539.114 206.434C548.658 210.959 564.766 209.672 571.508 195.459C576.527 184.88 577.349 173.89 573.182 162.738C571.219 157.486 567.573 153.844 562.578 151.436C558.96 149.693 555.126 149.357 551.179 149.391C542.964 149.462 536.368 152.606 531.201 159.937Z" fill="#F2663F"/>
<path d="M898.85 222.609C890.898 222.546 882.946 222.487 874.995 222.4C874.734 222.397 874.476 222.096 874.031 221.819C874.164 218.995 874.301 216.061 874.474 212.319C874.789 205.219 875.069 198.928 875.438 192.246C875.557 190.262 875.586 188.667 875.769 186.787C875.93 185.426 875.936 184.35 876.043 182.908C876.125 181.536 876.106 180.53 876.181 179.123C876.306 176.804 876.337 174.885 876.451 172.659C876.503 171.931 876.473 171.51 876.573 170.727C876.831 168.968 877.03 167.574 877.075 166.176C877.411 155.731 877.708 145.285 878.044 134.84C878.083 133.649 878.293 132.463 878.414 131.363C883.068 130.643 898.166 130.692 901.661 131.433C901.732 132.417 901.85 133.472 901.873 134.529C901.896 135.62 901.827 136.712 901.797 137.804C901.768 138.895 901.665 139.991 901.728 141.077C901.785 142.058 901.214 143.201 902.365 144.165C903.481 142.734 904.532 141.41 905.557 140.066C907.574 137.421 910.044 135.248 912.929 133.663C922.877 128.196 933.32 127.246 944.118 130.702C950.343 132.695 955.092 136.497 957.877 142.549C958.189 143.226 958.704 143.809 959.125 144.436C959.384 144.154 959.644 143.871 960.175 143.421C961.144 142.219 961.841 141.186 962.809 140.001C967.422 134.902 972.835 131.69 979.167 130.02C984.658 128.571 990.264 128.459 995.856 129.084C1000.36 129.588 1004.72 130.849 1008.67 133.167C1015.49 137.17 1019.21 143.209 1019.63 151.064C1019.84 155.087 1019.44 159.143 1019.31 163.184C1019.23 165.511 1019.12 167.837 1019.02 170.164C1018.66 174.2 1018.14 178.23 1017.97 182.274C1017.47 194.277 1017.11 206.285 1016.68 218.291C1016.64 219.512 1016.51 220.729 1016.41 222.194C1013.51 222.938 1010.71 222.474 1007.96 222.546C1005.31 222.614 1002.66 222.568 1000 222.534C997.234 222.498 994.447 222.709 991.725 222.366C991.485 221.646 991.196 221.211 991.221 220.794C992.173 204.598 993.173 188.405 994.111 172.208C994.283 169.251 994.229 166.281 994.257 163.317C994.263 162.695 994.204 162.069 994.123 161.451C992.859 151.745 985.61 146.754 976.023 148.981C973.225 149.631 970.772 150.918 968.683 152.902C965.201 156.208 962.709 160.126 961.686 164.834C960.926 168.334 960.225 171.872 959.871 175.43C959.331 180.859 958.999 186.316 958.784 191.77C958.421 200.968 958.224 210.173 957.941 219.374C957.913 220.273 957.768 221.169 957.647 222.366C953.436 222.811 949.407 222.512 945.396 222.546C941.361 222.581 937.326 222.517 933.035 222.495C932.876 221.376 932.606 220.496 932.653 219.633C933.131 210.755 933.717 201.883 934.161 193.003C934.621 183.812 935.011 174.615 935.307 165.417C935.371 163.418 935.103 161.356 934.649 159.401C932.694 150.984 925.557 146.85 917.22 149.137C913.791 150.077 910.969 151.945 908.671 154.593C906.077 157.581 904.078 160.956 903.355 164.874C902.393 170.081 901.339 175.307 900.924 180.572C900.138 190.522 899.454 200.492 899.534 211.261C899.482 214.63 899.514 217.229 899.546 219.828C899.463 220.279 899.379 220.729 899.188 221.686C899.003 222.33 898.926 222.47 898.85 222.609Z" fill="#F3653D"/>
<path d="M1454.47 200.284C1452.7 203.07 1451.24 205.676 1449.43 207.997C1444.5 214.294 1438.15 218.664 1430.6 221.3C1417.05 226.026 1403.43 226.284 1389.75 222.013C1376.36 217.833 1367.17 209.227 1362.47 195.919C1357.61 182.145 1358.47 168.59 1364.37 155.401C1368.88 145.307 1376.55 138.156 1386.68 133.772C1393.88 130.651 1401.41 128.877 1409.34 128.772C1417.38 128.666 1425.15 129.647 1432.73 132.478C1448.96 138.542 1457.62 150.419 1460.04 167.284C1461.68 178.762 1459.68 189.615 1454.47 200.284ZM1396.9 203.831C1399.24 204.676 1401.52 205.807 1403.93 206.317C1413.98 208.447 1426.25 204.57 1431.53 192.175C1434.95 184.144 1435.45 175.855 1434.33 167.383C1434.03 165.092 1433.29 162.804 1432.42 160.653C1430.46 155.863 1427.2 152.23 1422.46 149.934C1417.96 147.752 1413.23 147.067 1408.33 147.597C1399.26 148.579 1392.52 153.051 1388.65 161.434C1384.64 170.116 1384.01 179.206 1386.1 188.435C1387.51 194.698 1390.44 200.137 1396.9 203.831Z" fill="#F3663E"/>
<path d="M859.629 172.964C859.112 175.524 857.562 176.602 854.953 176.435C853.09 176.316 851.212 176.441 849.341 176.443C832.343 176.464 815.345 176.475 798.346 176.51C796.668 176.513 794.952 176.307 793.386 176.828C791.109 191.78 798.364 202.565 809.412 206.158C813.932 207.627 818.509 208.22 823.226 208.065C829.497 207.859 835.603 206.678 841.636 205.038C844.777 204.184 847.92 203.338 851.371 202.404C851.678 205.816 850.339 208.708 850.003 211.721C849.66 214.793 848.912 217.819 848.36 220.764C845.034 222.636 841.55 222.85 838.206 223.322C832.812 224.082 827.373 224.63 821.935 224.936C814.434 225.358 806.97 224.708 799.626 223.097C782.966 219.443 773.049 208.956 769.047 192.595C765.851 179.529 767.43 166.84 772.741 154.666C778.725 140.947 789.362 132.736 804.038 129.923C814.127 127.988 824.195 128.279 834.783 131.167C848.771 135.911 856.112 145.487 858.906 159.04C859.862 163.679 859.689 168.308 859.629 172.964ZM813.164 166.089C816.895 166.106 820.628 166.205 824.356 166.116C828.032 166.028 831.759 166.671 835.379 165.659C835.57 165.051 835.837 164.612 835.821 164.184C835.656 159.778 834.689 155.588 832.462 151.722C830.925 149.054 828.73 147.173 825.944 145.958C816.371 141.781 806.333 145.007 800.889 150.557C797.273 154.245 795.221 158.674 794.166 163.631C794.022 164.307 794.247 165.061 794.292 165.662C794.862 165.86 795.151 166.047 795.441 166.048C801.037 166.073 806.632 166.077 813.164 166.089Z" fill="#F3663E"/>
<path d="M928.913 290.653C927.816 291.014 926.948 291.13 925.766 291.352C922.514 291.247 920.09 290.01 918.059 287.884C914.609 284.273 915.083 278.351 919.287 275.688C920.954 274.632 922.987 274.093 924.913 273.526C926.701 272.999 928.593 272.83 930.394 272.342C931.402 272.069 932.319 271.466 933.222 271.038C933.432 268.832 932.602 267.495 930.76 266.828C927.381 265.603 925.103 267.414 923.071 270.01C921.164 269.803 919.341 269.606 917.583 269.415C917.041 265.628 918.222 263.522 921.176 262.197C925.501 260.259 929.927 260.12 934.443 261.21C937.959 262.059 940.34 264.126 940.658 267.891C940.919 270.989 940.908 274.11 941.005 278.05C940.937 282.117 940.741 285.376 942.397 288.361C942.274 289.305 942.151 290.246 940.862 290.244C939.166 290.24 937.47 290.243 935.746 290.243C935.205 289.279 934.765 288.493 934.279 287.626C933.867 287.663 933.327 287.557 932.987 287.77C931.671 288.594 930.419 289.521 928.913 290.653ZM927.073 278.125C926.64 278.29 926.179 278.405 925.779 278.63C923.587 279.861 923.005 280.937 923.592 282.585C924.257 284.45 925.977 285.775 927.832 285.475C928.99 285.288 930.245 284.787 931.137 284.044C933.173 282.348 933.771 280.048 933.384 277.364C931.276 276.677 929.556 277.486 927.073 278.125Z" fill="#4A4CA1"/>
<path d="M1010.2 260.656C1011.46 260.948 1012.34 261.235 1013.21 261.574C1015.78 262.577 1017.77 264.303 1019.1 266.691C1020.95 270.009 1021.87 273.563 1021.49 277.648C1015.38 278.635 1009.29 277.5 1003.37 278.285C1002.56 279.917 1003.2 281.221 1004.06 282.313C1004.8 283.257 1005.74 284.238 1006.81 284.692C1010.38 286.214 1012.16 283.408 1014.09 281.13C1016.33 281.497 1018.44 281.842 1020.56 282.19C1018.36 291.7 1006.43 293.44 1000.53 288.544C999.003 287.278 997.887 285.517 996.403 283.746C994.093 278.143 994.158 272.832 996.933 267.046C998.652 264.092 1000.93 262.643 1003.19 261.166C1005.4 261.003 1007.61 260.839 1010.2 260.656ZM1008.4 273.328C1010.05 273.169 1011.77 273.666 1013.33 272.863C1013.41 270.145 1013.3 269.699 1012.26 268.536C1011.31 267.461 1010.18 266.733 1008.68 266.65C1007.19 266.568 1005.94 267.033 1004.9 268.078C1003.57 269.42 1002.54 270.882 1002.93 273.2C1004.53 273.245 1006.06 273.288 1008.4 273.328Z" fill="#4A4CA1"/>
<path d="M989.877 278.57C989.78 282.539 989.597 286.08 989.28 289.981C987.299 290.291 985.452 290.242 983.502 290.191C983.091 288.986 982.753 287.997 982.416 287.01C982.102 287.046 981.733 286.978 981.524 287.13C980.648 287.77 979.79 288.442 978.979 289.163C975.355 292.383 970.98 291.181 968.221 289.321C964.352 286.712 962.395 283.064 961.982 278.485C961.599 274.228 962.108 270.141 963.876 266.196C964.48 264.848 965.285 263.797 966.478 263.038C970.725 260.339 975.074 259.545 979.583 262.457C979.971 262.708 980.39 262.918 980.814 263.104C980.926 263.154 981.109 263.044 981.603 262.923C982.346 261.895 981.982 260.482 982.023 259.169C982.067 257.771 981.977 256.37 982.01 254.972C982.042 253.605 982.156 252.24 982.241 250.733C984.711 250.006 986.966 250.051 989.523 251.166C989.86 256.788 989.918 261.806 989.976 266.823C989.915 270.597 989.853 274.37 989.877 278.57ZM970.891 281.574C971.148 281.963 971.345 282.412 971.671 282.73C974.828 285.826 978.318 285.492 980.53 281.695C982.806 277.785 982.645 273.699 980.739 269.656C980.544 269.241 980.245 268.864 979.945 268.512C977.987 266.208 974.76 265.946 972.481 267.923C970.621 269.537 969.73 271.647 969.532 274.058C969.338 276.412 969.596 278.712 970.891 281.574Z" fill="#4A4CA1"/>
<path d="M1267.1 271.098C1267.92 269.127 1268.71 267.498 1269.52 265.875C1270.13 264.629 1270.88 263.515 1272.65 263.008C1274.19 262.296 1275.43 261.655 1276.73 261.268C1281.4 259.887 1285.8 260.64 1290.41 263.556C1293.73 266.556 1295.53 269.747 1295.97 273.583C1296.66 279.628 1294.62 286.742 1286.64 290.07C1280.36 292.69 1273.23 290.344 1269.04 284.459C1268.51 283.708 1267.98 282.959 1267.44 282.209C1266.75 278.639 1265.88 275.075 1267.1 271.098ZM1281.72 266.936C1278.16 267.054 1275.89 269.066 1274.95 272.276C1273.87 275.982 1274.04 279.705 1276.98 282.69C1279.74 285.498 1283.84 285.186 1286.31 282.05C1288.52 279.247 1288.49 275.981 1287.87 272.733C1287.3 269.759 1285.46 267.774 1281.72 266.936Z" fill="#4A4CA1"/>
<path d="M663.751 261.179C664.661 261.508 665.172 261.858 665.706 262.167C668.557 263.818 669.656 266.436 669.709 269.57C669.772 273.292 669.665 277.019 669.789 280.739C669.856 282.735 670.252 284.72 670.668 287.068C670.798 288.191 670.76 288.956 670.716 289.846C668.54 290.496 666.432 290.414 663.948 289.494C662.659 287.273 662.607 287.219 661.367 288.017C660.601 288.511 659.935 289.162 659.224 289.742C658.665 290.004 658.122 290.316 657.542 290.52C651.252 292.729 647.4 289.288 645.1 285.37C644.023 283.536 644.115 281.422 645.033 279.56C645.835 277.93 647.034 276.497 648.545 274.686C649.687 274.261 650.344 274.128 651.268 274.037C652.023 273.869 652.511 273.658 653.373 273.429C654.716 273.197 655.686 272.982 656.842 272.835C657.315 272.883 657.541 272.757 658.057 272.503C659.288 272.219 660.216 272.053 661.042 271.67C662.25 271.108 662.494 269.603 661.649 268.57C659.756 266.257 656.118 265.879 653.843 267.8C653.04 268.478 652.324 269.259 651.844 269.726C650.043 269.726 648.663 269.726 647.283 269.726C647.283 269.726 646.941 269.525 646.585 269.2C646.02 268.464 645.811 268.053 645.602 267.642C646.147 266.704 646.691 265.765 647.48 264.341C647.943 263.626 648.163 263.396 648.383 263.166C649.236 262.575 650.024 261.632 650.954 261.461C653.526 260.988 656.151 260.711 658.765 260.609C660.288 260.549 661.829 260.974 663.751 261.179ZM658.962 284.78C662.354 281.667 662.519 281.209 661.618 277.171C658.633 277.015 655.886 277.902 653.313 279.356C651.955 280.124 651.698 281.536 652.442 282.985C653.556 285.155 654.747 285.585 658.962 284.78Z" fill="#4A4CA1"/>
<path d="M556.105 262.932C557.212 264.786 559.463 265.803 559.161 268.337C557.265 268.992 555.355 269.507 553.144 269.572C552.643 269.068 552.134 268.495 551.563 267.991C549.174 265.885 546.09 265.502 543.387 267.061C542.925 267.327 542.465 268.013 542.449 268.519C542.434 269.011 542.873 269.763 543.316 269.978C544.566 270.581 545.904 271.027 547.239 271.427C549.476 272.096 551.763 272.602 553.979 273.329C555.293 273.761 556.633 274.315 557.751 275.11C561.273 277.615 561.996 281.859 559.554 285.394C558.855 286.407 557.965 287.323 557.033 288.135C553.137 291.533 548.485 291.723 543.786 290.759C539.252 289.829 536.192 286.873 533.875 282.446C536.405 281.525 538.601 281.179 540.98 281.081C541.702 281.931 542.333 282.813 543.101 283.554C545.519 285.89 549.406 286.075 552.088 284.043C553.421 283.032 553.289 281.409 551.735 280.703C550.609 280.191 549.406 279.837 548.222 279.464C545.847 278.716 543.42 278.112 541.087 277.253C535.708 275.271 533.837 270.849 536.12 265.709C536.557 264.726 537.129 263.803 537.783 262.548C542.393 260.892 546.888 259.948 551.582 260.993C553.12 261.335 554.625 261.678 556.105 262.932Z" fill="#4A4CA1"/>
<path d="M887.922 289.319C886.155 290.056 884.593 290.575 882.699 291.222C880.817 291.262 879.262 291.208 877.714 291.079C873.371 290.717 870.156 288.406 867.634 285.033C867.112 284.334 866.942 283.373 866.551 282.382C868.758 281.298 870.955 281.437 873.093 280.811C874.005 281.859 874.738 282.847 875.616 283.683C877.863 285.824 881.69 286.003 884.224 284.164C885.65 283.13 885.438 281.12 883.763 280.463C882.466 279.953 881.1 279.615 879.759 279.222C877.67 278.609 875.535 278.129 873.493 277.389C867.5 275.217 865.499 269.526 868.848 264.207C869.32 263.458 870.094 262.714 870.898 262.391C875.475 260.549 880.192 259.808 885.025 261.307C888.325 262.331 890.516 264.559 891.925 267.996C889.83 269.184 887.721 269.33 885.448 269.591C884.912 269.07 884.385 268.529 883.829 268.019C881.579 265.952 878.333 265.514 875.663 267.026C875.214 267.28 874.799 268.008 874.797 268.519C874.795 269.027 875.213 269.764 875.659 270.002C876.744 270.581 877.931 271.001 879.116 271.355C881.351 272.023 883.621 272.57 885.859 273.228C886.898 273.533 887.952 273.875 888.902 274.383C893.51 276.851 894.498 282.82 890.93 286.643C890.086 287.548 889.066 288.287 887.922 289.319Z" fill="#4A4CA1"/>
<path d="M587.899 263.115C589.593 265.098 591.362 266.705 591.837 269.326C590.024 271.028 587.497 270.319 585.238 271.201C584.57 270.236 584.038 269.302 583.348 268.505C581.345 266.194 578.125 266.057 575.903 268.176C575.349 268.705 574.81 269.331 574.5 270.019C572.718 273.968 572.905 277.983 574.843 281.747C576.711 285.372 581.244 285.589 583.726 282.364C584.468 281.4 585.036 280.303 585.772 279.126C587.678 279.496 589.5 279.83 591.308 280.223C591.563 280.278 591.756 280.62 592.205 281.043C592.094 283.324 590.857 285.23 589.262 286.957C587.305 289.077 584.94 290.505 582.069 291.022C574.823 292.326 567.402 287.376 565.973 280.127C565.111 275.756 565.55 271.405 567.242 267.281C568.057 265.294 569.086 263.312 571.574 262.788C572.151 262.666 572.65 262.177 573.415 261.617C574.538 261.214 575.43 261.056 576.321 260.889C580.346 260.134 584.147 260.581 587.899 263.115Z" fill="#4A4CA1"/>
<path d="M912.902 289.658C910.251 291.226 907.575 291.523 904.407 290.923C903.457 290.328 902.9 289.787 902.338 289.251C900.674 287.665 899.829 285.761 899.828 283.426C899.826 280.151 899.69 276.876 899.636 273.601C899.608 271.896 899.631 270.19 899.631 268.428C898.521 267.863 897.595 267.391 896.578 266.873C896.578 265.27 896.578 263.727 896.578 261.956C897.039 261.722 897.548 261.437 898.08 261.203C898.496 261.021 898.939 260.903 899.563 260.691C899.803 258.752 900.046 256.782 900.31 254.649C902.786 254.25 904.063 251.379 907.173 251.948C908.068 254.712 907.088 257.724 907.892 260.812C909.184 261.048 910.5 261.288 911.728 261.512C912.558 262.349 912.589 262.995 912.026 267.205C910.781 267.454 909.455 267.719 908.066 267.996C907.915 268.419 907.632 268.845 907.627 269.275C907.585 273.018 907.529 276.763 907.606 280.505C907.674 283.843 908.032 284.113 912.04 284.535C912.867 285.945 913.28 287.534 912.902 289.658Z" fill="#4A4CA1"/>
<path d="M861.189 288.876C860.588 289.614 859.934 290.11 859.236 290.182C857.864 290.323 856.468 290.229 854.676 290.238C854.154 288.699 853.947 287.156 853.937 285.611C853.896 278.779 853.901 271.947 853.916 265.115C853.918 264.047 854.062 262.979 854.145 261.835C856.32 260.833 858.417 261.302 860.822 261.436C860.975 262.795 861.224 263.974 861.223 265.152C861.217 272.916 861.158 280.679 861.189 288.876Z" fill="#434795"/>
<path d="M854.248 257.278C853.814 255.356 853.744 253.526 853.634 251.303C855.915 249.656 858.305 250.264 860.832 250.49C861.665 252.813 861.819 254.961 860.456 257.371C858.548 257.371 856.58 257.371 854.248 257.278Z" fill="#4A4CA1"/>
<path d="M737.209 268.114C738.618 265.022 740.211 262.399 743.346 261.447C747.092 260.308 750.884 260.199 754.566 261.836C755.402 262.208 756.191 262.689 757.476 263.532C761.896 268.976 763.01 272.736 761.919 277.867C756.019 278.33 749.982 277.7 743.966 278.235C743.479 280.551 744.567 282.083 745.821 283.457C747.879 285.712 750.588 285.793 752.839 283.719C753.619 283 754.232 282.1 754.981 281.213C757.25 281.658 759.589 281.38 761.623 282.626C760.019 286.363 760.019 286.363 755.847 290.001C753.39 290.814 750.903 291.433 747.57 291.136C742.588 290.067 739.461 287.615 737.471 283.705C737.265 283.3 736.998 282.926 736.759 282.538C736.344 280.053 735.93 277.567 735.452 274.699C735.982 272.362 736.577 270.409 737.209 268.114ZM754.811 272.199C754.792 270.361 753.804 269.017 752.535 267.844C751.171 266.584 749.481 266.206 747.826 266.88C746.757 267.315 745.772 268.206 745.024 269.118C744.175 270.152 743.297 271.355 744.142 273.084C747.528 273.412 751.004 273.638 754.811 272.199Z" fill="#4A4CA1"/>
<path d="M1317.11 288.712C1317.04 286.515 1317.17 284.669 1317.17 282.823C1317.16 273.719 1317.12 264.615 1317.09 254.731C1317.04 253.245 1316.98 252.539 1316.92 251.833C1317.35 250.105 1318.75 250.256 1320.81 250.22C1327.52 250.149 1333.47 250.077 1339.43 250.005C1341.27 250.064 1343.11 250.124 1345.34 250.133C1346.6 252.198 1346.29 254.342 1345.97 256.755C1345.08 256.922 1344.22 257.214 1343.35 257.22C1338.68 257.256 1334.01 257.208 1329.34 257.222C1328.12 257.225 1326.91 257.344 1325.46 257.424C1325.1 260.249 1324.95 262.797 1325.53 265.585C1331.83 266.39 1338.04 265.496 1344.26 266.007C1345.37 268.044 1344.84 269.993 1344.63 272.216C1343.65 272.385 1342.78 272.658 1341.91 272.665C1337.7 272.697 1333.5 272.636 1329.29 272.655C1328.09 272.661 1326.88 272.823 1325.53 272.924C1324.98 276.351 1324.98 279.526 1325.56 282.911C1332.66 283.775 1339.65 282.632 1346.62 283.411C1347.55 285.489 1347.15 287.466 1346.93 289.668C1346.21 289.849 1345.5 290.179 1344.79 290.182C1336.54 290.222 1328.28 290.218 1320.03 290.21C1318.96 290.209 1317.79 290.388 1317.11 288.712Z" fill="#48499C"/>
<path d="M811.481 266.669C816.927 275.26 814.668 284.624 806.295 289.4C802.017 291.84 797.674 291.824 793.356 289.609C785.717 285.69 782.988 277.278 786.174 269.287C787.898 264.965 790.803 262.478 795.042 261.299C799.595 260.031 804.019 260.335 807.966 263.19C809.194 264.078 810.166 265.319 811.481 266.669ZM792.707 277.253C793.147 278.572 793.415 279.984 794.066 281.19C795.254 283.391 797.188 284.622 799.764 284.58C802.34 284.537 804.226 283.233 805.369 281.014C806.862 278.118 806.933 274.996 806.044 271.934C805.189 268.989 802.606 267.01 799.963 266.91C797.419 266.815 794.571 268.692 793.543 271.517C792.974 273.084 792.931 274.841 792.707 277.253Z" fill="#48499C"/>
<path d="M1357.91 261.386C1359.7 260.981 1361.23 260.704 1362.78 260.604C1366.08 260.391 1369.28 260.891 1372.65 262.439C1374.33 264.221 1376.23 265.531 1376.46 268.204C1374.54 269.15 1372.39 269.157 1370.38 269.69C1369.76 269.145 1369.3 268.75 1368.85 268.333C1366.3 265.954 1363.25 265.454 1360.36 267.062C1359.89 267.322 1359.41 268 1359.39 268.505C1359.37 268.999 1359.8 269.767 1360.24 269.981C1361.49 270.584 1362.83 271.025 1364.17 271.419C1366.56 272.123 1369 272.673 1371.37 273.42C1374.5 274.403 1377.04 276.094 1377.69 279.613C1378.4 283.453 1376.66 286.235 1373.72 288.462C1367.57 293.117 1357.28 291.693 1352.71 285.531C1352.34 285.035 1352.02 284.481 1351.79 283.909C1351.63 283.5 1351.64 283.017 1351.54 282.347C1353.52 281.31 1355.67 281.309 1357.92 280.966C1358.75 281.902 1359.48 282.887 1360.37 283.706C1362.71 285.863 1366.43 286.004 1368.98 284.118C1370.28 283.161 1370.24 281.349 1368.83 280.658C1367.86 280.186 1366.8 279.904 1365.76 279.593C1363.22 278.833 1360.67 278.129 1358.14 277.361C1352.64 275.691 1350.79 270.269 1353.18 265.37C1354.17 263.321 1356.07 262.733 1357.91 261.386Z" fill="#4A4CA1"/>
<path d="M1227.67 262.697C1229.55 264.702 1231.56 266.335 1231.79 269.234C1229.99 271.122 1227.46 270.231 1225.35 271.185C1224.71 270.271 1224.31 269.627 1223.84 269.045C1221.09 265.66 1216.69 266.046 1214.7 269.897C1214.21 270.842 1213.81 271.965 1213.82 273.005C1213.82 275.483 1213.85 278.008 1214.33 280.422C1214.79 282.723 1216.51 284.194 1218.92 284.52C1221.35 284.848 1223.17 283.859 1224.32 281.678C1224.68 280.993 1225.04 280.308 1225.49 279.458C1227.82 279.32 1230.02 279.73 1232.13 280.678C1231.38 285.591 1230.43 286.785 1224.06 290.931C1224.52 291.716 1225.02 292.492 1225.45 293.302C1226.48 295.22 1226.04 296.975 1224.59 298.428C1223.84 299.181 1222.88 299.811 1221.9 300.237C1219.77 301.165 1214.37 300.97 1211.4 300.017C1211.16 299.011 1211.21 298.032 1212.45 297.875C1213.83 297.7 1215.25 297.838 1216.65 297.713C1217.56 297.631 1218.56 297.505 1219.32 297.058C1219.87 296.73 1220.43 295.836 1220.4 295.22C1220.37 294.624 1219.7 293.709 1219.13 293.554C1217.66 293.145 1216.09 293.073 1214.49 292.858C1214.49 292.1 1214.49 291.354 1214.49 290.403C1211.51 288.972 1209.1 286.808 1207.16 283.718C1206.61 282.192 1206.24 280.895 1205.76 278.898C1205.6 276.591 1205.55 274.984 1205.5 273.377C1206.02 271.716 1206.53 270.054 1207.24 267.795C1208.1 266.399 1208.78 265.622 1209.41 264.799C1210.03 263.976 1210.59 263.107 1211.17 262.258C1212.07 262.05 1213.01 261.935 1213.86 261.618C1218.52 259.901 1223.01 260.187 1227.67 262.697Z" fill="#4A4CA1"/>
<path d="M1194.73 290.111C1194.07 289.213 1193.8 288.371 1193.41 287.12C1191.95 288.017 1190.74 288.64 1189.66 289.447C1185.34 292.697 1178.92 291.692 1175.51 285.41C1174.01 282.649 1174.65 279.941 1176.49 277.53C1177.74 275.88 1179.37 274.684 1181.44 274.195C1183.4 273.728 1185.39 273.333 1187.35 272.841C1188.99 272.433 1190.6 271.93 1192.1 271.5C1192.27 268.382 1191.57 267.163 1189.37 266.733C1187.32 266.33 1185.3 266.357 1183.81 268.18C1183.31 268.782 1182.93 269.472 1182.74 269.765C1180.21 269.774 1178.36 269.762 1176.52 268.948C1176.05 267.096 1176.45 265.582 1178.12 264.066C1180.9 261.565 1181.63 261.185 1184.67 260.727C1188.24 260.187 1191.77 260.403 1195.15 261.773C1195.86 262.06 1196.51 262.513 1197.63 263.354C1199.73 265.882 1199.94 268.319 1199.96 270.829C1199.99 274.837 1200.09 278.845 1200.16 282.853C1200.53 285.095 1200.89 287.337 1201.29 289.769C1199.34 290.693 1197.21 290.131 1194.73 290.111ZM1191.35 282.832C1192.57 281.081 1192.89 279.234 1192.11 277.114C1189.25 276.918 1186.77 277.777 1184.4 278.838C1181.97 279.92 1181.67 282.226 1183.53 284.113C1184.71 285.311 1186.19 285.841 1187.76 285.29C1188.89 284.896 1189.86 284.058 1191.35 282.832Z" fill="#4A4CA1"/>
<path d="M1165.76 262.212C1167.03 263.357 1168 264.365 1168.91 265.413C1169.93 266.58 1170.93 267.773 1170.71 269.711C1168.74 270.721 1166.57 270.67 1164.37 270.997C1163.66 270.068 1163.08 269.154 1162.35 268.386C1160.32 266.262 1157.44 266.099 1155.23 267.995C1154.53 268.589 1153.82 269.315 1153.46 270.131C1151.7 274.089 1151.88 278.086 1153.97 281.828C1155.88 285.255 1159.99 285.575 1162.61 282.645C1163.42 281.733 1163.99 280.603 1164.81 279.363C1165.78 279.477 1166.85 279.551 1167.89 279.738C1168.94 279.927 1169.97 280.229 1171.29 280.55C1171.14 281.425 1171.15 282.19 1170.88 282.837C1167.18 291.656 1156.79 294.032 1149.67 287.684C1148.74 286.862 1147.99 285.845 1146.91 284.743C1145.99 282.62 1145.32 280.673 1144.61 277.99C1144.63 275.339 1144.69 273.422 1144.76 271.506C1145.2 270.52 1145.63 269.526 1146.1 268.548C1148.95 262.545 1154.41 259.641 1160.97 260.75C1162.49 261.006 1163.94 261.636 1165.76 262.212Z" fill="#4A4CA1"/>
<path d="M1255.63 290.129C1254.97 289.211 1254.72 288.373 1254.34 287.116C1253.01 287.975 1252 288.608 1251 289.265C1246.05 292.537 1240.38 291.445 1237.08 286.578C1235.14 283.728 1235.67 279.184 1238.16 276.654C1239.9 274.896 1242.12 274.216 1244.4 273.671C1246.68 273.129 1248.98 272.719 1251.25 272.153C1252.32 271.886 1253.36 271.396 1253.36 270.019C1253.35 268.514 1252.44 267.203 1251.03 266.887C1248.68 266.361 1246.37 266.247 1244.57 268.329C1244.17 268.792 1243.73 269.223 1243.27 269.714C1241.22 269.747 1239.24 269.814 1237.37 268.841C1237.01 266.942 1237.99 265.706 1238.94 264.503C1240.12 263.001 1241.61 261.879 1243.47 261.337C1247.48 260.163 1251.55 260.299 1255.46 261.523C1258.62 262.51 1260.81 264.683 1260.87 268.348C1260.9 270.062 1260.98 271.776 1261.13 273.902C1260.5 279.405 1260.91 284.456 1262.05 289.461C1259.99 290.866 1257.96 290.112 1255.63 290.129ZM1245.84 285.004C1248.15 286.044 1250.09 285.189 1251.75 283.635C1253.65 281.851 1253.56 279.606 1253.12 277.161C1250.14 276.903 1247.7 277.813 1245.31 278.843C1244.04 279.391 1243.58 280.528 1243.67 281.886C1243.75 283.037 1244.3 283.928 1245.84 285.004Z" fill="#4A4CA1"/>
<path d="M529.149 256.961C522.327 257.453 515.5 257 508.643 257.357C508.281 260.332 507.691 262.9 508.65 265.652C514.942 266.266 521.15 265.602 527.253 265.955C528.241 268.988 528.241 268.988 527.314 272.416C524.28 272.958 521.17 272.564 518.08 272.68C514.997 272.796 511.884 272.3 508.674 273.008C508.06 276.269 507.821 279.448 508.563 282.897C509.681 283.052 510.723 283.323 511.764 283.319C516.434 283.3 521.103 283.177 525.772 283.148C527.139 283.14 528.585 282.823 530.017 283.906C530.017 285.608 530.061 287.453 529.974 289.291C529.959 289.604 529.375 289.889 528.693 290.313C526.107 290.376 523.882 290.313 520.814 290.247C515.783 290.232 511.593 290.225 507.404 290.208C505.543 290.2 503.682 290.171 501.821 290.153C500.635 290.141 500.329 289.256 500.111 287.924C500.188 280.543 500.212 273.596 500.185 266.648C500.17 262.639 500.072 258.629 500.069 254.39C500.088 254.009 500.049 253.857 500.077 253.395C500.096 252.668 500.048 252.25 500 251.833C500.476 249.996 502.018 250.376 504.059 250.232C507.339 250.15 509.873 250.075 512.407 250C516.145 250.074 519.884 250.13 523.621 250.23C525.329 250.276 527.034 250.408 529.054 251.101C529.381 253.305 529.394 254.909 529.408 256.513C529.408 256.513 529.169 256.782 529.149 256.961Z" fill="#48499C"/>
<path d="M1391.46 299.992C1391.15 300.515 1390.82 300.657 1389.83 300.824C1387.65 300.743 1386.14 300.638 1384.4 300.518C1384.28 299.227 1384.11 298.177 1384.1 297.127C1384.08 286.231 1384.07 275.336 1384.08 264.441C1384.08 263.361 1384.28 262.28 1384.39 261.2C1384.81 261.194 1385.23 261.187 1385.96 261.092C1387.64 261.165 1389.02 261.326 1390.45 261.493C1390.73 262.449 1390.99 263.319 1391.25 264.185C1391.58 264.129 1391.94 264.168 1392.18 264.015C1393.21 263.331 1394.17 262.516 1395.24 261.89C1398.7 259.865 1403.04 260.334 1406.14 262.853C1409.89 265.894 1411.95 269.702 1411.82 274.585C1411.77 276.296 1411.75 278.017 1411.54 279.712C1410.99 284.223 1408.43 287.484 1404.7 289.795C1401.68 291.664 1398.5 291.704 1395.44 289.696C1394.32 288.959 1393.21 288.202 1391.78 287.247C1390.97 289.571 1391.32 291.583 1391.29 293.539C1391.27 295.562 1391.38 297.587 1391.46 299.992ZM1391.44 273.521C1390.87 276.742 1391.47 279.695 1393.5 282.301C1394.81 284.003 1396.5 285.012 1398.73 284.676C1401.13 284.313 1402.56 282.792 1403.3 280.555C1404.25 277.676 1404.29 274.735 1403.55 271.836C1403.26 270.679 1402.61 269.509 1401.83 268.596C1399.7 266.092 1396.23 265.966 1394.1 268.417C1393.01 269.659 1392.43 271.332 1391.44 273.521Z" fill="#48499C"/>
<path d="M1478.96 251.296C1481.47 249.819 1483.8 249.971 1486.25 251.145C1486.25 253.046 1486.25 254.871 1486.25 256.809C1483.97 257.861 1481.72 257.411 1479.31 257.256C1478.53 255.358 1478.86 253.502 1478.96 251.296Z" fill="#4A4CA1"/>
<path d="M1138.52 261.308C1138.75 267.397 1138.8 273.472 1138.84 279.548C1138.85 281.261 1138.84 282.976 1138.93 285.122C1138.79 287.002 1138.56 288.45 1138.35 289.8C1136.53 290.612 1134.86 290.128 1132.72 289.969C1132.02 288.715 1131.84 287.762 1131.62 286.589C1129.78 287.405 1128.53 288.394 1127.12 289.802C1121.74 292.142 1119.33 291.728 1115.56 288.04C1115.01 287.504 1114.48 286.955 1113.85 286.031C1112.78 283.473 1112.76 281.152 1112.74 278.829C1112.68 273.89 1112.61 268.95 1112.55 264.011C1112.91 263.016 1112.51 261.621 1114.74 261.191C1116.94 261.371 1118.57 260.756 1120.1 261.891C1120.16 263.258 1120.25 264.636 1120.26 266.015C1120.29 269.904 1120.22 273.796 1120.32 277.682C1120.36 279.212 1120.66 280.765 1121.06 282.248C1121.51 283.922 1122.8 284.75 1124.52 284.886C1127.19 285.097 1129.45 283.719 1130.36 281.193C1130.67 280.328 1130.87 279.374 1130.88 278.458C1130.95 273.022 1130.94 267.586 1130.96 262.149C1131.85 261.821 1132.73 261.493 1134.34 261.155C1136.06 261.118 1137.05 261.09 1138.05 261.062C1138.05 261.062 1138.34 261.295 1138.52 261.308Z" fill="#4A4CA1"/>
<path d="M1486.48 287.931C1486.23 289.473 1485.69 290.29 1484.36 290.278C1483.14 290.267 1481.91 290.334 1480.3 290.451C1479.56 289.882 1478.91 289.23 1478.91 288.572C1478.84 279.726 1478.86 270.879 1478.86 261.968C1481.21 260.757 1483.47 261.273 1486.04 261.486C1486.17 262.749 1486.4 263.935 1486.41 265.123C1486.43 272.581 1486.41 280.04 1486.48 287.931Z" fill="#48499C"/>
<path d="M1532.38 286.491C1532.21 287.546 1532.03 288.601 1531.84 289.756C1529.64 290.564 1527.51 290.239 1525.16 290.069C1524.97 289.291 1524.65 288.572 1524.64 287.851C1524.57 276.17 1524.55 264.489 1524.51 252.808C1524.51 251.676 1524.6 250.593 1526.76 250.248C1528.83 250.174 1530.13 250.142 1531.44 250.11C1531.44 250.11 1531.6 250.237 1531.82 250.591C1532.1 252.502 1532.21 254.057 1532.21 255.613C1532.22 264.039 1532.18 272.465 1532.19 280.89C1532.19 282.757 1532.31 284.624 1532.38 286.491Z" fill="#48499C"/>
<path d="M1416.7 268.485C1416.97 267.867 1417.18 267.62 1417.28 267.333C1419.82 259.768 1432.79 258.729 1437.46 264.03C1440.92 267.96 1442.68 272.327 1441.69 277.769C1435.92 278.385 1430.02 277.774 1424.36 278.098C1423.29 279.287 1423.54 280.427 1424.1 281.307C1424.83 282.456 1425.69 283.695 1426.81 284.377C1429.33 285.907 1431.53 284.964 1434.86 281.176C1436.79 281.469 1438.9 281.79 1441.32 282.16C1441.13 283.087 1441.15 283.875 1440.81 284.44C1437.56 289.812 1432.58 292.164 1426.56 290.926C1420.81 289.742 1417.43 285.982 1415.99 280.361C1414.98 276.451 1415.67 272.642 1416.7 268.485ZM1425.54 273.32C1428.45 273.249 1431.37 273.532 1434.24 273.076C1434.82 271.173 1433.93 269.885 1433.04 268.624C1431.85 266.917 1430.13 266.398 1428.15 266.714C1425.7 267.106 1423.56 269.858 1423.77 272.406C1423.79 272.71 1424.39 272.967 1425.54 273.32Z" fill="#4A4CA1"/>
<path d="M1454.37 276.06C1454.79 278.114 1454.92 279.898 1455.65 281.382C1457.61 285.333 1462.03 285.742 1464.79 282.334C1465.45 281.51 1465.87 280.488 1466.52 279.359C1468.76 279.45 1470.99 279.72 1473.11 280.559C1472.33 286.054 1468.12 290.239 1462.7 291.065C1455.98 292.09 1449.5 288.113 1447.38 281.58C1445.48 275.705 1446.74 270.182 1449.66 264.992C1450.47 263.563 1451.88 262.652 1453.63 262.018C1457.11 260.76 1460.5 260.256 1464.13 261.03C1468.7 262.003 1471.49 264.728 1472.78 269.226C1470.98 270.991 1468.59 270.332 1466.44 271.252C1465.86 270.466 1465.26 269.784 1464.8 269.025C1462.98 266.05 1458.57 265.774 1456.1 269.041C1455.38 269.999 1454.94 271.232 1454.62 272.408C1454.34 273.44 1454.43 274.568 1454.37 276.06Z" fill="#4A4CA1"/>
<path d="M1492.97 286.168C1490.94 280.176 1492.96 275.934 1498.52 274.203C1500.89 273.465 1503.36 273.062 1505.8 272.537C1507.17 272.242 1508.57 272.04 1509.63 270.744C1509.57 268.974 1508.9 267.391 1507.04 266.86C1503.86 265.954 1501.19 266.811 1499.34 270.079C1497.36 269.808 1495.4 269.541 1493.44 269.272C1494.43 262.994 1496.84 261.51 1500.67 260.989C1503.64 260.583 1506.52 260.476 1509.48 260.965C1511.58 261.311 1513.24 262.227 1514.79 263.652C1515.9 264.676 1516.57 265.789 1516.74 267.23C1516.91 268.618 1517.11 270.011 1517.15 271.405C1517.2 273.429 1517.13 275.457 1517.12 277.483C1517.12 281.522 1516.95 285.577 1518.48 289.574C1516.27 290.853 1514.13 290.11 1512.06 290.182C1511.44 289.203 1510.87 288.328 1510.16 287.22C1508.87 288.053 1507.72 288.79 1506.57 289.539C1502.73 292.05 1498.92 291.836 1495.43 288.841C1494.61 288.136 1493.92 287.271 1492.97 286.168ZM1503.2 278.167C1502.62 278.404 1502.06 278.644 1501.48 278.877C1498.96 279.901 1499.06 282.815 1501.11 284.549C1502.53 285.744 1504.54 285.814 1506.32 284.787C1508.93 283.276 1509.83 281.038 1509.26 277.227C1507.39 276.687 1505.68 277.54 1503.2 278.167Z" fill="#4A4CA1"/>
<path d="M716.698 284.626C716.097 286.322 715.495 288.018 714.853 289.832C712.859 290.469 710.88 290.047 708.372 290.099C707.552 289.763 707.317 289.537 707.068 288.949C704.48 280.013 703.212 271.091 700.055 262.628C699.636 271.53 699.575 280.416 699.805 289.305C699.264 289.63 698.723 289.956 697.609 290.297C696.111 290.357 695.187 290.403 694.262 290.448C693.193 290.118 692.14 289.774 692.23 288.329C692.239 288.174 692.214 288.018 692.215 287.862C692.267 275.567 692.32 263.272 692.513 250.573C696.377 250.275 700.101 250.382 704.168 251.06C705.565 255.692 706.54 259.774 707.695 263.806C708.834 267.785 709.303 271.974 711.358 276.405C711.82 274.956 712.12 274.155 712.332 273.33C714.033 266.71 715.694 260.078 717.431 253.467C717.739 252.298 718.343 251.206 718.81 250.078C718.81 250.078 719.11 250.184 719.671 250.201C722.208 250.237 724.189 250.185 726.161 250.299C727.499 250.376 728.824 250.684 730.155 250.889C730.101 262.359 730.059 273.828 729.979 285.297C729.968 286.808 730.293 288.393 729.316 290.001C727.73 290.422 726.044 290.277 724.371 290.172C723.183 290.098 722.957 289.176 722.804 287.409C722.778 279.44 722.785 272.287 722.71 265.134C722.702 264.379 723.214 263.202 721.632 262.882C720.218 268.76 718.788 274.632 717.405 280.514C717.087 281.865 716.929 283.254 716.698 284.626Z" fill="#48499C"/>
<path d="M1071.57 257.269C1064.9 257.252 1058.23 257.246 1051.44 257.223C1050.57 260.117 1050.76 262.66 1051.17 265.426C1054.33 266.276 1057.43 265.78 1060.49 265.849C1063.59 265.919 1066.69 265.865 1069.86 265.865C1070.99 268.127 1070.56 270.199 1070.11 272.594C1063.89 273.174 1057.7 272.529 1051.36 272.769C1050.58 276.226 1050.74 279.375 1051.27 282.82C1054.96 283.511 1058.52 283.014 1062.05 283.145C1065.44 283.271 1068.86 282.7 1072.26 283.51C1073 285.589 1072.76 287.563 1072.37 289.704C1069.19 290.731 1065.92 290.059 1062.71 290.172C1059.6 290.281 1056.48 290.23 1053.37 290.204C1050.11 290.176 1046.84 290.096 1043.18 289.908C1042.75 284.91 1042.73 280.043 1042.71 274.312C1042.64 266.867 1042.58 260.287 1042.51 253.706C1042.64 252.788 1042.77 251.87 1043.01 250.623C1043.12 250.293 1043.34 250.332 1043.75 250.277C1044.87 250.158 1045.57 250.093 1046.71 250.116C1054.34 250.133 1061.55 250.061 1069.05 250.074C1070.17 250.171 1070.99 250.183 1071.88 250.579C1071.9 253.045 1071.84 255.127 1071.73 257.207C1071.67 257.205 1071.57 257.269 1071.57 257.269Z" fill="#4A4CA1"/>
<path d="M839.856 289.963C839.432 288.95 839.387 288.046 839.327 286.843C837.78 287.104 837.056 288.138 836.153 288.84C831.977 292.085 827.967 291.968 823.981 288.468C820.398 285.323 818.497 281.41 818.47 276.599C818.451 273.3 818.905 270.152 820.281 267.08C822.626 261.844 828.793 259.173 834.135 261.353C835.396 261.868 836.576 262.578 837.799 263.2C838.824 260.975 838.823 260.975 838.785 257.374C838.765 255.508 838.75 253.643 838.718 251.345C839.083 250.7 839.461 250.488 840.03 250.169C841.729 250.128 843.239 250.19 844.749 250.261C846.056 250.322 846.607 251.101 846.718 252.781C846.754 253.241 846.859 253.554 846.762 253.865C846.706 255.269 846.747 256.362 846.708 257.887C846.61 263.4 846.566 268.481 846.58 273.561C846.591 277.559 846.673 281.557 846.639 285.862C846.607 286.589 846.658 287.008 846.71 287.428C846.515 288.165 846.319 288.903 846.082 289.797C844.177 290.575 842.201 290.264 839.856 289.963ZM833.085 266.617C830.364 266.387 828.571 267.884 827.479 270.077C825.46 274.132 825.64 278.303 827.983 282.145C830.152 285.702 834.499 285.738 836.945 282.379C839.111 279.403 839.372 276.052 838.605 272.547C838 269.786 836.698 267.617 833.085 266.617Z" fill="#4A4CA1"/>
<path d="M1097.67 257.446C1097.72 255.537 1097.77 253.628 1097.79 251.311C1098.01 250.764 1098.23 250.604 1098.99 250.334C1101.36 250.42 1103.25 249.929 1104.9 250.684C1105.9 252.266 1105.51 253.851 1105.51 255.359C1105.52 265.119 1105.49 274.879 1105.45 284.639C1105.44 286.495 1105.28 288.349 1105.19 290.204C1103.91 290.244 1102.63 290.285 1100.97 290.407C1100.02 290.03 1099.28 289.674 1098.92 289.085C1098.56 288.489 1098.58 287.663 1098.35 286.51C1096.83 287.617 1095.6 288.513 1094.37 289.418C1091.09 291.838 1087.82 291.888 1084.49 289.571C1079.46 286.066 1077.26 281.11 1077.49 275.134C1077.63 271.436 1078.02 267.68 1081.06 264.278C1081.54 263.577 1081.76 263.357 1081.97 263.133C1082.4 262.963 1082.86 262.858 1083.24 262.615C1086.39 260.558 1089.74 260.002 1093.88 261.575C1095.23 262.282 1096.04 262.721 1097.18 263.134C1097.57 262.479 1097.64 261.851 1097.78 260.848C1097.79 259.465 1097.73 258.455 1097.67 257.446ZM1093.15 284.594C1095.66 283.547 1097.1 281.499 1097.68 279.002C1098.31 276.257 1098.39 273.39 1097.21 270.736C1096.72 269.64 1095.86 268.616 1094.95 267.821C1093.06 266.18 1090.37 266.124 1088.54 267.808C1087.43 268.825 1086.35 270.164 1085.93 271.562C1085 274.586 1085.04 277.721 1086.3 280.719C1087.43 283.406 1089.25 285.095 1093.15 284.594Z" fill="#4A4CA1"/>
<path d="M616.288 261.364C617.33 262.028 618.399 262.654 619.41 263.362C625.426 267.57 627.39 276.36 623.829 283.052C620.316 289.655 612.369 292.691 605.414 290.088C598.717 287.581 594.838 280.498 596.206 273.052C596.541 271.23 597.148 269.434 597.826 267.702C598.89 264.982 600.699 262.941 603.958 261.974C604.506 261.808 604.725 261.739 605.381 261.415C606.532 261.066 607.243 260.939 607.897 260.672C608.577 260.394 609.102 259.922 608.891 259.05C608.891 259.05 608.942 258.984 608.917 259.388C611.204 261.04 613.85 260.711 616.288 261.364ZM608.992 267.208C604.321 270.043 602.712 274.257 604.32 279.443C605.276 282.528 607.862 284.597 610.748 284.586C613.828 284.573 616.505 282.32 617.179 278.925C617.476 277.426 617.525 275.837 617.422 274.307C617.097 269.484 614.748 267.324 608.992 267.208Z" fill="#4A4CA1"/>
<path d="M776.215 251.81C776.557 254.747 776.269 257.67 776.691 260.802C778.199 261.052 779.515 261.271 781.016 261.521C781.515 263.397 781.58 265.16 780.918 267.138C779.594 267.398 778.276 267.656 776.916 267.922C776.172 270 776.506 272.026 776.464 274.006C776.412 276.482 776.475 278.96 776.506 281.437C776.531 283.442 777.404 284.723 779.642 284.407C780.073 284.346 780.53 284.467 780.88 284.496C781.16 284.833 781.439 285.033 781.53 285.298C783.145 289.998 780.922 290.879 777.216 291.194C776.146 291.285 775.056 291.13 773.373 290.797C769.731 288.323 768.558 285.335 768.741 281.644C768.871 279.018 768.766 276.38 768.75 273.748C768.739 271.906 768.702 270.064 768.677 268.274C768.027 267.965 767.626 267.763 767.215 267.583C766.67 267.345 766.118 267.124 765.529 266.88C765.43 265.211 765.339 263.674 765.335 261.989C765.422 261.841 765.399 261.498 765.754 261.413C768.741 260.662 768.755 260.663 768.798 258.259C768.808 257.678 768.684 257.094 768.793 256.23C770.859 254.554 772.755 253.16 774.651 251.766C775.068 251.771 775.486 251.776 776.215 251.81Z" fill="#4A4CA1"/>
<path d="M631.822 290.151C631.352 277.333 631.296 264.553 631.209 251.336C631.177 250.898 631.431 250.663 631.749 250.476C632.45 250.203 632.833 250.117 633.6 250.12C635.486 250.379 637.133 249.865 638.698 251.443C638.736 252.648 638.808 254.174 638.828 255.702C638.904 261.593 638.964 267.484 638.946 273.722C638.916 274.775 638.97 275.482 639.024 276.188C638.896 280.621 638.768 285.053 638.638 289.582C636.488 290.764 634.319 290.091 631.822 290.151Z" fill="#48499C"/>
<path d="M1240.02 256.61C1240.57 255.188 1241.12 253.767 1241.78 252.076C1243.26 251.468 1244.63 251.13 1246.67 250.915C1248.93 251.638 1250.5 252.337 1252.13 252.812C1253.71 253.271 1254.85 252.64 1255.33 250.989C1256.26 250.948 1257.2 250.908 1258.48 250.949C1258.83 251.031 1258.84 251.448 1258.82 251.98C1257.18 257.497 1255.6 258.351 1250.72 256.878C1249.84 256.614 1248.97 256.314 1248.11 255.985C1246.41 255.328 1244.99 255.332 1243.6 256.9C1242.56 258.068 1241.13 257.871 1240.02 256.61Z" fill="#4A4CA1"/>
</svg>
